SplineFontDB: 3.2
FontName: UnicodiaMallige
FullName: UnicodiaMallige
FamilyName: UnicodiaMallige
Weight: Regular
Copyright: 
Version: 1.000
ItalicAngle: 0
UnderlinePosition: -125
UnderlineWidth: 50
Ascent: 800
Descent: 200
InvalidEm: 0
sfntRevision: 0x00010000
LayerCount: 2
Layer: 0 0 "+BBcEMAQ0BD0EOAQ5 +BD8EOwQwBD0A" 1
Layer: 1 0 "+BB8ENQRABDUENAQ9BDgEOQAA +BD8EOwQwBD0A" 0
XUID: [1021 59 1751208496 482]
StyleMap: 0x0040
FSType: 4
OS2Version: 4
OS2_WeightWidthSlopeOnly: 0
OS2_UseTypoMetrics: 1
CreationTime: 1658136585
ModificationTime: 1733862611
PfmFamily: 81
TTFWeight: 400
TTFWidth: 5
LineGap: 0
VLineGap: 0
Panose: 0 0 0 0 0 0 0 0 0 0
OS2TypoAscent: 864
OS2TypoAOffset: 0
OS2TypoDescent: -1200
OS2TypoDOffset: 0
OS2TypoLinegap: 0
OS2WinAscent: 864
OS2WinAOffset: 0
OS2WinDescent: 500
OS2WinDOffset: 0
HheadAscent: 864
HheadAOffset: 0
HheadDescent: -1200
HheadDOffset: 0
OS2SubXSize: 650
OS2SubYSize: 600
OS2SubXOff: 0
OS2SubYOff: 75
OS2SupXSize: 650
OS2SupYSize: 600
OS2SupXOff: 0
OS2SupYOff: 350
OS2StrikeYSize: 50
OS2StrikeYPos: 50
OS2CapHeight: 714
OS2XHeight: 554
OS2Vendor: '    '
OS2CodePages: 00000001.00000000
OS2UnicodeRanges: 00000001.40000000.00000000.00000000
Lookup: 1 0 0 "'aalt' +BBIEQQQ1 +BDAEOwRMBEIENQRABD0EMARCBDgEMgQ9BEsENQAA +BDIEMARABDgEMAQ9BEIESwAA in Latin lookup 0" { "'aalt' +BBIEQQQ1 +BDAEOwRMBEIENQRABD0EMARCBDgEMgQ9BEsENQAA +BDIEMARABDgEMAQ9BEIESwAA in Latin lookup 0 subtable"  } ['aalt' ('DFLT' <'dflt' > 'latn' <'dflt' > ) ]
Lookup: 4 0 1 "'liga' +BCEEQgQwBD0ENAQwBEAEQgQ9BEsENQAA +BDsEOAQzBDAEQgRDBEAESwAA in Latin lookup 1" { "'liga' +BCEEQgQwBD0ENAQwBEAEQgQ9BEsENQAA +BDsEOAQzBDAEQgRDBEAESwAA in Latin lookup 1 subtable"  } ['liga' ('DFLT' <'dflt' > 'latn' <'dflt' > ) ]
Lookup: 3 0 0 "'salt' +BCEEQgQ4BDsEOARBBEIEOARHBDUEQQQ6BDgENQAA +BDAEOwRMBEIENQRABD0EMARCBDgEMgRL in Latin lookup 2" { "'salt' +BCEEQgQ4BDsEOARBBEIEOARHBDUEQQQ6BDgENQAA +BDAEOwRMBEIENQRABD0EMARCBDgEMgRL in Latin lookup 2 subtable"  } ['salt' ('DFLT' <'dflt' > 'latn' <'dflt' > ) ]

StartChar: zero
Encoding: 48 48 4
Width: 534
GlyphClass: 2
Flags: HW
LayerCount: 2
Fore
SplineSet
276 556 m 0
 417.896907064 556 515 428.555927217 515 291 c 0
 515 143.102510693 414.805259984 2 262 2 c 0
 113.135459192 2 24 142.261996366 24 271 c 0
 24 414.374822286 119.511656524 556 276 556 c 0
264 456 m 0
 181.533717399 456 76 391.239795114 76 292 c 0
 76 184.717848595 173.770683364 102 274 102 c 0
 363.717756368 102 463 172.803955149 463 271 c 0
 463 378.10611563 360.639496604 456 264 456 c 0
EndSplineSet
EndChar

StartChar: one
Encoding: 49 49 5
Width: 446
GlyphClass: 2
Flags: HW
LayerCount: 2
Fore
SplineSet
196 -2 m 0
 173.322318323 -2 173 42.4946288493 173 43 c 2
 173 235 l 1
 47 235 l 2
 24.322318323 235 24 279.494628849 24 280 c 0
 24 293.905525896 30.8786968336 335 51 335 c 2
 173 335 l 1
 173 412 l 2
 173 464.653271519 219.786899422 548 281 548 c 256
 348.228788097 548 430 474.135828899 430 370 c 0
 430 310.687155939 403.78920776 235 270 235 c 2
 223 235 l 1
 223 233.429968153 224 80.9589207357 224 78 c 0
 224 53.0897710752 221.156312625 -2 196 -2 c 0
276 448 m 0
 247.605617077 448 219.579672535 419.884584506 221.5 393 c 128
 221.833333333 388.333333333 222 384 222 380 c 2
 222 335 l 1
 297.458919217 335 357.538461538 335 379 366 c 1
 368.824660665 404.157522507 320.678655357 448 276 448 c 0
EndSplineSet
EndChar

StartChar: two
Encoding: 50 50 6
Width: 486
GlyphClass: 2
Flags: HW
LayerCount: 2
Fore
SplineSet
369 315 m 0
 369 394.930257946 314.31697388 454 220 454 c 0
 173.677728574 454 87.8802232428 429.287373602 72 379 c 1
 69.5 364 l 130
 63.0574436504 325.344661902 51.1371320113 325 45 325 c 0
 22.322318323 325 22 369.494628849 22 370 c 0
 22 481.104819378 114.443448273 553 225 553 c 0
 352.137217617 553 419 459.14411295 419 325 c 0
 419 173.122915788 322.535451934 143.458924199 145 140.5 c 128
 125 140.166666667 105 139.666666667 85 139 c 1
 85 101 l 1
 449 101 l 2
 471.677681677 101 472 56.5053711507 472 56 c 0
 472 50.9490113215 468.371369926 1 445 1 c 2
 58 1 l 2
 35.322318323 1 35 45.4946288493 35 46 c 2
 35 184 l 2
 35 184.612698947 36.798280425 235.849785053 62 239 c 257
 95 239 l 2
 122.8916147 239 131.1083853 240 159 240 c 0
 258.992633794 245.555146322 296.642553191 247.646808511 343 273.5 c 128
 360.333333333 283.166666667 369 297 369 315 c 0
EndSplineSet
EndChar

StartChar: three
Encoding: 51 51 7
Width: 679
GlyphClass: 2
Flags: HW
LayerCount: 2
Fore
SplineSet
537 390 m 0
 537 428.183393551 475.321425858 458 446 458 c 0
 385.004552372 458 335.527712176 384.627476012 325.5 338.5 c 128
 324.823997323 335.390387687 315.270526719 293.06763168 295 288 c 0
 294.333333333 288 292.666666667 288.333333333 290 289 c 2
 289 289 l 1
 282.333333333 291 277.666666667 297.333333333 275 308 c 0
 275 309.740994431 274 309.259005569 274 311 c 0
 269.690387018 328.238451926 260.337939092 357.840110741 241 393 c 1
 232.260958066 362.41335323 201.485871955 278 128 278 c 0
 60.8658308798 278 28 350.915083151 28 412 c 0
 28 478.357508928 63.8939661698 561 148 561 c 0
 182.067163922 561 253.046496308 545.48840886 302 428 c 1
 324.133850728 472.267701456 377.071350905 557 458 557 c 0
 501.464893637 557 588 520.207699475 588 408 c 0
 588 361.325113329 569.596597062 233.393213953 382 142 c 0
 344.729493027 123.364746514 337.939198892 118.972317672 327 96 c 1
 634 96 l 2
 654.855119087 96 655 56.1109708343 655 55 c 0
 655 31.3149084995 643.316162564 -4 624 -4 c 2
 279 -4 l 2
 258.144880913 -4 258 35.8890291655 258 37 c 0
 258 70.1231238179 289.859288871 197.381906165 361 229 c 128
 376.356303791 235.825023907 467.101668128 278.133620968 519.5 347 c 128
 531.166666667 362.333333333 537 376.666666667 537 390 c 0
138 377 m 0
 175.509992238 377 196 413.930584515 196 423 c 0
 196 443.666666667 161.978494624 455.007168459 150 459 c 0
 144.577777037 459 148.051852592 462 138 462 c 0
 130.125068041 462 94.6354456517 460.441460597 80 433 c 1
 80 432 l 2
 80 400.57251461 111.520984836 377 138 377 c 0
EndSplineSet
EndChar

StartChar: four
Encoding: 52 52 8
Width: 951
GlyphClass: 2
Flags: HW
LayerCount: 2
Fore
SplineSet
931 204 m 0
 931 80.5471597876 849.293650071 -2 723 -2 c 0
 618.901081278 -2 551.798211821 51.3164116405 498 169 c 1
 427.353939037 70.7098282256 359.51311764 -4 239 -4 c 0
 121.894752835 -4 25 72.5500484272 25 203 c 0
 25 266.251171065 49.8180817946 418 288 418 c 0
 334.099408055 418 342 407.770247517 342 371 c 0
 342 365.949011321 338.371369926 316 315 316 c 0
 295.829664838 316 292.170335162 318 273 318 c 0
 128.588158198 318 75 249.629139194 75 213 c 256
 75 162.929358664 137.599401357 96 243 96 c 0
 358.75 96 419.910367171 177.547156228 469 243 c 1
 458.333333333 272.333333333 448.166666667 301.166666667 438.5 329.5 c 128
 428.833333333 357.833333333 418.333333333 384.333333333 407 409 c 1
 393 435 l 130
 367.299793458 482.728955006 342 468.756429384 342 520 c 0
 342 533.905525896 348.878696834 575 369 575 c 0
 383.758811426 575 427.183975282 531.234305256 462.5 438 c 128
 464.655172414 432.310344828 464.655172414 432.310344828 511 301 c 1
 572.118005126 385.88611823 630.692537068 423 698 423 c 0
 838.168126993 423 931 332.621119814 931 204 c 0
881 194 m 0
 881 245.250032397 817.921766537 323 694 323 c 0
 667.257024676 323 616.146341463 323 542 228 c 1
 577.708554907 156.582890186 629.915345407 98 727 98 c 0
 823.168240273 98 881 149.43303856 881 194 c 0
EndSplineSet
EndChar

StartChar: five
Encoding: 53 53 9
Width: 606
GlyphClass: 2
Flags: HW
LayerCount: 2
Fore
SplineSet
356 297 m 1
 351.781107729 303.629687854 339.177353788 319 313 319 c 0
 275.600999512 319 266.176778266 297 251 297 c 256
 228.322318323 297 228 341.494628849 228 342 c 0
 228 375.503695246 237.838109793 392.096487293 269 407 c 0
 284.333333333 415 300.666666667 419 318 419 c 0
 377.772943119 419 410 358.387989045 410 301 c 0
 410 276.333333333 406.333333333 256 399 240 c 1
 419 218 429 188.666666667 429 152 c 0
 429 107.513966761 411.225616403 1 241 1 c 0
 185.564378025 1 28 19.9977007549 28 236 c 0
 28 385.261785642 119.207287963 570 300 570 c 0
 465.770568116 570 583 433.861615809 583 274 c 0
 583 195.116403854 567.624850554 89.431627978 500.5 4 c 128
 496.833333333 -0.666666666667 492.666666667 -3 488 -3 c 256
 465.322318323 -3 465 41.4946288493 465 42 c 0
 465 64.561181155 469.278930273 78.343298798 488.5 102 c 128
 515.219911919 134.886045439 532 203.775599263 532 263 c 0
 532 381.653954495 408.597341424 470 295 470 c 0
 176.445280518 470 78 367.386564866 78 246 c 0
 78 153.511080744 149.372947996 100 246 100 c 0
 258.204735978 100 347.555444351 101.468975174 377 144 c 1
 372.035985844 152.687024773 358.714285714 176 294 176 c 1
 220.333333333 159 226.431372549 159 226 159 c 0
 203.322318323 159 203 203.494628849 203 204 c 0
 203 254.623511897 227.094271623 262.114371918 270 271.5 c 128
 280.666666667 273.833333333 291.333333333 275.333333333 302 276 c 0
 314.94975395 279.45326772 340.769230769 286.338461538 356 297 c 1
EndSplineSet
EndChar

StartChar: six
Encoding: 54 54 10
Width: 859
GlyphClass: 2
Flags: HW
LayerCount: 2
Fore
SplineSet
785 333 m 0
 785 387.541371039 732.209462505 450 675 450 c 256
 660.447210698 450 594.198749718 442.59416535 566 311 c 128
 565.051999771 306.575998931 559.700623776 282.991060418 550 266.5 c 128
 546.666666667 260.833333333 541.333333333 258 534 258 c 2
 533 258 l 1
 518.211926472 262.225163865 515 284.675500385 515 285 c 0
 496.993653239 348.022213662 479.203389831 410.288135593 427 439 c 1
 428.606428784 426.14856973 429 417.596171892 429 409 c 0
 429 294.363808014 352.020869961 213 296 213 c 256
 258.761633962 213 193 263.207420635 193 356 c 0
 193 395.333333333 204 431.666666667 226 465 c 1
 171.492886958 458.587398466 86.0665636073 419.966331724 73 377.5 c 128
 68.4490305717 362.709349358 61.5230637232 351 51 351 c 0
 28.322318323 351 28 395.494628849 28 396 c 0
 28 505.719404668 172.651040231 567 258 567 c 0
 290.666666667 567 319.333333333 561 344 549 c 1
 352.758369788 551.189592447 363.581720686 553 376 553 c 0
 417.004757116 553 494.731738782 534.751131412 540 408 c 1
 553.252239817 444.811777268 598.270986536 550 680 550 c 0
 741.993639292 550 835 484.130654472 835 343 c 0
 835 107.643740746 602.150628569 -2 585 -2 c 0
 562.322318323 -2 562 42.4946288493 562 43 c 0
 562 58.2389770723 562 90.6428571429 598 103.5 c 128
 637.110285076 117.467958956 785 211.36988787 785 333 c 0
301 313 m 0
 335.07307912 313 379 364.524114877 379 396 c 0
 379 426.266541839 340.706198201 446.146900899 337 448 c 1
 271.801869716 429.744523521 243 375.224080582 243 367 c 0
 243 345.564070734 282.457678016 313 301 313 c 0
EndSplineSet
EndChar

StartChar: seven
Encoding: 55 55 11
Width: 379
GlyphClass: 2
Flags: HW
LayerCount: 2
Fore
SplineSet
63 409 m 1
 70.9577927114 377.168829154 127.42926952 361 156 361 c 0
 227.23702569 361 233.377171841 406 250 406 c 0
 272.677681677 406 273 361.505371151 273 361 c 0
 273 296.487200607 207.840566172 262 151 262 c 0
 67.7013805247 262 13 313.472962161 13 399 c 0
 13 496.429108595 79.9007902479 557 179 557 c 0
 298.692516436 557 364 471.484540281 364 366 c 0
 364 166.788385425 274.841116845 67.0082413651 238 28 c 0
 230.981235023 20.9812350234 228.175894858 14.540715886 210 0 c 128
 206.666666667 -2.66666666667 203.666666667 -4 201 -4 c 0
 178.322318323 -4 178 40.4946288493 178 41 c 0
 178 69.149929951 188.094845408 90.4441112552 213.5 112 c 128
 238.121416494 132.890898844 314 209.10954874 314 355 c 0
 314 427.5170253 226.417643689 457 175 457 c 0
 135.186006868 457 75.2936137941 440.963395865 63 409 c 1
EndSplineSet
EndChar

StartChar: eight
Encoding: 56 56 12
Width: 887
GlyphClass: 2
Flags: HW
LayerCount: 2
Fore
SplineSet
277 163 m 0
 276.808789283 164.529685739 256.690131995 261 158 261 c 0
 68.8722043938 261 79.9584407675 168 47 168 c 0
 26.3113210563 168 26 207.54822572 26 208 c 0
 26 239.531182375 62.6578922411 360 171 360 c 0
 265.406392161 360 329 267.99363676 329 181 c 0
 329 167.46279404 328.41106405 135.776454316 310 101 c 1
 477 101 l 1
 448.126608042 161.056655273 421 240.096590294 421 325 c 0
 421 435.584889186 465.978507262 553 657 553 c 0
 714.383087089 553 866 532.860643345 866 320 c 0
 866 280.858759799 858.572645832 145.024269165 762 33 c 0
 758.666666667 29.6666666667 753.833333333 24.5 747.5 17.5 c 128
 741.166666667 10.5 735.333333333 7 730 7 c 0
 709.311321056 7 709 46.5482257201 709 47 c 0
 709 67.1033248306 711.447190274 85.5385320223 738.5 111 c 128
 766.340999392 137.203293545 815 215.588006878 815 301 c 0
 815 427.371773289 707.54888503 453 644 453 c 0
 595.675032061 453 472 443.299675601 472 344 c 0
 472 256.449349464 531.915629877 131.469916388 563 96.5 c 128
 572.821969937 85.4502838205 575 75.4237237839 575 61 c 0
 575 36.1841492373 563.360430874 1 544 1 c 2
 63 1 l 2
 42.1324547696 1 38 23.3207199638 38 41 c 0
 38 51.873860552 45.3781152411 101 69 101 c 2
 90 101 l 1
 130.310330561 102.832287753 248.152978749 116.844765998 277 163 c 0
EndSplineSet
EndChar

StartChar: nine
Encoding: 57 57 13
Width: 506
GlyphClass: 2
Flags: HW
LayerCount: 2
Fore
SplineSet
349 102 m 0
 381.954377418 102 437 121.230633436 437 166 c 2
 437 362 l 2
 437 418.774976553 429.808731303 431.117703814 404 447 c 0
 390.666666667 455.666666667 375.333333333 460 358 460 c 0
 337.914418421 460 287.107551969 454.265450396 280.5 397 c 128
 275.8724049 356.894175801 275.553191489 354.127659574 258 339.5 c 128
 256 337.833333333 253.333333333 337 250 337 c 0
 235.967469551 337 234.650093681 342.979362967 229.5 378 c 128
 224.386978691 412.768544902 205.559469301 460 141 460 c 0
 116.147018108 460 69.8267134898 444.426011143 72.5 407 c 128
 73.531510255 392.558856431 62.104160127 351 42 351 c 256
 21.1448809131 351 21 390.889029166 21 392 c 0
 21 470.564332164 62.2480637733 560 154 560 c 0
 166.645408618 560 224.534070534 556.469497157 259 494 c 1
 271.1139457 513.516912517 306.523565025 560 369 560 c 0
 382.53340615 560 475.468255222 555.466256362 487 431.5 c 128
 488.333333333 417.166666667 489 402.666666667 489 388 c 2
 489 187 l 2
 489 88.3687898852 433.742219328 2 339 2 c 0
 236.703071034 2 186 90.9098134486 186 175 c 0
 186 185.565209467 193.647733109 234 217 234 c 256
 222.011437908 234 232.75 234 237 200 c 128
 239.739738012 178.082095902 245.890410959 128.876712329 312 108 c 128
 324.666666667 104 337 102 349 102 c 0
EndSplineSet
EndChar

StartChar: A
Encoding: 65 65 14
Width: 298
GlyphClass: 2
Flags: HW
LayerCount: 2
Fore
SplineSet
258 781 m 256
 278.772485548 781 279 741.45177428 279 741 c 0
 279 733.666666667 278.333333333 726.666666667 277 720 c 130
 273 700 l 1
 266.043941407 672.175765627 240.031366083 578 147 578 c 0
 73.2443126557 578 24 648.034738417 24 720 c 0
 24 730.873860552 31.3781152411 780 55 780 c 256
 69.6363822288 780 72.4738266208 765.972473723 75 744.5 c 128
 81.0213603662 693.318436887 132.908515245 677 162 677 c 0
 178.267118573 677 219.236953733 682.112483967 228 732.5 c 128
 232.90139621 760.68302821 237.122640356 767.01037632 246 775 c 0
 250 779 254 781 258 781 c 256
EndSplineSet
EndChar

StartChar: B
Encoding: 66 66 15
Width: 1066
GlyphClass: 2
Flags: HW
LayerCount: 2
Fore
SplineSet
827 553 m 0
 884.383087089 553 1036 532.860643345 1036 320 c 0
 1036 280.858759799 1028.57264583 145.024269165 932 33 c 0
 928.666666667 29.6666666667 923.833333333 24.5 917.5 17.5 c 128
 911.166666667 10.5 905.333333333 7 900 7 c 0
 879.311321056 7 879 46.5482257201 879 47 c 0
 879 67.1033248306 881.447190274 85.5385320223 908.5 111 c 128
 936.340999392 137.203293545 985 215.588006878 985 301 c 0
 985 427.371773289 877.54888503 453 814 453 c 0
 765.675032061 453 642 443.299675601 642 344 c 0
 642 257.511971965 702.370519524 130.958165536 733 96.5 c 128
 742.821969937 85.4502838205 745 75.4237237839 745 61 c 0
 745 39.2641310342 734.320950764 1 714 1 c 2
 344 1 l 2
 323.311321056 1 323 40.5482257201 323 41 c 0
 323 54.8585311052 324.15869254 72.4296541617 350 107.5 c 128
 385.289674635 155.393129861 426 257.238476156 426 325 c 0
 426 373.423160445 401.96866517 453 244 453 c 256
 201.475990111 453 83 442.048854598 83 320 c 0
 83 291.075832338 89.4971281004 199.705962697 165 114 c 0
 185.243766734 96.8706589171 189 87.2903319932 189 67 c 0
 189 45.2641310342 178.320950764 7 158 7 c 256
 149.517247808 7 144.311087025 13.2266955705 127 34 c 0
 94.944682842 71.5115413552 32 162.761108088 32 301 c 0
 32 445.424166152 102.647979101 553 258 553 c 0
 361.845745734 553 477 514.55074216 477 344 c 0
 477 297.595340987 468.241879723 209.455680918 415 101 c 1
 647 101 l 1
 618.126608042 161.056655273 591 240.096590294 591 325 c 0
 591 435.584889186 635.978507262 553 827 553 c 0
EndSplineSet
AlternateSubs2: "'salt' +BCEEQgQ4BDsEOARBBEIEOARHBDUEQQQ6BDgENQAA +BDAEOwRMBEIENQRABD0EMARCBDgEMgRL in Latin lookup 2 subtable" B.1
Substitution2: "'aalt' +BBIEQQQ1 +BDAEOwRMBEIENQRABD0EMARCBDgEMgQ9BEsENQAA +BDIEMARABDgEMAQ9BEIESwAA in Latin lookup 0 subtable" B.1
EndChar

StartChar: C
Encoding: 67 67 16
Width: 1109
GlyphClass: 2
Flags: HW
LayerCount: 2
Fore
SplineSet
553 11 m 0
 480.413018704 11 477 100.38642224 477 156 c 0
 477 295.123757904 477 323.512195122 442.5 374 c 128
 408.991584083 423.036706219 331.879531951 453 253 453 c 0
 224.356287397 453 93.2415651157 444.797562777 87 295 c 1
 96.6924664401 303.355574517 148.201636044 344 233 344 c 0
 290.333333333 344 332.5 327 359.5 293 c 128
 386.5 259 400 215 400 161 c 0
 400 84.4800377962 370.932040098 -3 238 -3 c 0
 86.9202985774 -3 35 145.872248579 35 264 c 0
 35 404.861476596 103.220877559 553 267 553 c 0
 317.849510976 553 497.947024218 538.423806256 523.5 334 c 128
 527.166666667 304.666666667 529 274.666666667 529 244 c 0
 529 243.149941179 528 159.850058821 528 159 c 0
 528 111 550.858796296 111 563 111 c 0
 572.70422154 111 590.094158998 111.39929703 588.5 138.5 c 128
 588.166666667 144.166666667 588 150 588 156 c 2
 588 241.5 l 130
 588 321.521044026 600.281133238 483.093711079 757.5 535.5 c 128
 792.5 547.166666667 827.666666667 553 863 553 c 0
 1013.5933775 553 1081 421.309694833 1081 284 c 0
 1081 152.724978653 1021.92463918 -3 869 -3 c 0
 759.856164891 -3 716 52.23006571 716 141 c 0
 716 241.866960124 762.107307047 344 892 344 c 0
 893.395600229 344 972.122567655 343.483880246 1026 305 c 1
 1015.17658343 375.352207704 964.620269726 453 853 453 c 0
 817.325636702 453 695.687299173 442.150139141 657 359.5 c 128
 649.971453685 344.484469236 638 315.922730798 638 244 c 2
 638 155 l 129
 635.850998815 99.12596919 624.498747212 11 553 11 c 0
767 160 m 0
 767 112.534085383 829.092569938 97 878 97 c 0
 920.398145005 97 989.596714592 110.683696136 1018 194 c 1
 1001.02515136 223.099740521 927.75081043 244 882 244 c 0
 832.95996049 244 767 227.552672341 767 160 c 0
349 141 m 2
 349 171.472487279 337.118957726 244 224 244 c 0
 222.705975271 244 137.11063327 240.399569943 100 207 c 1
 124 133.666666667 173.333333333 97 248 97 c 0
 285.477071502 97 325.899241202 104.765739247 349 133 c 1
 349 141 l 2
EndSplineSet
AlternateSubs2: "'salt' +BCEEQgQ4BDsEOARBBEIEOARHBDUEQQQ6BDgENQAA +BDAEOwRMBEIENQRABD0EMARCBDgEMgRL in Latin lookup 2 subtable" C.1
Substitution2: "'aalt' +BBIEQQQ1 +BDAEOwRMBEIENQRABD0EMARCBDgEMgQ9BEsENQAA +BDIEMARABDgEMAQ9BEIESwAA in Latin lookup 0 subtable" C.1
EndChar

StartChar: D
Encoding: 68 68 17
Width: 773
GlyphClass: 2
Flags: HW
LayerCount: 2
Fore
SplineSet
562 101 m 0
 656.886858115 101 702 225.228468738 702 298 c 0
 702 344 690.666666667 387.666666667 668 429 c 1
 648 461 l 258
 641.19933673 471.881061231 639 480.14656147 639 493 c 0
 639 501.189448568 645.78713141 553 670 553 c 0
 679.02010009 553 683.082655678 547.355352564 697 523 c 0
 721.800276683 481.95126618 753 415.735911847 753 317 c 0
 753 161.166380274 667.542354835 1 552 1 c 0
 523.456664548 1 426.884615385 1 385 122 c 1
 372.333333333 87.3333333333 352.666666667 58.5 326 35.5 c 128
 299.333333333 12.5 262.333333333 1 215 1 c 0
 108.73225928 1 24 139.971234006 24 298 c 0
 24 432.114119295 78.8917177359 511.416739623 101 543 c 128
 105.666666667 549.666666667 111 553 117 553 c 0
 137.772485548 553 138 513.45177428 138 513 c 0
 138 495 134.833333333 481.5 128.5 472.5 c 128
 106.826368177 441.700628462 75 395.554978708 75 317 c 0
 75 237.109657705 124.484887786 101 225 101 c 0
 343.38054408 101 362 177.747852624 362 279 c 2
 362 447 l 2
 362 473.596537639 368.865337647 523 393 523 c 0
 411.23407887 523 415 489.05500744 415 461 c 2
 414 360 l 1
 414 304 l 1
 417.073972154 184.11508599 439.932226607 101 562 101 c 0
EndSplineSet
AlternateSubs2: "'salt' +BCEEQgQ4BDsEOARBBEIEOARHBDUEQQQ6BDgENQAA +BDAEOwRMBEIENQRABD0EMARCBDgEMgRL in Latin lookup 2 subtable" D.1
Substitution2: "'aalt' +BBIEQQQ1 +BDAEOwRMBEIENQRABD0EMARCBDgEMgQ9BEsENQAA +BDIEMARABDgEMAQ9BEIESwAA in Latin lookup 0 subtable" D.1
EndChar

StartChar: E
Encoding: 69 69 18
Width: 315
GlyphClass: 2
Flags: HW
LayerCount: 2
Fore
SplineSet
68 -4 m 0
 47.3113210563 -4 47 35.5482257201 47 36 c 0
 47 81.5384615385 66.4742867868 92.0246159621 98 109 c 128
 138.719078475 130.92565764 220.130071297 197.877981256 236 305 c 1
 218.821551227 278.158673791 189.416340732 248 144 248 c 0
 99.7931649138 248 20 292.142617434 20 402 c 0
 20 481.495478684 61.3828214801 559 152 559 c 0
 258.835209282 559 290 434.722807489 290 356 c 0
 290 322.081178751 282.501794892 124.563621807 112 18 c 128
 93.1491424678 6.21821404239 74.8327985796 -4 68 -4 c 0
153 348 m 0
 184.119335899 348 220 375.576415343 220 405 c 0
 220 418.524609771 195.659221973 459 139 459 c 0
 124.607211261 459 71 448.701055068 71 421 c 0
 71 385.60846006 115.912634925 348 153 348 c 0
EndSplineSet
AlternateSubs2: "'salt' +BCEEQgQ4BDsEOARBBEIEOARHBDUEQQQ6BDgENQAA +BDAEOwRMBEIENQRABD0EMARCBDgEMgRL in Latin lookup 2 subtable" E.1
Substitution2: "'aalt' +BBIEQQQ1 +BDAEOwRMBEIENQRABD0EMARCBDgEMgQ9BEsENQAA +BDIEMARABDgEMAQ9BEIESwAA in Latin lookup 0 subtable" E.1
EndChar

StartChar: F
Encoding: 70 70 19
Width: 492
GlyphClass: 2
Flags: HW
LayerCount: 2
Fore
SplineSet
60 155 m 0
 89.2512746432 155 40.0930740158 97 222 97 c 0
 223.192057046 97 322.43846935 97.8128231165 341 104 c 0
 360.274205902 110.424735301 397.305424466 134.596107963 408 225.5 c 128
 410 242.5 411 257.333333333 411 270 c 0
 411 290.666666667 409 312.333333333 405 335 c 1
 391.391486762 312.080398757 354.376923515 260 299 260 c 0
 252.097387387 260 192 318.058145589 192 408 c 0
 192 479.517573005 227.65658841 559 315 559 c 0
 401.90166079 559 462 448.058115225 462 290 c 0
 462 285.918440381 461.450534784 18.4514896897 317.5 2 c 128
 316.460570294 1.88121075248 271.445067048 -3 213 -3 c 0
 147.352560743 -3 29 0.229137314804 29 95 c 0
 29 103.189448568 35.7871314102 155 60 155 c 0
244 428 m 0
 244 399.327228338 280.481784464 359 309 359 c 0
 344.768519887 359 370.563892645 395.053288633 377 405 c 0
 376.333333333 407 376 409 376 411 c 128
 376 417.451685228 354.657384578 459 303 459 c 0
 292.434790533 459 244 451.352266891 244 428 c 0
EndSplineSet
EndChar

StartChar: G
Encoding: 71 71 20
Width: 1053
GlyphClass: 2
Flags: HW
LayerCount: 2
Fore
SplineSet
235 455 m 0
 156.36008596 455 82 395.20638905 82 306 c 0
 82 223.471740904 133.921023374 144.627840447 177.5 113.5 c 128
 198.829283148 98.2647977512 207 88.7393385562 207 63 c 0
 207 41.2641310342 196.320950764 3 176 3 c 0
 158.702358093 3 31 105.243524262 31 288 c 0
 31 437.375480582 126.548211418 554 244 554 c 0
 326.722415656 554 339 474.050837922 339 395 c 0
 339 341.139307405 336 326.471803706 336 274 c 256
 336 203.826572604 336 128.714285714 471 103 c 128
 485 100.333333333 499 99 513 99 c 0
 534.333333333 99 553.333333333 102 570 108 c 1
 545.709540769 144.435688847 507 219.624677582 507 329 c 0
 507 390.852182243 530.205671494 553 633 553 c 0
 736.143590804 553 751 390.938778016 751 338 c 0
 751 299.233601301 745.222923418 203.315385203 694 115 c 1
 722.767729027 102.054521938 752.719864526 96 785 96 c 0
 790.598026608 96 905.974338772 96.8066750331 949 163 c 128
 966.333333333 189.666666667 975 225 975 269 c 0
 975 304.139464729 968.791474763 394.359590892 910 460.5 c 128
 900.646498407 471.022689292 899 478.815023595 899 494 c 0
 899 502.189448568 905.78713141 554 930 554 c 0
 951.303355268 554 1026 449.766529914 1026 288 c 0
 1026 169.118402926 988.451223345 -3 771 -3 c 0
 747.512988459 -3 689.506420805 -1.38418130006 631 43 c 1
 600.133145003 19.2562653871 558.12230782 0 503 0 c 0
 481.105382052 0 384.967150447 6.83722949375 338.5 59.5 c 128
 298.10227786 105.284085092 285 161.759128751 285 255 c 0
 285 307.296892438 288 322.703107562 288 375 c 0
 288 422.630528451 284.761910087 455 235 455 c 0
623 453 m 0
 567.919910909 453 559 386.461301973 559 349 c 0
 559 310.172713463 567.356335602 218.055690214 640 151 c 1
 661.640226084 174.082907823 700 227.849936471 700 319 c 0
 700 358.360619846 687.289100545 453 623 453 c 0
EndSplineSet
AlternateSubs2: "'salt' +BCEEQgQ4BDsEOARBBEIEOARHBDUEQQQ6BDgENQAA +BDAEOwRMBEIENQRABD0EMARCBDgEMgRL in Latin lookup 2 subtable" G.1
Substitution2: "'aalt' +BBIEQQQ1 +BDAEOwRMBEIENQRABD0EMARCBDgEMgQ9BEsENQAA +BDIEMARABDgEMAQ9BEIESwAA in Latin lookup 0 subtable" G.1
EndChar

StartChar: H
Encoding: 72 72 21
Width: 270
GlyphClass: 2
Flags: HW
LayerCount: 2
Fore
SplineSet
127 11 m 0
 70.4206061247 11 30 65.493827027 30 126 c 0
 30 201.536250393 68.8254908623 268 143 268 c 0
 209.121163261 268 241 201.64313204 241 150 c 0
 241 87.0206206535 204.088892491 11 127 11 c 0
127 291 m 0
 70.4206061247 291 30 345.493827027 30 406 c 0
 30 481.536250393 68.8254908623 548 143 548 c 0
 209.121163261 548 241 481.64313204 241 430 c 0
 241 367.020620654 204.088892491 291 127 291 c 0
188 133 m 1
 177.885731501 161.657094082 143.300637204 168 130 168 c 0
 121.793115742 168 96.729848607 166.253541835 82 146 c 1
 92.1142684994 117.342905918 126.699362796 111 140 111 c 0
 145.019631259 111 177.257615876 113.305629106 188 133 c 1
188 413 m 1
 177.885731501 441.657094082 143.300637204 448 130 448 c 0
 121.793115742 448 96.729848607 446.253541835 82 426 c 1
 92.1142684994 397.342905918 126.699362796 391 140 391 c 0
 145.019631259 391 177.257615876 393.305629106 188 413 c 1
EndSplineSet
AlternateSubs2: "'salt' +BCEEQgQ4BDsEOARBBEIEOARHBDUEQQQ6BDgENQAA +BDAEOwRMBEIENQRABD0EMARCBDgEMgRL in Latin lookup 2 subtable" H.1
Substitution2: "'aalt' +BBIEQQQ1 +BDAEOwRMBEIENQRABD0EMARCBDgEMgQ9BEsENQAA +BDIEMARABDgEMAQ9BEIESwAA in Latin lookup 0 subtable" H.1
EndChar

StartChar: I
Encoding: 73 73 22
Width: 103
GlyphClass: 2
Flags: HW
LayerCount: 2
Fore
SplineSet
26 606 m 2
 26 704.520002903 -92.7365266551 783 -256 783 c 0
 -266.92697988 783 -291.925466199 782.380189547 -326 777 c 1
 -324.994780136 771.973900681 -321 750.876637659 -321 732 c 0
 -321 629.129228828 -383.296279351 563 -437 563 c 0
 -494.835189679 563 -519 620.66354617 -519 686 c 0
 -519 841.970012877 -354.610298797 882 -247 882 c 0
 -88.3297108484 882 78 812.192532317 78 626 c 2
 78 413 l 2
 78 412.333516692 74.0388803918 354 47 354 c 2
 43 354 l 1
 42 355 l 1
 41 355 l 2
 40.3333333333 355.666666667 39.8333333333 356 39.5 356 c 128
 39 356 38.5555555556 356.444444444 37 358 c 1
 36 358 l 1
 36 358.666666667 35.6666666667 359.333333333 35 360 c 2
 35 361 l 1
 27.1922993348 368.807700665 26 388.774457735 26 393 c 130
 26 606 l 2
-428 663 m 0
 -404.325298028 663 -372 681.937088522 -372 713 c 0
 -372 722.308109634 -372.440561818 731.857348364 -385 762 c 1
 -398.632673648 757.280997583 -444.939393939 741.251748252 -468 704 c 1
 -467.364286088 692.557149589 -462.39340339 663 -428 663 c 0
EndSplineSet
EndChar

StartChar: J
Encoding: 74 74 23
Width: 1284
GlyphClass: 2
Flags: HW
LayerCount: 2
Fore
SplineSet
516 256 m 0
 516 367.044463674 433.22336019 460 324 460 c 0
 241.642178376 460 141.564753104 431.442456828 100 340 c 0
 93.0331890332 326.066378066 78 296 78 219 c 0
 78 142.196036893 95 73.3758585319 95 61 c 0
 95 39.2641310342 84.3209507635 1 64 1 c 0
 51.227246209 1 43.3136637189 21.8633628112 41 45 c 128
 39.5852542072 59.1474579276 35.5953013483 79.0469865169 30.5 130 c 128
 28.1666666667 153.333333333 27 176.666666667 27 200 c 0
 27 301.172456755 54.3371828273 559 333 559 c 0
 488.464189478 559 567 411.047365705 567 275 c 0
 567 230.328597223 559.720924728 164.86820788 525 107 c 1
 544.333333333 100.333333333 569.666666667 97 601 97 c 0
 724.050702062 97 751 186.723003761 751 319 c 0
 751 383.497161836 746 401.502838164 746 466 c 0
 746 480.399786555 751.981539352 533 777 533 c 256
 791.309593042 533 801 511.429708829 801 453 c 2
 801 361 l 2
 801 263.059933709 811.590785084 177.165002383 904 127 c 0
 937.333333333 109.666666667 973 101 1011 101 c 0
 1036.31447602 101 1145.66726054 107.213524905 1190 212 c 1
 1161.16787411 202.989960661 1125.43054307 202 1120 202 c 0
 1012.42752995 202 946 294.009139626 946 391 c 0
 946 473.604582059 987.87966887 547 1073 547 c 0
 1143.52201618 547 1254 474.907098583 1254 300 c 0
 1254 156.359654053 1172.06922485 2 999 2 c 0
 952.695649996 2 834.037303809 15.6698633514 778 149 c 1
 729.269904223 2.8097126681 632.872138956 -3 586 -3 c 0
 564.864498645 -3 504.555555556 -3 459 38 c 1
 424.326482359 15.80894871 383.491773241 5 336 5 c 0
 302.991467729 5 171 14.8857687715 171 173 c 0
 171 248.778342406 212.20024243 345 304 345 c 256
 389.3012931 345 417.952515899 294.147728315 445 210 c 0
 456.532626786 178.697155868 465.32545101 161.011823486 474 148 c 1
 514.921070345 188.921070345 516 237.595105422 516 256 c 0
997 411 m 0
 997 369.896354489 1044.4147475 301 1132 301 c 0
 1142.67251117 301 1159.44044398 301.070718818 1200 313 c 1
 1189.33149992 379.678125525 1133.19574926 447 1061 447 c 0
 1041.1887789 447 997 436.323358112 997 411 c 0
222 191 m 0
 222 149.939093582 266.817613332 104 349 104 c 0
 373.666666667 104 395 107.333333333 413 114 c 1
 407 130 401.333333333 145.833333333 396 161.5 c 128
 370.503595292 236.395688829 325.159558186 245 290 245 c 0
 262.251083268 245 222 224.115452995 222 191 c 0
EndSplineSet
EndChar

StartChar: K
Encoding: 75 75 24
Width: 808
GlyphClass: 2
Flags: HW
LayerCount: 2
Fore
SplineSet
523 230 m 0
 523 360.619484243 440.433858948 452 303 452 c 0
 259.184943324 452 166.049317093 442.504720891 105.5 368.5 c 128
 90.5 350.166666667 80.3333333333 328.333333333 75 303 c 1
 86.9518814159 312.066944522 136.832966504 346 214 346 c 0
 271.333333333 346 313.5 329 340.5 295 c 128
 367.5 261 381 217 381 163 c 0
 381 86.4800377962 351.932040098 -1 219 -1 c 0
 77.7888856444 -1 20 128.509069692 20 245 c 0
 20 418.708374251 127.95231006 552 313 552 c 0
 492.731781672 552 574 413.404969113 574 249 c 0
 574 212.170773599 569.681532488 151.678140305 546 98 c 1
 727 98 l 1
 727 345 l 2
 727 345.890056178 726 416.443277155 726 434 c 128
 726 509.615384615 729.223069967 515.813596091 740.5 537.5 c 128
 744.833333333 545.833333333 750.666666667 550 758 550 c 0
 778.772485548 550 779 510.45177428 779 510 c 2
 779 58 l 2
 779 36.2641310342 768.320950764 -2 748 -2 c 2
 443 -2 l 2
 422.311321056 -2 422 37.5482257201 422 38 c 0
 422 44.4741874922 423.160770779 96.6277515984 460.5 99.5 c 128
 501.588069345 102.660620719 523 176.571200565 523 230 c 0
330 143 m 2
 330 173.472487279 318.118957726 246 205 246 c 0
 171.721807815 246 105.62676986 231.064092874 80 208 c 1
 89.8888964773 176.58821119 120.561210803 99 229 99 c 0
 266.477071502 99 306.899241202 106.765739247 330 135 c 1
 330 143 l 2
EndSplineSet
EndChar

StartChar: L
Encoding: 76 76 25
Width: 629
GlyphClass: 2
Flags: HW
LayerCount: 2
Fore
SplineSet
283 301 m 0
 262.311321056 301 262 340.54822572 262 341 c 0
 262 361.91330791 263.943931132 397.571652319 314 408 c 0
 326.065829262 412.387574277 340.850223491 419.368945554 353 430 c 1
 333.371413001 458.04083857 272.398564451 472.662589722 235 475 c 1
 232.153553394 395.299495025 189.907415978 273 103 273 c 0
 41.0258918706 273 9 335.678921484 9 391 c 0
 9 438.100596063 31.9961650624 576 220 576 c 0
 275.144289519 576 409 560.557802107 409 444 c 0
 409 425.333333333 406.666666667 409.333333333 402 396 c 1
 417.319099787 387.246228693 461 356.217061155 461 287 c 0
 461 249.034802389 447.348594673 164.199033447 327 154 c 1
 303 154 l 130
 276.801516584 154 236.164648865 151.263438185 226 135 c 1
 226 129 l 2
 226 97.0396654136 302.986792694 96 313 96 c 0
 346.293786997 96 354.317324114 98 389 98 c 2
 594 98 l 2
 614.772485548 98 615 58.4517742799 615 58 c 0
 615 33.1841492373 603.360430874 -2 584 -2 c 2
 374 -2 l 2
 342.624510454 -2 334.375489546 -3 303 -3 c 0
 185.938034375 -3 174 54.9076090472 174 109 c 0
 174 134.204521764 178.758210976 219.700393517 242 243 c 0
 253.333333333 247 266.666666667 249.5 282 250.5 c 130
 328 253.5 l 130
 346.388256088 254.699234093 384.625730994 257.192982456 405 276 c 1
 386.658998776 304.34518371 349.096220656 311 332 311 c 0
 303.638176837 311 292.722934274 301 283 301 c 0
60 410 m 1
 65.9848585022 386.060565991 94.5163990679 373 113 373 c 0
 137.965935615 373 179.420345135 386.725522159 185 476 c 1
 146.615195687 473.867510872 76.1286552793 455.697856625 60 410 c 1
EndSplineSet
EndChar

StartChar: M
Encoding: 77 77 26
Width: 390
GlyphClass: 2
Flags: HW
LayerCount: 2
Fore
SplineSet
187 2 m 0
 87.5324063709 2 29 95.030661317 29 179 c 0
 29 280.294301256 94.8152642728 378 203 378 c 0
 294.775731765 378 361 296.837836386 361 201 c 0
 361 99.7056987441 295.184735727 2 187 2 c 0
190 278 m 0
 122.465313686 278 81 229.069905901 81 201 c 0
 81 142.282390516 149.960268765 102 200 102 c 0
 266.750460051 102 309 150.777064504 309 181 c 0
 309 238.404114689 243.672420647 278 190 278 c 0
EndSplineSet
EndChar

StartChar: N
Encoding: 78 78 27
Width: 1180
GlyphClass: 2
Flags: HW
LayerCount: 2
Fore
SplineSet
474 2 m 0
 453.144880913 2 453 41.8890291655 453 43 c 2
 453 379 l 1
 437.804586998 427.118807841 366.819792472 449 319 449 c 0
 230.546354536 449 75 395.068514114 75 272 c 0
 75 269.944517382 75.0961955644 259.519022178 77 250 c 1
 99.2439242023 294.487848405 148.513989187 363 241 363 c 0
 328.388284852 363 390 291.070286588 390 209 c 0
 390 112.005278429 319.539066817 1 215 1 c 0
 87.1215656395 1 24 144.169834833 24 252 c 0
 24 433.183009364 163.918702879 549 329 549 c 0
 361.164039323 549 441.080685807 541.670902709 484 473 c 1
 504.195836216 501.423769489 549.247089546 543 640 543 c 0
 667.944949929 543 746.47970345 537.010457181 788 473 c 1
 808.195836216 501.423769489 853.247089546 543 944 543 c 0
 1108.50094358 543 1162 380.849905935 1162 263 c 0
 1162 226.659093731 1162 102.933333333 1072.5 1.5 c 128
 1067.5 -4.16666666667 1062.33333333 -7 1057 -7 c 0
 1036.14488091 -7 1036 32.8890291658 1036 34 c 0
 1036 59.0667046307 1040.7060222 70.8278809305 1060 91.5 c 128
 1080.68369656 113.661103461 1111 160.251181307 1111 243 c 0
 1111 358.658252545 1043.01202791 443 931 443 c 0
 864.118819589 443 817.241881663 413.72564499 810 392 c 1
 810 84 l 2
 810 77.5232679799 809.328283488 2 778 2 c 0
 757.144880913 2 757 41.8890291657 757 43 c 2
 757 379 l 1
 742.304873957 423.085378129 681.958638587 443 627 443 c 0
 560.118819589 443 513.241881663 413.72564499 506 392 c 1
 506 84 l 2
 506 77.5232679799 505.328283488 2 474 2 c 0
339 188 m 256
 339 215.130016857 292.022115819 263 230 263 c 0
 228.463120044 263 132.757451035 261.272353104 104 175 c 1
 119.929979117 149.512033413 158.870517173 100 221 100 c 0
 299.820610029 100 339 165.857463288 339 188 c 256
EndSplineSet
EndChar

StartChar: O
Encoding: 79 79 28
Width: 319
GlyphClass: 2
Flags: HW
LayerCount: 2
Fore
SplineSet
145 300 m 0
 196.146832572 300 232.679378666 251.980932 244 235 c 1
 244 297.187289477 230.958164497 383.873665379 166.5 432.5 c 128
 147.5 446.833333333 123.666666667 454 95 454 c 0
 88.5833333333 454 69 454 69 494 c 0
 69 529.651648082 84.6574671959 554 105 554 c 0
 243.256708324 554 295 389.393249928 295 265 c 0
 295 170.535382187 259.769071484 1 137 1 c 0
 59.3889560406 1 29 70.8333027887 29 132 c 0
 29 233.56805947 97.1771215235 300 145 300 c 0
81 151 m 0
 81 112.168046296 127.85115625 101 150 101 c 0
 177.947255403 101 198.26862411 113.25097614 213 132 c 0
 213 135.488765327 214 137.511234673 214 141 c 0
 213.5599091 141.880181799 182.899111691 201 136 201 c 0
 113.443543562 201 81 172.571618942 81 151 c 0
EndSplineSet
EndChar

StartChar: P
Encoding: 80 80 29
Width: 1040
GlyphClass: 2
Flags: HW
LayerCount: 2
Fore
SplineSet
786 101 m 2
 958 101 958 204.79877261 958 268 c 2
 958 280 l 1
 942.405818176 260.103974914 887.402399812 200 792 200 c 0
 683.680361464 200 637 285.665513544 637 395 c 0
 637 500.992803169 708.394868098 556 803 556 c 0
 955.516327684 556 1002 443.437204986 1002 410 c 1
 1008.0866466 373.480120393 1010 334.724932411 1010 287 c 0
 1010 85.8181043995 926.519096911 1 776 1 c 2
 298 1 l 2
 277.144880913 1 277 40.8890291655 277 42 c 0
 277 61.5455762223 280.848786449 77.1099515098 299.5 101.5 c 128
 335.514923815 148.596438835 368 238.713687433 368 293 c 0
 368 326.545812391 352.18380039 403 208 403 c 256
 175.553671248 403 70 395.150091885 70 293 c 0
 70 291.062940373 72.5928154623 178.407184538 139 112 c 128
 159.397806132 91.6021938681 165 81.9704392688 165 60 c 0
 165 36.3149084995 153.316162564 1 134 1 c 256
 128.666666667 1 123.5 4 118.5 10 c 128
 83.3114313065 52.2262824322 63.1390374332 76.4331550802 41 139 c 128
 25.6666666667 182.333333333 18 225.666666667 18 269 c 0
 18 338.062698275 37.3311117459 503 222 503 c 0
 315.204012276 503 419 468.16691828 419 313 c 0
 419 260.871351302 408.106908778 188.575588266 367 101 c 1
 786 101 l 2
689 414 m 0
 689 377.994590332 700.457050833 299 801 299 c 0
 806.208694806 299 890.927903472 299.992917572 940 364 c 0
 943.98978119 369.984671785 945.93379122 370.867582439 949 377 c 1
 921.70616308 440.68561948 831.322309694 457 793 457 c 0
 722.697902289 457 689 421.315673757 689 414 c 0
EndSplineSet
EndChar

StartChar: Q
Encoding: 81 81 30
Width: 567
GlyphClass: 2
Flags: HW
LayerCount: 2
Fore
SplineSet
283 223 m 0
 250.705720663 223 226 247.707865078 226 280 c 0
 226 310.250751936 249.97526061 336 283 336 c 0
 313.981872138 336 339 310.981095056 339 280 c 0
 339 246.973750323 313.249227184 223 283 223 c 0
291 554 m 0
 444.760630417 554 537 418.172790888 537 285 c 0
 537 141.884802972 436.852249391 -1 275 -1 c 0
 120.052178109 -1 30 138.09579655 30 267 c 0
 30 418.998511501 134.820721244 554 291 554 c 0
278 454 m 0
 184.440313369 454 82 384.588685891 82 287 c 0
 82 178.754788687 188.511476844 99 288 99 c 0
 379.246281114 99 485 166.458630214 485 266 c 0
 485 374.782433379 377.977481218 454 278 454 c 0
EndSplineSet
EndChar

StartChar: R
Encoding: 82 82 31
Width: 576
GlyphClass: 2
Flags: HW
LayerCount: 2
Fore
SplineSet
343 -211 m 1
 455.579564641 -112.492880939 505 72.0250204903 505 188 c 0
 505 276.024882442 486 283.986813464 486 319 c 0
 486 329.565209467 493.647733109 378 517 378 c 0
 551.931210492 378 556 219.809877375 556 206 c 0
 556 -5.46765506093 432.324401827 -372 171 -372 c 0
 101.57114741 -372 21 -348.603280148 21 -240 c 0
 21 -158.267274203 77.5516385348 -65 170 -65 c 256
 256.904194468 -65 294.981562211 -109.114133992 333 -191 c 0
 337 -197.666666667 340.333333333 -204.333333333 343 -211 c 1
72 -222 m 0
 72 -239.803856797 103.987547197 -273 183 -273 c 0
 220.333333333 -273 254.333333333 -265 285 -249 c 1
 270.009968391 -219.019936782 242.043302867 -165 156 -165 c 0
 101.555932099 -165 72 -209.905728623 72 -222 c 0
EndSplineSet
EndChar

StartChar: S
Encoding: 83 83 32
Width: 851
GlyphClass: 2
Flags: HW
LayerCount: 2
Fore
SplineSet
30 280 m 256
 30 413.518475506 101.006225907 551 247 551 c 0
 268.433044534 551 269 506.500899191 269 506 c 0
 269 471.192847324 251.59942686 447.56676219 234 450.5 c 128
 211.647522916 454.225412847 81 430.016787484 81 289 c 0
 81 191.074163718 150.595929019 100 253 100 c 0
 326.616245699 100 353.285612489 168.582045632 382 273.5 c 128
 416.935304763 401.14822894 437.725048294 477.110753381 497.5 525.5 c 128
 518.5 542.5 544.666666667 551 576 551 c 0
 628.666666667 551 672.333333333 537.5 707 510.5 c 128
 741.666666667 483.5 767.666666667 449.333333333 785 408 c 0
 785 403.288187196 811 355.925488018 811 271 c 0
 811 159.823609434 757.219149713 0 622 0 c 0
 533.956772753 0 505 118.776479257 505 184 c 0
 505 248.384845317 524.592643014 383.350300376 684 416 c 1
 664.230717993 430.612078005 626.675357054 451 571 451 c 0
 498.290803897 451 468.396803563 393.248012536 435.5 277.5 c 128
 392.224774301 125.235316986 376.900069396 71.3150589868 323 25.5 c 128
 303 8.5 278 0 248 0 c 0
 97.0535178456 0 30 152.577639139 30 280 c 256
628 100 m 0
 722.020066715 100 760 192.593332722 760 261 c 0
 760 283 757 303.333333333 751 322 c 1
 668.937551661 322 598.237603291 300.363326418 566 237.5 c 128
 559.333333333 224.5 556 210 556 194 c 0
 556 156.357154622 578.38859119 100 628 100 c 0
EndSplineSet
EndChar

StartChar: T
Encoding: 84 84 33
Width: 744
GlyphClass: 2
Flags: HW
LayerCount: 2
Fore
SplineSet
51 1 m 2
 30.1448809132 1 30 40.8890291655 30 42 c 2
 30 491 l 2
 30 501.565209467 37.6477331087 550 61 550 c 256
 77.7696041351 550 82 525.112374195 82 500 c 2
 82 101 l 1
 490 101 l 2
 662 101 662 204.302971576 662 268 c 2
 662 280 l 1
 646.405818176 260.103974914 591.402399812 200 496 200 c 0
 387.680361464 200 341 285.665513544 341 395 c 0
 341 500.992803169 412.394868098 556 507 556 c 0
 659.516327684 556 706 443.437204986 706 410 c 1
 712.086646601 373.480120393 714 334.724932411 714 287 c 0
 714 85.8181043995 630.519096911 1 480 1 c 2
 51 1 l 2
393 414 m 0
 393 377.994590332 404.457050833 299 505 299 c 0
 510.208694806 299 594.927903472 299.992917572 644 364 c 0
 647.98978119 369.984671785 649.93379122 370.867582439 653 377 c 1
 625.70616308 440.68561948 535.322309694 457 497 457 c 0
 429.39922552 457 393 422.461585575 393 414 c 0
EndSplineSet
EndChar

StartChar: U
Encoding: 85 85 34
Width: 444
GlyphClass: 2
Flags: HW
LayerCount: 2
Fore
SplineSet
429 -179 m 0
 429 -296.865081086 350.654454227 -421 216 -421 c 0
 83.8284167582 -421 9 -302.791249182 9 -189 c 0
 9 -57.925172196 100.699440605 50 220 50 c 0
 350.688925839 50 429 -63.6303712362 429 -179 c 0
75 -127 m 128
 75 -128.697894088 59 -148.333355912 59 -178 c 0
 59 -262.922993732 148.317587502 -321 220 -321 c 0
 294.918193485 -321 379 -264.43613707 379 -189 c 0
 379 -170.684519292 373.840565069 -138.705600386 344 -107 c 1
 341.510632531 -179.191656588 297.915001083 -264 208 -264 c 0
 127.707919799 -264 81.3303302476 -196.959458342 76 -125 c 1
 75.3333333333 -125.666666667 75 -126.333333333 75 -127 c 128
213 -50 m 1
 150.5457398 -50 126 -90.1355090385 126 -101 c 0
 126 -104.333333333 126.833333333 -107.666666667 128.5 -111 c 130
 133 -120 l 1
 151.776666953 -152.859167167 187.69781494 -164 212 -164 c 0
 269.412042861 -164 294 -120.881157064 294 -111 c 0
 294 -101.749011049 275.792415062 -55.4602100054 213 -50 c 1
EndSplineSet
EndChar

StartChar: W
Encoding: 87 87 36
Width: 1088
GlyphClass: 2
Flags: HW
LayerCount: 2
Fore
SplineSet
173 463 m 0
 88.2825383888 463 82 352.716564312 82 320 c 0
 82 281.914674098 88.4709141024 189.681277527 146 122 c 0
 151.333333333 115.333333333 157 109.666666667 163 105 c 128
 184.494347357 88.2821742782 194 80.7694808286 194 52 c 0
 194 28.3149084995 182.316162564 -7 163 -7 c 0
 143.976461586 -7 30 92.0446381769 30 301 c 0
 30 388.631943658 61.9459140647 562 185 562 c 0
 216.288447599 562 306.088540185 549.937517782 317.5 413 c 128
 319.166666667 393 320 373.666666667 320 355 c 256
 320 306.192084258 317 292.807915742 317 244 c 0
 317 200.18452381 317 105 429 105 c 0
 564.523151916 105 574 346.481626998 574 414 c 2
 574 469 l 2
 574 498.431881021 581.191456181 547 606 547 c 0
 626.855119087 547 627 507.110970834 627 506 c 2
 627 480 l 130
 627 470.666666667 626.666666667 460.333333333 626 449 c 0
 628.519820751 310.409858684 642.938746147 103 827 103 c 0
 951.673119452 103 982.658222915 185.393054929 994 223 c 1
 970 215 945.333333333 211 920 211 c 0
 819.220890253 211 770 298.759159989 770 388 c 0
 770 463.461964458 810.28461402 561 898 561 c 0
 1032.05664426 561 1058 399.952220503 1058 318 c 0
 1058 257.564364339 1046.09258331 151.935645453 973.5 69.5 c 128
 958.491828943 52.4568226978 915.820895522 4 814 4 c 0
 705.740513882 4 635.492573455 68.8465377171 598 212 c 1
 575.33020142 116.786845962 525.792071816 6 418 6 c 0
 349.234621888 6 266 35.5629480981 266 225 c 0
 266 273.807799493 268 287.192200507 268 336 c 0
 268 385.249558687 265.234377015 432.006943549 218 453 c 0
 204.666666667 459.666666667 189.666666667 463 173 463 c 0
821 407 m 0
 821 348.790987355 877.291202257 310 930 310 c 256
 939.667364301 310 966.726126182 310.115715737 1005 325 c 1
 1002.63226212 355.780592458 987.270182103 462 888 462 c 0
 856.659123447 462 821 442.638475835 821 407 c 0
EndSplineSet
EndChar

StartChar: Y
Encoding: 89 89 38
Width: 508
GlyphClass: 2
Flags: HW
LayerCount: 2
Fore
SplineSet
489 410 m 0
 489 286.210313044 425.7159174 144 289 144 c 2
 285 144 l 1
 285 86 l 1
 285 35 l 129
 282.519663197 2.75562155817 266.890168004 -19 254 -19 c 0
 233.144880913 -19 233 20.8890291655 233 22 c 2
 233 186 l 2
 233 196.565209467 240.647733109 245 264 245 c 0
 276.197414006 245 277.802585994 243 290 243 c 0
 383.60955302 243 437 302.773551679 437 390 c 0
 437 439.567844194 389.96321943 460 358 460 c 0
 337.914418421 460 287.107551969 454.265450396 280.5 397 c 128
 275.8724049 356.894175801 275.553191489 354.127659574 258 339.5 c 128
 256 337.833333333 253.333333333 337 250 337 c 0
 235.967469551 337 234.650093681 342.979362967 229.5 378 c 128
 224.386978691 412.768544902 205.559469301 460 141 460 c 0
 116.147018108 460 69.8267134898 444.426011143 72.5 407 c 128
 73.531510255 392.558856431 62.104160127 351 42 351 c 256
 21.1448809131 351 21 390.889029166 21 392 c 0
 21 470.564332164 62.2480637733 560 154 560 c 0
 166.645408618 560 224.534070534 556.469497157 259 494 c 1
 271.1139457 513.516912517 306.523565025 560 369 560 c 0
 448.585142126 560 489 489.152488169 489 410 c 0
EndSplineSet
EndChar

StartChar: Z
Encoding: 90 90 39
Width: 922
GlyphClass: 2
Flags: HW
LayerCount: 2
Fore
SplineSet
832 286 m 1
 829.254868553 343.647760395 753.338261953 445 661 445 c 0
 572.183347452 445 488.192643745 350.541149961 478 269 c 0
 478 256.975742447 479 254.635368664 479 244 c 0
 479 228.865251406 469.763008955 183 446 183 c 0
 434.864129493 183 425 195.44213765 425 233 c 2
 425 234 l 1
 423.666666667 241.333333333 422.666666667 248.5 422 255.5 c 128
 416.85840641 309.4867327 340.981395439 447 228 447 c 0
 160.612822483 447 71 367.503916362 71 303 c 0
 71 287.666666667 75.3333333333 271.333333333 84 254 c 1
 104.699425735 321.27313364 140.821780009 370 226 370 c 0
 305.467438715 370 354 295.644506823 354 213 c 0
 354 145.548443919 320.245951382 57 229 57 c 0
 111.134826136 57 20 169.613296764 20 284 c 0
 20 423.899610575 138.761931126 546 238 546 c 0
 334.171165871 546 415.561864789 461.269490542 453 365 c 1
 498.011495558 473.027589339 583.115492853 545 674 545 c 0
 773.010348549 545 884 431.027714234 884 300 c 0
 884 266.666666667 877.333333333 234 864 202 c 1
 870.131306678 177.474773287 872 152.427883204 872 122 c 0
 872 7.53008181853 816.157683455 -165 680 -165 c 0
 673.016260163 -165 654 -165 654 -124 c 0
 654 -113.434790533 661.647733109 -65 685 -65 c 0
 779.562743589 -65 821 21.6677990269 821 103 c 0
 821 111.441141016 820.471965433 119.224276535 819 131 c 1
 805.190261334 115.217441524 746.378253296 54 665 54 c 0
 597.750303617 54 550 103.138925664 550 191 c 0
 550 275.985994055 600.631699361 368 691 368 c 0
 721.458293689 368 787.883557315 358.88803574 832 286 c 1
602 209 m 256
 602 175.682548581 639.317726796 154 675 154 c 0
 710.803610791 154 759.02420532 174.742268894 793 206 c 1
 777.891049544 230.885330163 744.252055286 268 678 268 c 0
 650.264086184 268 602 245.749206906 602 209 c 256
303 193 m 0
 303 235.207506209 256.626406112 270 216 270 c 0
 158.676426278 270 137.30170845 252.886150421 124 205 c 1
 143.810993688 188.236851495 188.477527956 156 239 156 c 0
 256.960117179 156 303 165.22616902 303 193 c 0
EndSplineSet
EndChar

StartChar: a
Encoding: 97 97 40
Width: 253
GlyphClass: 2
Flags: HW
LayerCount: 2
Fore
SplineSet
174 258 m 128
 174 288.686699561 173 408.479967106 173 410 c 128
 173 437.555555556 173 454 138 454 c 0
 83.2358524472 454 57.8663488106 401 43 401 c 256
 22.1448809131 401 22 440.889029166 22 442 c 0
 22 505.282714137 95.3082914417 554 150 554 c 0
 198.454165829 554 225 507.458647364 225 460 c 2
 225 57 l 2
 225 46.434790533 217.352266891 -2 194 -2 c 256
 180 -2 173 15 173 49 c 2
 173 92.5 l 130
 173 94.1550302112 174 236.2060809 174 258 c 128
EndSplineSet
EndChar

StartChar: b
Encoding: 98 98 41
Width: 1129
GlyphClass: 2
Flags: HW
LayerCount: 2
Fore
SplineSet
1102 59 m 2
 1102 48.434790533 1094.35226689 0 1071 0 c 2
 604 0 l 1
 604 0.666666666667 602.333333333 1.33333333333 599 2 c 0
 596.424304435 2 589.677058281 7.95323773407 587 20 c 0
 587 20.0728010989 586.705518142 25.2944818578 585 27 c 0
 585 31 584.666666667 33.6666666667 584 35 c 2
 584 41 l 2
 584 41.6664833081 586.044130354 92.7610325886 615 100 c 1
 791 100 l 1
 760.581520584 54.3722808754 703.637209668 0 605 0 c 2
 604 0 l 1
 604 0.666666666667 602.333333333 1.33333333333 599 2 c 0
 596.424304435 2 589.677058281 7.95323773407 587 20 c 0
 587 20.0728010989 586.705518142 25.2944818578 585 27 c 0
 585 31 584.666666667 33.6666666667 584 35 c 2
 584 41 l 2
 584 51.565209467 591.647733109 100 615 100 c 0
 639.354354631 103.746823789 644.091661915 101.174998903 665 106 c 0
 686.648341286 111.612532926 789 142.338531553 789 253 c 0
 789 339.83732245 721.776692205 397 639 397 c 256
 561.783645733 397 501.166657207 292.333200904 495 206 c 0
 493.666666667 192.666666667 492.666666667 179.833333333 492 167.5 c 128
 490.880311876 146.785769711 474.370640178 125 463 125 c 0
 446.230395865 125 442 149.887625805 442 175 c 0
 436.676073396 278.81656878 331.74567822 398 227 398 c 0
 150.307515781 398 72 330.35363105 72 251 c 0
 72 235 75.3333333333 220 82 206 c 1
 93.3333333333 236.666666667 109.5 261.333333333 130.5 280 c 128
 151.5 298.666666667 181.333333333 308 220 308 c 0
 303.692339628 308 346 228.51295514 346 150 c 0
 346 88.0771322542 314.257718118 0 225 0 c 0
 139.383657539 0 20 81.7604652692 20 230 c 0
 20 356.640723935 103.780225173 497 239 497 c 0
 349.596007658 497 438.206348326 388.630038864 468 313 c 1
 483.696725449 360.090176346 542.317658626 497 654 497 c 0
 781.766693826 497 840 381.633463922 840 273 c 0
 840 231.843552339 832.644620249 162.466930373 791 100 c 1
 1050 100 l 1
 1050 339 l 2
 1050 339.900055554 1049 411.433277779 1049 429 c 128
 1049 474.378472222 1049 545 1081 545 c 0
 1101.85511909 545 1102 505.110970834 1102 504 c 2
 1102 59 l 2
295 132 m 0
 295 175.761172223 247.592185161 208 210 208 c 0
 149.047703144 208 128.48832436 186.790522652 119 152 c 1
 129.578068365 141.845054369 176.209566399 99 235 99 c 0
 249.76293662 99 295 108.010969987 295 132 c 0
EndSplineSet
EndChar

StartChar: c
Encoding: 99 99 42
Width: 695
GlyphClass: 2
Flags: HW
LayerCount: 2
Fore
SplineSet
343 304 m 0
 343 394.838404134 280.143124227 439 204 439 c 0
 200.023450522 439 114.457513764 438.372541291 96.5 384.5 c 128
 92.4569160998 372.370748299 81.3333333333 339 65 339 c 0
 44.3113210563 339 44 378.54822572 44 379 c 0
 44 423.634163184 82.1322793964 538 213 538 c 0
 345.921152166 538 394 429.208909464 394 324 c 0
 394 259.906358899 378.866906673 170.785971435 310 97 c 1
 614 97 l 1
 614 344 l 2
 614 344.900055554 613 416.433277779 613 434 c 128
 613 509.615384615 616.223069967 515.813596091 627.5 537.5 c 128
 631.833333333 545.833333333 637.666666667 550 645 550 c 0
 665.772485548 550 666 510.45177428 666 510 c 2
 666 57 l 2
 666 32.1841492373 654.360430874 -3 635 -3 c 2
 46 -3 l 1
 27.2708002063 0.121533298948 26 29.1711761265 26 37 c 0
 26 47.873860552 33.3781152411 97 57 97 c 2
 88 97 l 1
 196.600909284 99.4682024837 343 162.225870115 343 304 c 0
EndSplineSet
EndChar

StartChar: d
Encoding: 100 100 43
Width: 391
GlyphClass: 2
Flags: HW
LayerCount: 2
Fore
SplineSet
4 417 m 0
 4 473.194667195 75.8228337573 555 192 555 c 0
 218.427607055 555 340 548.09289059 340 421 c 0
 340 388.404355752 330.623784151 348.234354884 300 304 c 1
 354.701485251 283.846821223 367 200.09241959 367 163 c 0
 367 49.2991028788 300.603276334 -66.3967236664 288.5 -78.5 c 128
 285.5 -81.5 282.333333333 -83 279 -83 c 0
 255.196823527 -83 251 -35.5226720213 251 -28 c 0
 251 24.6354896797 317 77.0160254718 317 172 c 0
 317 186.961253155 310.631296177 212 268 212 c 0
 227.435450335 212 167.141126242 175 160 175 c 0
 136.196823527 175 132 222.477327979 132 230 c 0
 132 249.442989546 134.484285875 268.716357231 165 285.5 c 128
 197.567433169 303.412088243 275.813983144 379.30243679 288 425 c 1
 283.213262233 430.085908877 255.929520572 456 197 456 c 0
 187.900718866 456 95.6336398965 454.371954108 57.5 389 c 128
 43.3806660712 364.795427551 37.19131681 362 32 362 c 0
 8.19682352695 362 4 409.477327979 4 417 c 0
EndSplineSet
EndChar

StartChar: e
Encoding: 101 101 44
Width: 318
GlyphClass: 2
Flags: HW
LayerCount: 2
Fore
SplineSet
150 350 m 0
 172.352495642 350 222 370.126097369 222 397 c 0
 222 400 222 400 219 415 c 1
 190.41106571 463.601188293 161 438.2829541 161 491 c 0
 161 499.189448568 167.78713141 551 192 551 c 0
 212.907662787 551 290 497.137239095 290 358 c 0
 290 318.161202573 280.792689548 112.008387871 95 7.5 c 128
 94.7442181939 7.35612273406 74.3830330566 -4 68 -4 c 0
 47.3113210563 -4 47 35.5482257201 47 36 c 0
 47 43.5125502603 48.232894741 80.4187969949 72 94 c 256
 123.061489292 123.177993881 157.615384615 142.923076923 197 202 c 128
 217 232 229.666666667 264.666666667 235 300 c 1
 216.918163581 276.599976398 185.950772247 251 137 251 c 0
 112.474758382 251 48 267.494991665 48 324 c 0
 48 334.873860552 55.3781152411 384 79 384 c 0
 92.3963505234 384 104.740904379 350 150 350 c 0
EndSplineSet
EndChar

StartChar: f
Encoding: 102 102 45
Width: 290
GlyphClass: 2
Flags: HW
LayerCount: 2
Fore
SplineSet
135 592 m 0
 114.144880913 592 114 631.889029166 114 633 c 2
 114 783 l 2
 114 793.565209467 121.647733109 842 145 842 c 0
 165.855119087 842 166 802.110970834 166 801 c 2
 166 651 l 2
 166 640.434790533 158.352266891 592 135 592 c 0
EndSplineSet
EndChar

StartChar: g
Encoding: 103 103 46
Width: 780
GlyphClass: 2
Flags: HW
LayerCount: 2
Fore
SplineSet
30 277 m 0
 30 391.665847093 82.6097691867 551 235 551 c 0
 256.433044534 551 257 506.500899191 257 506 c 0
 257 449 222.884015595 449 208.5 449 c 128
 162.546752523 449 80 403.520737672 80 288 c 0
 80 197.359563883 139.262358898 100 240 100 c 0
 309.938020912 100 333.39668199 166.331524281 361.5 272 c 128
 401.299327157 421.64547011 416.142857143 477.457142857 471 525 c 128
 491 542.333333333 516 551 546 551 c 0
 688.002530178 551 750 400.947920169 750 276 c 256
 750 154.909578995 690.525286714 0 546 0 c 0
 524.566955466 0 524 44.4991008085 524 45 c 0
 524 45.617170965 525.092334951 96.6365418689 552 100 c 0
 559.333333333 101.333333333 566.166666667 102 572.5 102 c 128
 620.860060949 102 699 153.628593455 699 266 c 0
 699 360.108089907 639.841685347 451 541 451 c 0
 475.29079059 451 446.070458866 397.467743691 414.5 277.5 c 128
 377.603320664 137.292618522 360.583234947 72.6162927981 307 25.5 c 128
 287.666666667 8.5 263.666666667 0 235 0 c 0
 86.0259456489 0 30 164.187517213 30 277 c 0
EndSplineSet
EndChar

StartChar: h
Encoding: 104 104 47
Width: 1014
GlyphClass: 2
Flags: HW
LayerCount: 2
Fore
SplineSet
789 550 m 0
 928.086464838 550 984 447.490739848 984 323 c 0
 984 295.181502423 980.134592488 190.344590437 926 83.5 c 128
 896.487493046 25.2516310115 858.245725908 -1 847 -1 c 0
 826.311321056 -1 826 38.5482257201 826 39 c 0
 826 78.9841760959 848.198951593 97.2915818724 861.5 106.5 c 128
 898.118312894 131.851139696 933 226.91735277 933 299 c 0
 933 355.926355582 912.238314377 450 775 450 c 0
 670.984012445 450 635.864945455 393.397551523 627.5 273.5 c 128
 618.925827745 150.603531011 613.333746258 78.9211559917 571 25.5 c 128
 557 7.83333333333 537.666666667 -1 513 -1 c 2
 506 -1 l 2
 460.890215965 -1 447.912233762 9.50531948511 435 25 c 0
 422.289211352 40.4740035714 400.124183007 67.4575163399 391.5 184.5 c 128
 381.165147599 324.758711154 376.988847584 381.437068508 318.5 426 c 128
 297.5 442 267.666666667 450 229 450 c 0
 176.623904328 450 81 434.70370985 81 323 c 0
 81 253.79505229 112.50667453 148.178238578 163 103 c 0
 184.742431119 87.4696920577 188 81.879349412 188 59 c 0
 188 37.2641310342 177.320950764 -1 157 -1 c 0
 137.719064496 -1 63.1511736148 67.0929583114 36.5 227 c 128
 32.1666666667 253 30 276.666666667 30 298 c 0
 30 376.781677599 51.541197236 550 241 550 c 0
 396.079315255 550 426.465567912 415.691878463 437 280.5 c 128
 446.437605799 159.384058911 448.48516129 133.107096774 466 114 c 0
 478.444184404 99.481784862 486.291542248 98 521 98 c 0
 563.226510431 98 567.167015073 137.393185905 569 160 c 128
 584.579511316 352.147306234 587.403433476 386.975679542 617.5 446.5 c 128
 632.5 476.166666667 653.5 500.833333333 680.5 520.5 c 128
 707.5 540.166666667 743.666666667 550 789 550 c 0
EndSplineSet
EndChar

StartChar: i
Encoding: 105 105 48
Width: 95
GlyphClass: 2
Flags: HW
LayerCount: 2
Fore
SplineSet
34 610 m 2
 34 678.977151255 -65.6429484014 741 -198 741 c 0
 -327.335420873 741 -418.886367651 677.522779462 -415.5 633.5 c 128
 -415.166666667 629.166666667 -415.666666667 624.666666667 -417 620 c 0
 -417 609.978159598 -427.746962231 575 -446 575 c 256
 -466.688678944 575 -467 614.54822572 -467 615 c 0
 -467 785.175010481 -313.096591673 840 -185 840 c 0
 -57.9645979398 840 86 783.880596531 86 631 c 2
 86 418 l 2
 86 417.333516692 82.0388803918 359 55 359 c 2
 54 359 l 1
 44.8655153712 360.304926376 34 367.998125522 34 413 c 2
 34 610 l 2
EndSplineSet
EndChar

StartChar: j
Encoding: 106 106 49
Width: 1623
GlyphClass: 2
Flags: HW
LayerCount: 2
Fore
SplineSet
657 449 m 256
 621.396295965 449 553.858611645 427.55416781 534 385 c 1
 534 54 l 2
 534 42.7984341839 528.913555707 -1 506 -1 c 0
 484.566899062 -0.999859838643 484 43.4991008085 484 44 c 2
 484 378 l 1
 475.267057476 384.986354019 475.732942524 387.013645981 467 394 c 0
 447.065729331 410.242739064 393.193786988 449 333 449 c 0
 190.091826694 449 81 362.76136756 81 267 c 2
 81 259 l 130
 81 256.333333333 81.3333333333 253.333333333 82 250 c 1
 100.189092251 287.959844698 148.254666457 363 244 363 c 0
 338.766546915 363 396 283.14771251 396 204 c 0
 396 109.609573377 327.329525896 1 223 1 c 0
 94.1376318457 1 30 145.626566898 30 257 c 0
 30 434.602179822 164.439468387 549 339 549 c 0
 431.459270578 549 508.158116234 471.683767533 508.5 471 c 128
 508.833333333 470.333333333 509.666666667 469.666666667 511 469 c 0
 525.040700263 490.646079573 571.387180488 549 663 549 c 0
 669.905178713 549 737.097553224 547.776253438 786 501 c 0
 829.040454947 463.023127988 836 427.527128433 836 365 c 2
 836 174 l 1
 846.781308208 130.874767169 923.258711528 102 965 102 c 0
 966.381955137 102 1050.33819769 102.230329491 1088 165 c 1
 1088 290 l 2
 1088 396.435871654 1093.08275814 476.322369348 1193 525 c 0
 1222.12591086 539.562955429 1260.47096307 549 1293 549 c 0
 1467.0602333 549 1593 433.973988605 1593 267 c 0
 1593 169.16487673 1534.06511206 1 1399 1 c 0
 1293.89907089 1 1227 99.0482498944 1227 195 c 0
 1227 284.867047081 1294.66787161 363 1384 363 c 0
 1444.6758533 363 1500.61745733 333.799180212 1542 256 c 1
 1542 381.958363532 1395.47247392 449 1288 449 c 0
 1245.04086366 449 1144.96930784 422.708424508 1138 356.5 c 128
 1137.33333333 350.166666667 1137 344.333333333 1137 339 c 0
 1137 283.221981268 1138 268.778018732 1138 213 c 0
 1138 142.410047623 1138 58.7368421053 1019.5 13 c 128
 1000.5 5.66666666667 980.333333333 2 959 2 c 256
 952.094821287 2 884.902446776 3.22374656169 836 50 c 0
 792.959545053 87.9768720118 786 123.472871567 786 186 c 2
 786 377 l 1
 775.218691792 420.125232831 698.741288472 449 657 449 c 256
346 191 m 0
 346 214.523137062 299.956321964 263 239 263 c 0
 173.934569604 263 128.337945058 222.123716493 110 172 c 1
 127.887174297 144.274879839 165.594501081 100 224 100 c 0
 269.315874975 100 312.105462125 123.944611861 335 163 c 1
 342 177 l 130
 344.666666667 182.333333333 346 187 346 191 c 0
1277 202 m 0
 1277 174.219425301 1324.25553955 100 1400 100 c 256
 1423.59737487 100 1472.72473111 107.614623548 1513 164 c 1
 1500.45611228 197.711698249 1462.194259 263 1379 263 c 0
 1315.15988683 263 1277 212.990270589 1277 202 c 0
EndSplineSet
EndChar

StartChar: k
Encoding: 107 107 50
Width: 813
GlyphClass: 2
Flags: HW
LayerCount: 2
Fore
SplineSet
783 278 m 0
 783 270.482602016 778.80483341 223 755 223 c 256
 747.742974016 223 735.430817109 228.245292047 733.5 263 c 128
 731.978569831 290.385743051 715.934021568 403.395236173 556 442 c 1
 588.640636144 405.007279037 652 316.8729241 652 190 c 0
 652 64.2717110885 572.385846048 2 514 2 c 0
 488.303415392 2 437.886989194 11.2260216123 405 77 c 1
 386.899762584 42.9289648637 352.897554092 2 294 2 c 0
 244.415181439 2 161 51.9948903194 161 180 c 0
 161 234.152856903 173.459720214 346.068676966 264 444 c 1
 206.863365978 433.419141848 103.773635528 389.062204332 83 303 c 0
 80.7740154027 287.418107819 81.5916423777 275.89711697 77 256 c 128
 74.7307692308 246.166666667 69.3846153846 223 52 223 c 0
 30.5669554663 223 30 267.499100809 30 268 c 0
 30 430.988100675 158.080621531 549 322 549 c 0
 344.899982203 549 375.049304287 546.185208714 409 536 c 1
 440.939502137 545.125572039 468.850452924 549 496 549 c 0
 653.997153462 549 783 439.039198657 783 278 c 0
520 102 m 0
 560.494553452 102 602 140.522976309 602 180 c 0
 602 257.300567005 541.742113623 389.085962126 404 435 c 1
 257.293872421 387.755653831 211 250.400948193 211 191 c 0
 211 148.930276002 253.180711174 102 299 102 c 0
 334.63104604 102 379.100544728 130.508170922 382 174 c 0
 382 177.137707716 382.380982452 234 410 234 c 0
 431.543292404 234 432 188.828680865 432 185 c 0
 432 140.990951953 478.865648849 102 520 102 c 0
EndSplineSet
EndChar

StartChar: l
Encoding: 108 108 51
Width: 650
GlyphClass: 2
Flags: HW
LayerCount: 2
Fore
SplineSet
339 381 m 0
 339 282.187267616 284.543800064 190 173 190 c 0
 160.878685902 190 151.71773011 190.611752841 121 195 c 1
 144.616830538 162.079569553 203.578166161 101 316 101 c 0
 511.662017461 101 569 231.282467274 569 295 c 0
 569 377.627082014 501.759312869 439.992549705 500.5 441 c 128
 490.929093567 448.656725146 476 460.6 476 491 c 0
 476 501.565209467 483.647733109 550 507 550 c 0
 519.646611886 550 572.310840192 492.526058223 598.5 432 c 128
 613.5 397.333333333 621 358.333333333 621 315 c 0
 621 251.777459193 601.195500913 149.925375819 516 73.5 c 128
 444.375365085 9.24848926746 359.447507966 2 306 2 c 0
 134.01874888 2 28 136.958121447 28 304 c 0
 28 398.466231556 72.8116260916 540 202 540 c 0
 245.699837557 540 339 523.334084441 339 381 c 0
191 441 m 0
 173.373450605 441 79 435.73586709 79 323 c 0
 79 316.333333333 79.3333333333 311.666666667 80 309 c 0
 141.454105024 290.091044608 167.197939242 290 183 290 c 0
 224.389729607 290 288 309.674257716 288 361 c 0
 288 375.262989121 283.008825629 441 191 441 c 0
EndSplineSet
EndChar

StartChar: m
Encoding: 109 109 52
Width: 516
GlyphClass: 2
Flags: HW
LayerCount: 2
Fore
SplineSet
331 376 m 0
 331 427.48466131 265.346112177 452 226 452 c 0
 188.032268787 452 124.465410279 432.089634806 117 370.5 c 130
 113 337.5 l 130
 110.76366714 319.050253907 95.4033307769 299 84 299 c 0
 63.1448809131 299 63 338.889029166 63 340 c 0
 63 441.721660087 123.50453379 551 236 551 c 0
 326.339286645 551 382 486.529117329 382 398 c 0
 382 215.862020189 184.307339902 200.768807882 102 102 c 1
 433 102 l 1
 419.411862189 159.070178805 378.033291695 178.766731017 368.5 193.5 c 128
 364.833333333 199.166666667 363 208.666666667 363 222 c 0
 363 232.565209467 370.647733109 281 394 281 c 0
 406.120721213 281 486 219.33880827 486 113 c 0
 486 43.6696116061 445.138063897 2 425 2 c 2
 51 2 l 2
 30.1448809132 2 30 41.8890291655 30 43 c 0
 30 161.018076295 113.7075742 223.017924115 193.5 269 c 128
 224.285849953 286.740998278 331 348.237288136 331 376 c 0
EndSplineSet
EndChar

StartChar: n
Encoding: 110 110 53
Width: 711
GlyphClass: 2
Flags: HW
LayerCount: 2
Fore
SplineSet
541 554 m 0
 652.085587064 554 679 414.181026038 679 321 c 0
 679 228.024887607 657.011778011 113.458839791 574 12 c 128
 568 4.66666666667 562.333333333 1 557 1 c 0
 536.144880913 1 536 40.8890291657 536 42 c 0
 536 70.7378764991 544.954760595 84.5087782061 566 109.5 c 128
 614.49393213 167.086544404 628 251.246008819 628 302 c 0
 628 330.371552216 622.776645954 455 531 455 c 0
 495.553152213 455 380 436.198784071 380 191 c 0
 380 117.708537223 352.992738936 115 349 115 c 256
 332.230395865 115 328 139.887625805 328 165 c 0
 328 285.803964922 304.882159562 404.429336406 218 442 c 0
 200.666666667 450.666666667 183.666666667 455 167 455 c 0
 92.008791446 455 81 371.203497815 81 322 c 0
 81 315.701113457 81.87319065 194.011125639 149 112.5 c 128
 168.550118926 88.7605698752 173 83.3571428571 173 60 c 0
 173 36.3149084995 161.316162564 1 142 1 c 256
 136.666666667 1 131.666666667 4.16666666667 127 10.5 c 128
 90.1341475524 60.5322283218 30 142.142857143 30 302 c 0
 30 348.650833471 37.3203440102 464.104881273 105.5 527.5 c 128
 124.5 545.166666667 148.666666667 554 178 554 c 0
 274.218699898 554 333.117860945 461.914272197 357 377 c 1
 371.351794847 420.899607767 407.450405432 521.62511262 506 549 c 128
 518 552.333333333 529.666666667 554 541 554 c 0
EndSplineSet
EndChar

StartChar: o
Encoding: 111 111 54
Width: 310
GlyphClass: 2
Flags: HW
LayerCount: 2
Fore
SplineSet
140 101 m 0
 211.538575438 101 223 175.963231822 223 224 c 0
 223 227.897838294 222.372205707 382.669881323 123 440 c 0
 113.666666667 445.333333333 106.166666667 448.333333333 100.5 449 c 128
 80.3727598566 451.367910605 59 453.882352941 59 494 c 0
 59 502.189448568 65.7871314102 554 90 554 c 0
 177.377920452 554 274 421.299030544 274 244 c 0
 274 181.039913708 256.356260745 1 128 1 c 0
 48.2909770681 1 23 74.7000441244 23 131 c 0
 23 228.277351763 86.7935076882 285 119 285 c 0
 139.772485548 285 140 245.45177428 140 245 c 0
 140 241.001683831 139.378151395 198.309803984 113 186 c 0
 76.2531373072 170.688807211 74 162.447512048 74 150 c 0
 74 117.891310072 110.663175216 101 140 101 c 0
EndSplineSet
EndChar

StartChar: p
Encoding: 112 112 55
Width: 981
GlyphClass: 2
Flags: HW
LayerCount: 2
Fore
SplineSet
222 403 m 256
 189.553671248 403 84 395.150091885 84 293 c 0
 84 291.062940373 86.5928154623 178.407184538 153 112 c 128
 173.397806132 91.6021938681 179 81.9704392688 179 60 c 0
 179 36.3149084995 167.316162564 1 148 1 c 256
 142.666666667 1 137.5 4 132.5 10 c 128
 97.3114313065 52.2262824322 77.1390374332 76.4331550802 55 139 c 128
 39.6666666667 182.333333333 32 225.666666667 32 269 c 0
 32 338.062698275 51.3311117459 503 236 503 c 0
 329.204012276 503 433 468.16691828 433 313 c 0
 433 260.871351302 422.106908778 188.575588266 381 101 c 1
 899 101 l 1
 899 349 l 2
 899 349.920054346 898 422.024390098 898 441 c 128
 898 488.75 898 559 930 559 c 0
 950.855119087 559 951 519.110970834 951 518 c 2
 951 60 l 2
 951 36.3149084995 939.316162564 1 920 1 c 2
 312 1 l 2
 291.144880913 1 291 40.8890291655 291 42 c 0
 291 61.5455762223 294.848786449 77.1099515098 313.5 101.5 c 128
 349.514923815 148.596438835 382 238.713687433 382 293 c 0
 382 326.545812391 366.18380039 403 222 403 c 256
EndSplineSet
EndChar

StartChar: q
Encoding: 113 113 56
Width: 343
GlyphClass: 2
Flags: HW
LayerCount: 2
Fore
SplineSet
42 228 m 2
 17.3605039559 228 11 295.804892476 11 324 c 0
 11 351.404610271 14.8481353963 489.886101547 91 547 c 128
 96.3333333333 551 100.666666667 553 104 553 c 0
 126.677681677 553 127 508.505371151 127 508 c 0
 127 496.061002179 127 468 101.5 451 c 128
 94.1933747667 446.128916511 61 419.19723795 61 332 c 0
 61 329.333333333 61.3333333333 328 62 328 c 2
 280 327 l 2
 327.117015276 327 331 260.822484606 331 239 c 0
 331 163.111621352 284.406077626 55.2984535163 266.5 24.5 c 128
 258.166666667 10.1666666667 250.333333333 3 243 3 c 0
 220.322318323 3 220 47.4946288493 220 48 c 0
 220 64 222.666666667 76.3333333333 228 85 c 128
 251.440512475 123.090832773 277.701259482 186.415113786 281 226 c 1
 271.469057826 227.906188435 248.170619426 228 244 228 c 130
 42 228 l 2
EndSplineSet
EndChar

StartChar: r
Encoding: 114 114 57
Width: 660
GlyphClass: 2
Flags: HW
LayerCount: 2
Fore
SplineSet
312 450 m 0
 185.379229847 450 82 352.234202076 82 257 c 0
 82 228.656097994 90.9302898273 172.069710173 151 112 c 128
 172.180277139 90.8197228614 177 84.344549068 177 60 c 0
 177 36.3149084995 165.316162564 1 146 1 c 256
 140.666666667 1 135.333333333 4 130 10 c 128
 81.0293410293 65.091991342 30 122.5 30 238 c 0
 30 406.031148176 157.5311621 549 321 549 c 0
 421.225871823 549 534.166943528 492.326975549 588 413.5 c 128
 616 372.5 630 320.666666667 630 258 c 0
 630 156.472687027 575.350530459 1 444 1 c 0
 356.051283155 1 314 77.3615235326 314 167 c 0
 314 266.490907058 368.924487914 352 477 352 c 0
 493.240496529 352 513.090847629 350.802153499 542 344 c 1
 493.20221252 405.639310502 392.7609381 450 312 450 c 0
366 186 m 0
 366 129.484220793 407.601962943 101 454 101 c 0
 519.163947642 101 575.979019277 156.475481919 579 232 c 1
 577 232 l 2
 575.256200765 232 574.743799235 233 573 233 c 0
 553.266217084 239.071933205 511.25 252 468 252 c 0
 432.485083102 252 366 236.736953687 366 186 c 0
EndSplineSet
EndChar

StartChar: s
Encoding: 115 115 58
Width: 651
GlyphClass: 2
Flags: HW
LayerCount: 2
Fore
SplineSet
379 387 m 0
 379 425.9209008 343.207102891 451 311 451 c 0
 282.213769519 451 256.953777558 430.632633852 252.5 409 c 128
 250.166666667 397.666666667 248.666666667 386 248 374 c 0
 248 373.333516692 244.719719237 317.309976603 217 315 c 0
 199.464032536 315 196 348.600375176 196 349 c 128
 196 364.99582186 168.709714088 449 96 449 c 0
 89.1623931624 449 71 449 58 436 c 1
 59.3333333333 429.333333333 61.3333333333 423.333333333 64 418 c 130
 72 402 l 130
 81.6568861948 382.68622761 82 373.432801434 82 365 c 0
 82 354.434790533 74.3522668913 306 51 306 c 256
 42.8 306 41.4975609756 308.170731707 32 324 c 0
 9.88441004976 366.529980674 6 396.984914458 6 424 c 0
 6 495.13644023 47.3313103899 548 107 548 c 0
 129.337901257 548 179.803265007 539.699764199 220 472 c 1
 237.040229126 512.166254369 267.333782146 550 321 550 c 0
 400.241066561 550 431 468.982246884 431 407 c 0
 431 359.49880084 417.877665955 218.9704759 268.5 158 c 128
 252.166666667 151.333333333 236.333333333 143.333333333 221 134 c 1
 225.092999373 127.86050094 251.06398219 94 326 94 c 0
 449.618052664 94 578 177.980371909 578 319 c 0
 578 411.138124295 541 460.752266095 541 495 c 0
 541 505.565209467 548.647733109 554 572 554 c 0
 578.277114099 554 584.869452502 550.391642495 589 538 c 0
 605.348432818 500.398604519 630 428.749245554 630 338 c 0
 630 277.796125073 613.842286798 59.2509981965 383.5 2.5 c 128
 360.5 -3.16666666667 337.333333333 -6 314 -6 c 0
 226.910511795 -6 162 40.5506044683 162 131 c 0
 162 159.658768348 165.293575893 208.68603373 242.5 243 c 128
 319.284133958 277.126281759 357.390927208 301.969757361 374.5 359 c 128
 377.5 369 379 378.333333333 379 387 c 0
EndSplineSet
EndChar

StartChar: t
Encoding: 116 116 59
Width: 736
GlyphClass: 2
Flags: HW
LayerCount: 2
Fore
SplineSet
248 455 m 0
 157.225447108 455 82 396.763707152 82 289 c 0
 82 232.378875202 99.5297096869 172.342157482 144.5 111.5 c 128
 152.52315899 100.645137837 164 85.1176470588 164 60 c 0
 164 36.3149084995 152.316162564 1 133 1 c 0
 125 1 125 1 105 31 c 0
 43.3397789302 128.358243794 30 193.736560994 30 270 c 0
 30 417.41416836 108.255891661 554 258 554 c 0
 276.401256894 554 330.334929111 551.221091879 373 521 c 1
 406.31844305 542.729419381 453.989900093 554 487 554 c 0
 637.347737653 554 706 425.58902999 706 289 c 0
 706 222.807297198 696.63525572 146.584646365 624 34 c 0
 620.666666667 29.3333333333 616.333333333 22.6666666667 611 14 c 128
 605.666666667 5.33333333333 599.666666667 1 593 1 c 0
 572.144880913 1 572 40.8890291657 572 42 c 0
 572 107.038087672 654 140.906617352 654 269 c 0
 654 366.515742721 591.7861764 455 478 455 c 0
 467.333333333 455 457 454 447 452 c 1
 470.206752876 418.082438104 498 359.105013551 498 271 c 0
 498 183.476359067 458.431574956 0 363 0 c 0
 266.108660755 0 238 181.831326103 238 252 c 0
 238 299.397714696 246.557727729 378.842226366 295 449 c 1
 280.333333333 453 264.666666667 455 248 455 c 0
373 99 m 0
 430.403217753 99 447 210.946250654 447 252 c 0
 447 282.357686127 439.066871498 360.950726264 363 417 c 1
 338.484168383 399.694707094 289 354.5425917 289 272 c 0
 289 227.074344577 310.912194177 99 373 99 c 0
EndSplineSet
EndChar

StartChar: u
Encoding: 117 117 60
Width: 321
GlyphClass: 2
Flags: HW
LayerCount: 2
Fore
SplineSet
154 -278 m 0
 72.9289978883 -278 21 -204.24896026 21 -128 c 0
 21 -35.1706162586 77.7030049759 48 168 48 c 0
 250.099337228 48 301 -27.5832676797 301 -100 c 0
 301 -182.799513419 253.09592221 -278 154 -278 c 0
250 -124 m 0
 250 -96.00843331 212.25581921 -52 155 -52 c 0
 105.421570844 -52 72 -89.3887421577 72 -104 c 0
 72 -135.58204356 111.305360046 -178 167 -178 c 0
 211.52520495 -178 250 -146.900498987 250 -124 c 0
EndSplineSet
EndChar

StartChar: v
Encoding: 118 118 61
Width: 724
GlyphClass: 2
Flags: HW
LayerCount: 2
Fore
SplineSet
241 357 m 0
 154.461143959 357 81 311.655022984 81 228 c 0
 81 226.620607018 82.4390121838 141.670740862 136 101.5 c 128
 142.795821462 96.4031339031 155 87.25 155 58 c 0
 155 34.3149084995 143.316162564 -1 124 -1 c 0
 119.333333333 -1 114.666666667 1.33333333333 110 6 c 130
 98 18 l 2
 67.9282972759 48.8844514464 30 107.871787086 30 209 c 256
 30 348.063145285 109.723033955 457 254 457 c 0
 384.817109114 457 462 360.576472895 462 228 c 0
 462 184 454 141.333333333 438 100 c 1
 622.030379584 108.977091687 643 207.064411097 643 269 c 0
 643 352.130668579 573.695613107 421.67538055 535.5 439.5 c 128
 535.120645718 439.677031998 504.219907029 454.780092971 499 460 c 0
 496.142857143 463.333333333 489 471.666666667 489 495 c 0
 489 505.565209467 496.647733109 554 520 554 c 0
 537.187708182 554 695 478.681372934 695 289 c 0
 695 222.28124878 676.937762391 18.3357148117 457.5 2.5 c 128
 425.166666667 0.166666666667 393.666666667 -1 363 -1 c 0
 356.016260163 -1 337 -1 337 40 c 0
 337 100.23089281 377.205611731 90.4448710877 401 153.5 c 128
 407.666666667 171.166666667 411 189.333333333 411 208 c 0
 411 309.10731276 323.853437131 357 241 357 c 0
EndSplineSet
EndChar

StartChar: w
Encoding: 119 119 62
Width: 969
GlyphClass: 2
Flags: HW
LayerCount: 2
Fore
SplineSet
175 463 m 0
 102.809614669 463 81 387.320964567 81 319 c 0
 81 315.814364574 81.481258121 159.589898224 175.5 94.5 c 128
 189.867334636 84.5533837136 194 70.1704539157 194 52 c 0
 194 28.3149084995 182.316162564 -7 163 -7 c 0
 144.084724638 -7 30 91.895078137 30 299 c 0
 30 345.754884654 37.4632775786 466.299059073 110 534 c 128
 130 552.666666667 155.333333333 562 186 562 c 0
 208.871061433 562 305.779903322 553.64116014 317.5 413 c 128
 319.166666667 393 320 373.666666667 320 355 c 256
 320 306.192084258 317 292.807915742 317 244 c 0
 317 154.903618227 346.522277529 105 428 105 c 0
 535.894889796 105 547.031872181 255.956165426 550 345 c 0
 549.333333333 356.333333333 549 366.666666667 549 376 c 130
 549 402 l 2
 549 433.375489546 550 441.624510454 550 473 c 256
 550 492.836601307 550 522.166666667 567 542 c 0
 571 547.333333333 575.666666667 550 581 550 c 0
 597.248080039 550 602 525.806689249 602 497.5 c 130
 602 480 l 2
 602 479.469905669 603 427.530094331 603 427 c 256
 603 408.333333333 602.333333333 387.666666667 601 365 c 0
 606.132245697 262.355086059 622.356198087 106 738 106 c 0
 852.133956282 106 888 223.905002363 888 307 c 0
 888 335.431251227 882.401519979 420.732320014 837 451 c 0
 816.308720204 467.553023836 805.631349842 461.105950473 799.5 479.5 c 128
 797.833333333 484.5 797 492.333333333 797 503 c 0
 797 513.565209467 804.647733109 562 828 562 c 0
 861.366597433 562 939 496.042462244 939 326 c 0
 939 201.239502088 882.147651127 7 729 7 c 0
 657.917894766 7 604.608169645 51.6153968178 573 164 c 1
 553.702780553 93.2435286926 511.043903591 6 418 6 c 0
 349.234621888 6 266 35.5629480981 266 225 c 0
 266 273.807799493 268 287.192200507 268 336 c 0
 268 406.779021546 258.246232137 443.987833648 195.5 460.5 c 128
 189.166666667 462.166666667 182.333333333 463 175 463 c 0
EndSplineSet
EndChar

StartChar: x
Encoding: 120 120 63
Width: 1040
GlyphClass: 2
Flags: HW
LayerCount: 2
Fore
SplineSet
226 403 m 256
 193.553671248 403 88 395.150091885 88 293 c 0
 88 291.062940373 90.5928154623 178.407184538 157 112 c 128
 177.397806132 91.6021938681 183 81.9704392688 183 60 c 0
 183 36.3149084995 171.316162564 1 152 1 c 256
 146.666666667 1 141.5 4 136.5 10 c 128
 101.311431307 52.2262824322 81.1390374332 76.4331550802 59 139 c 128
 43.6666666667 182.333333333 36 225.666666667 36 269 c 0
 36 338.062698275 55.3311117459 503 240 503 c 0
 333.204012276 503 437 468.16691828 437 313 c 0
 437 260.871351302 426.106908778 188.575588266 385 101 c 1
 718 101 l 1
 718.666666667 118.333333333 719 135.5 719 152.5 c 128
 719 169.5 719.333333333 186.666666667 720 204 c 1
 620.868615622 209.083660737 531 247.910777404 531 372 c 0
 531 445.179082253 563.765343056 547 658 547 c 0
 702.772549945 547 776 522.203930918 776 360 c 0
 776 352.920961829 775.941697549 336.300370593 774 313 c 1
 774 303 l 1
 803.6322652 303 811.3677348 304 841 304 c 0
 898.446187137 304 970.498574769 301.379632002 1004 192.5 c 128
 1015.49660594 155.136030684 1019 113.181633796 1019 60 c 0
 1019 36.3149084995 1007.31616256 1 988 1 c 2
 770 1 l 1
 770 -46.9302248675 769.762453844 -120 738 -120 c 0
 717.144880913 -120 717 -80.1109708343 717 -79 c 2
 717 1 l 1
 316 1 l 2
 295.144880913 1 295 40.8890291655 295 42 c 0
 295 61.5455762223 298.848786449 77.1099515098 317.5 101.5 c 128
 353.514923815 148.596438835 386 238.713687433 386 293 c 0
 386 326.545812391 370.18380039 403 226 403 c 256
832 205 m 0
 810.825679005 205 791.41649919 204.338531199 770 203 c 1
 770 157.681345215 769 146.318654785 769 101 c 1
 964 101 l 1
 953.326132006 183.722476951 910.678985388 205 832 205 c 0
644 447 m 0
 622.873323078 447 582 435.862715733 582 393 c 0
 582 354.11502734 615.156124359 313.894897786 724 304 c 1
 724 319.691490921 725 325.308509079 725 341 c 0
 725 393.638123958 714.617485872 447 644 447 c 0
EndSplineSet
EndChar

StartChar: y
Encoding: 121 121 64
Width: 742
GlyphClass: 2
Flags: HW
LayerCount: 2
Fore
SplineSet
369 307 m 1
 347.106973107 386.362222488 280.638117401 455 197 455 c 0
 186.491003335 455 102.330857791 452.255774281 82.5 365 c 128
 80.4729563603 356.081007986 70.2905366172 316 51 316 c 0
 30.1448809131 316 30 355.889029166 30 357 c 0
 30 386.594940154 67.8583245485 554 206 554 c 0
 319.23613939 554 424.848270166 441.228007719 427 282 c 1
 454.208598937 270.096237965 480.892597047 268 515 268 c 0
 602.36810224 268 648 318.442634882 648 351 c 0
 648 377.467111214 619.907223649 438.010603012 515 450 c 0
 501.05097014 453.487257465 494.94902986 448.512742535 481 452 c 0
 465.529427638 455.570132084 461 473.372939028 461 493 c 0
 461 503.565209467 468.647733109 552 492 552 c 0
 596.964644266 552 699 499.165260118 699 372 c 0
 699 254.608932798 622.335191614 168 505 168 c 0
 478.653507705 168 451.730005938 169.089998021 416 181 c 1
 394.918061299 96.6722451944 314.620653391 -7 200 -7 c 0
 108.220005608 -7 71 80.9804862612 71 146 c 0
 71 263.094205024 148.350553827 324 252 324 c 0
 275.148148148 324 314.5 324 352 312 c 0
 356.814814815 310.074074074 357 310 369 307 c 1
123 166 m 0
 123 122.120689376 171.805266145 92 213 92 c 0
 273.879312821 92 348.691081573 140.314827801 368 201 c 0
 366.934293301 201.710471133 329.706940307 224 242 224 c 256
 159.259888305 224 123 184.545480723 123 166 c 0
EndSplineSet
EndChar

StartChar: z
Encoding: 122 122 65
Width: 1234
GlyphClass: 2
Flags: HW
LayerCount: 2
Fore
SplineSet
670 449 m 2
 627.897056842 449 555.553567492 423.412939048 534 383 c 1
 534 54 l 2
 534 42.7984341839 528.913555707 -1 506 -1 c 0
 484.566899062 -0.999859838643 484 43.4991008085 484 44 c 2
 484 378 l 1
 475.267057476 384.986354019 475.732942524 387.013645981 467 394 c 0
 447.065729331 410.242739064 393.193786988 449 333 449 c 0
 190.091826694 449 81 362.76136756 81 267 c 2
 81 259 l 130
 81 256.333333333 81.3333333333 253.333333333 82 250 c 1
 100.189092251 287.959844698 148.254666457 363 244 363 c 0
 338.766546915 363 396 283.14771251 396 204 c 0
 396 109.609573377 327.329525896 1 223 1 c 0
 94.1376318457 1 30 145.626566898 30 257 c 0
 30 434.602179822 164.439468387 549 339 549 c 0
 428.008954831 549 502.396821275 477.603178725 512 468 c 1
 548.170155085 521.049560791 623.388124329 549 676 549 c 0
 705.926205333 549 754.267791632 545.00187214 807 525 c 1
 832.776539631 534.373287139 881.2794076 548 946 548 c 0
 1083.99912203 548 1204 412.5695423 1204 230 c 0
 1204 141.889134874 1167.34650446 -12.3206687894 1098 -79 c 0
 983.413915565 -190.647979706 832.530870115 -201 717 -201 c 0
 636.636777464 -201 613.752111425 -198 532 -198 c 0
 274.483534057 -198 213.159598659 -270 191 -270 c 0
 169.566955466 -270 169 -225.500899191 169 -225 c 0
 169 -184.665982938 188.63223804 -168.372216139 213 -159 c 128
 221.666666667 -155.666666667 229.666666667 -152.333333333 237 -149 c 0
 273.983221477 -132.563012677 351.75 -98 538 -98 c 0
 618.188402301 -98 641.811597699 -101 722 -101 c 0
 789.587665647 -101 969 -101 1078 8 c 128
 1128.0900897 58.0900897032 1154 162.749586643 1154 220 c 0
 1154 336.562722108 1056.52260805 449 941 449 c 0
 931.923654667 449 928.85412311 448 917 448 c 1
 958.177380318 402.116633359 989 336.78276501 989 244 c 0
 989 138.00375143 932.179223367 4 801 4 c 0
 680.025319166 4 629 148.285760018 629 248 c 0
 629 300.765558796 640.437777302 380.569967697 698 448 c 1
 693.333333333 448.666666667 688.833333333 449 684.5 449 c 130
 670 449 l 2
346 191 m 0
 346 214.523137062 299.956321964 263 239 263 c 0
 173.934569604 263 128.337945058 222.123716493 110 172 c 1
 127.887174297 144.274879839 165.594501081 100 224 100 c 0
 269.315874975 100 312.105462125 123.944611861 335 163 c 1
 342 177 l 130
 344.666666667 182.333333333 346 187 346 191 c 0
807 104 m 0
 878.501117367 104 939 157.083030993 939 235 c 0
 939 244.733450555 936.237650131 365.041007087 801 423 c 1
 787.124371772 416.89472358 679 365.828499099 679 257 c 0
 679 188.566689624 726.328078095 104 807 104 c 0
EndSplineSet
EndChar

StartChar: A_A
Encoding: 65537 -1 67
Width: 1329
GlyphClass: 3
Flags: HW
LayerCount: 2
Fore
SplineSet
1248 308 m 1
 1240.0719474 367.460394468 1201.04588915 456 1092 456 c 0
 996.459489064 456 878 390.186014172 878 274 c 0
 878 258.913695319 871.849791996 210.761088 847 208 c 1
 845 208 l 1
 834.867239887 209.558886171 826 220.939180803 826 256 c 0
 821.489395598 416.126456259 657.136535808 456 601 456 c 0
 576.579267638 456 457.553842366 448.276798064 453 298 c 1
 456.958800345 301.50201569 507.704432281 345 586 345 c 0
 633.237527486 345 741 327.223152963 741 165 c 0
 741 85.5632287681 712.898925179 -2 589 -2 c 0
 509.339711307 -2 441.679733964 43.6111306527 411 174 c 1
 252.366658052 174 205.633341948 173 47 173 c 0
 23.905361125 173 13 179.07183563 13 214 c 0
 13 237.403657943 25.228162317 270.604023188 42 273 c 1
 95 273 l 2
 100.056182653 273 101.332706236 274 105 274 c 0
 172.55376767 279.874240667 195 319.888461282 195 328 c 0
 195 329.418238344 189.77436091 395.85870884 80 411 c 0
 67.7942220772 412.74368256 65.2057779228 410.25631744 53 412 c 0
 43.6017003831 413.445892249 33 421.957512581 33 453 c 0
 33 463.565209467 40.6477331087 512 64 512 c 0
 178.039695128 512 246 446.40129008 246 345 c 0
 246 318.333333333 241.666666667 294.333333333 233 273 c 1
 401 273 l 1
 403.699382536 402.570361704 460.589767719 555 612 555 c 0
 667.447683163 555 801.273715216 525.873608106 855 394 c 1
 894.781247112 481.021478058 990.615230759 555 1101 555 c 0
 1257.70235255 555 1303 397.110384452 1303 287 c 0
 1303 198.977713174 1269.18079383 -2 1104 -2 c 0
 1009.33333333 -2 962 46.3333333333 962 143 c 0
 962 193.299930594 974.630097397 345 1127 345 c 0
 1138.4674688 345 1199.71968891 343.281765793 1248 308 c 1
690 142 m 1
 690 175.778688852 677.604492644 245 576 245 c 0
 509.660742606 245 465.827345152 208.827345152 465 208 c 0
 495.82788635 105.882626465 561.401451419 98 602 98 c 0
 622.746766907 98 678.014923074 107.283576917 689 132 c 1
 690 142 l 1
1013 157 m 0
 1013 107.561373856 1089.56029515 98 1114 98 c 0
 1171.81645613 98 1219.25096485 123.733886446 1241 194 c 1
 1237.51474409 197.485255907 1239.48525591 199.514744093 1236 203 c 0
 1215.05951642 229.175604469 1146.62102504 245 1117 245 c 0
 1086.33333333 245 1061.33333333 238.666666667 1042 226 c 128
 1022.66666667 213.333333333 1013 190.333333333 1013 157 c 0
EndSplineSet
Ligature2: "'dlig' Discretionary Ligatures in Latin lookup 3 subtable" A A
Ligature2: "'liga' +BCEEQgQwBD0ENAQwBEAEQgQ9BEsENQAA +BDsEOAQzBDAEQgRDBEAESwAA in Latin lookup 1 subtable" A A
EndChar

StartChar: A_B
Encoding: 65538 -1 68
Width: 1066
GlyphClass: 3
Flags: HW
LayerCount: 2
Fore
SplineSet
827 -47 m 0
 884.383087089 -47 1036 -67.1393566554 1036 -280 c 0
 1036 -305.1999261 1031.67887117 -455.359664285 932 -567 c 0
 928.666666667 -570.333333333 923.833333333 -575.5 917.5 -582.5 c 128
 911.166666667 -589.5 905.333333333 -593 900 -593 c 0
 879.227514452 -593 879 -553.45177428 879 -553 c 0
 879 -532.896675169 881.447190274 -514.461467978 908.5 -489 c 128
 936.340999392 -462.796706455 985 -384.411993122 985 -299 c 0
 985 -172.628226711 877.54888503 -147 814 -147 c 0
 765.675032061 -147 642 -156.700324399 642 -256 c 0
 642 -327.86884155 684.860584806 -434.595524382 724 -492 c 0
 744.316890882 -517.857861122 745 -518.727272727 745 -539 c 0
 745 -560.735868966 734.320950764 -599 714 -599 c 2
 344 -599 l 2
 323.227514452 -599 323 -559.45177428 323 -559 c 0
 323 -545.141468895 324.15869254 -527.570345838 350 -492.5 c 128
 385.289674635 -444.606870139 426 -342.761523844 426 -275 c 0
 426 -226.576839555 401.96866517 -147 244 -147 c 256
 201.475990111 -147 83 -157.951145402 83 -280 c 0
 83 -308.924167662 89.4971281004 -400.294037303 165 -486 c 0
 185.243766734 -503.129341083 189 -512.709668007 189 -533 c 0
 189 -554.735868966 178.320950764 -593 158 -593 c 256
 149.517247808 -593 144.311087025 -586.77330443 127 -566 c 0
 94.944682842 -528.488458645 32 -437.238891912 32 -299 c 0
 32 -154.575833848 102.647979101 -47 258 -47 c 0
 361.845745734 -47 477 -85.44925784 477 -256 c 0
 477 -302.404659013 468.241879723 -390.544319082 415 -499 c 1
 647 -499 l 1
 618.126608042 -438.943344727 591 -359.903409706 591 -275 c 0
 591 -164.415110814 635.978507262 -47 827 -47 c 0
EndSplineSet
Ligature2: "'dlig' Discretionary Ligatures in Latin lookup 3 subtable" A B
Ligature2: "'liga' +BCEEQgQwBD0ENAQwBEAEQgQ9BEsENQAA +BDsEOAQzBDAEQgRDBEAESwAA in Latin lookup 1 subtable" A B
EndChar

StartChar: A_C
Encoding: 65539 -1 69
Width: 1109
GlyphClass: 3
Flags: HW
LayerCount: 2
Fore
SplineSet
553 -589 m 0
 480.413018704 -589 477 -499.61357776 477 -444 c 0
 477 -304.876242096 477 -276.487804878 442.5 -226 c 128
 408.991584083 -176.963293781 331.879531951 -147 253 -147 c 0
 224.356287397 -147 93.2415651157 -155.202437223 87 -305 c 1
 96.6924664401 -296.644425483 148.201636044 -256 233 -256 c 0
 290.333333333 -256 332.5 -273 359.5 -307 c 128
 386.5 -341 400 -385 400 -439 c 0
 400 -515.519962204 370.932040098 -603 238 -603 c 0
 86.9202985774 -603 35 -454.127751421 35 -336 c 0
 35 -195.138523404 103.220877559 -47 267 -47 c 0
 317.849510976 -47 497.947024218 -61.5761937436 523.5 -266 c 128
 527.166666667 -295.333333333 529 -325.333333333 529 -356 c 0
 529 -356.850058821 528 -440.149941179 528 -441 c 0
 528 -489 550.858796296 -489 563 -489 c 0
 572.70422154 -489 590.094158998 -488.60070297 588.5 -461.5 c 128
 588.166666667 -455.833333333 588 -450 588 -444 c 2
 588 -358.5 l 130
 588 -278.478955974 600.281133238 -116.906288921 757.5 -64.5 c 128
 792.5 -52.8333333333 827.666666667 -47 863 -47 c 0
 1013.5933775 -47 1081 -178.690305167 1081 -316 c 0
 1081 -447.275021347 1021.92463918 -603 869 -603 c 0
 759.856164891 -603 716 -547.76993429 716 -459 c 0
 716 -358.133039876 762.107307047 -256 892 -256 c 0
 893.395600229 -256 972.122567655 -256.516119754 1026 -295 c 1
 1013.71491927 -216.375483302 955.30158589 -147 853 -147 c 0
 848.706597473 -147 700.450566461 -147.673789833 657 -240.5 c 128
 651.584412082 -252.069665098 638 -281.090909091 638 -356 c 2
 638 -445 l 129
 635.850998815 -500.87403081 624.498747212 -589 553 -589 c 0
767 -440 m 0
 767 -487.465914617 829.092569938 -503 878 -503 c 0
 920.398145005 -503 989.596714592 -489.316303864 1018 -406 c 1
 1001.02515136 -376.900259479 927.75081043 -356 882 -356 c 0
 832.95996049 -356 767 -372.447327659 767 -440 c 0
349 -459 m 2
 349 -428.527512721 337.118957726 -356 224 -356 c 0
 222.705975271 -356 137.11063327 -359.600430057 100 -393 c 1
 124 -466.333333333 173.333333333 -503 248 -503 c 0
 285.477071502 -503 325.899241202 -495.234260753 349 -467 c 1
 349 -459 l 2
EndSplineSet
Ligature2: "'dlig' Discretionary Ligatures in Latin lookup 3 subtable" A C
EndChar

StartChar: A_D
Encoding: 65540 -1 70
Width: 773
GlyphClass: 3
Flags: HW
LayerCount: 2
Fore
SplineSet
562 -499 m 0
 656.886858115 -499 702 -374.771531262 702 -302 c 0
 702 -256 690.666666667 -212.333333333 668 -171 c 1
 648 -139 l 258
 641.19933673 -128.118938769 639 -119.85343853 639 -107 c 0
 639 -98.8105514318 645.78713141 -47 670 -47 c 0
 679.02010009 -47 683.082655678 -52.6446474361 697 -77 c 0
 721.800276683 -118.04873382 753 -184.264088153 753 -283 c 0
 753 -438.833619726 667.542354835 -599 552 -599 c 0
 523.456664548 -599 426.884615385 -599 385 -478 c 1
 372.333333333 -512.666666667 352.666666667 -541.5 326 -564.5 c 128
 299.333333333 -587.5 262.333333333 -599 215 -599 c 0
 109.605455754 -599 24 -461.549663488 24 -302 c 0
 24 -167.885880705 78.8917177359 -88.5832603773 101 -57 c 128
 105.666666667 -50.3333333333 111 -47 117 -47 c 0
 137.688678944 -47 138 -86.5482257201 138 -87 c 0
 138 -105 134.833333333 -118.5 128.5 -127.5 c 128
 106.826368177 -158.299371538 75 -204.445021292 75 -283 c 0
 75 -362.890342295 124.484887786 -499 225 -499 c 0
 343.38054408 -499 362 -422.252147376 362 -321 c 2
 362 -153 l 2
 362 -126.403462361 368.865337647 -77 393 -77 c 0
 411.23407887 -77 415 -110.94499256 415 -139 c 2
 414 -240 l 1
 414 -296 l 1
 417.073972154 -415.88491401 439.932226607 -499 562 -499 c 0
EndSplineSet
Ligature2: "'dlig' Discretionary Ligatures in Latin lookup 3 subtable" A D
EndChar

StartChar: A_D_U
Encoding: 65541 -1 71
Width: 780
GlyphClass: 3
Flags: HW
LayerCount: 2
Fore
SplineSet
562 -499 m 0
 656.886858115 -499 702 -374.771531262 702 -302 c 0
 702 -256 690.666666667 -212.333333333 668 -171 c 1
 648 -139 l 258
 641.19933673 -128.118938769 639 -119.85343853 639 -107 c 0
 639 -98.8105514318 645.78713141 -47 670 -47 c 0
 679.02010009 -47 683.082655678 -52.6446474361 697 -77 c 0
 721.800276683 -118.04873382 753 -184.264088153 753 -283 c 0
 753 -299.861313461 750.550470386 -448.097314797 666 -540 c 1
 691.846389698 -555.203758646 772 -612.694055236 772 -741 c 0
 772 -858.865081086 693.654454227 -983 559 -983 c 0
 426.828416758 -983 352 -864.791249182 352 -751 c 0
 352 -715.482177103 360.119534896 -625.395406966 436 -559 c 1
 427.801873757 -551.712776673 401.756890356 -528.270671067 385 -478 c 1
 372.333333333 -512.666666667 352.666666667 -541.5 326 -564.5 c 128
 299.333333333 -587.5 262.333333333 -599 215 -599 c 0
 109.605455754 -599 24 -461.549663488 24 -302 c 0
 24 -167.885880705 78.8917177359 -88.5832603773 101 -57 c 128
 105.666666667 -50.3333333333 111 -47 117 -47 c 0
 137.688678944 -47 138 -86.5482257201 138 -87 c 0
 138 -105 134.833333333 -118.5 128.5 -127.5 c 128
 106.826368177 -158.299371538 75 -204.445021292 75 -283 c 0
 75 -362.890342295 124.484887786 -499 225 -499 c 0
 343.38054408 -499 362 -422.252147376 362 -321 c 2
 362 -153 l 2
 362 -126.403462361 368.865337647 -77 393 -77 c 0
 411.23407887 -77 415 -110.94499256 415 -139 c 2
 414 -240 l 1
 414 -296 l 1
 417.073972154 -415.88491401 439.932226607 -499 562 -499 c 0
418 -689 m 128
 418 -690.697894088 402 -710.333355912 402 -740 c 0
 402 -824.922993732 491.317587502 -883 563 -883 c 0
 637.918193485 -883 722 -826.43613707 722 -751 c 0
 722 -732.684519292 716.840565069 -700.705600386 687 -669 c 1
 684.510632531 -741.191656588 640.915001083 -826 551 -826 c 0
 470.707919799 -826 424.330330248 -758.959458342 419 -687 c 1
 418.333333333 -687.666666667 418 -688.333333333 418 -689 c 128
556 -612 m 1
 493.5457398 -612 469 -652.135509038 469 -663 c 0
 469 -666.333333333 469.833333333 -669.666666667 471.5 -673 c 130
 476 -682 l 1
 494.776666953 -714.859167167 530.69781494 -726 555 -726 c 0
 612.412042861 -726 637 -682.881157064 637 -673 c 0
 637 -663.749011049 618.792415062 -617.460210005 556 -612 c 1
EndSplineSet
Ligature2: "'dlig' Discretionary Ligatures in Latin lookup 3 subtable" A D U
EndChar

StartChar: A_D_u
Encoding: 65542 -1 72
Width: 775
GlyphClass: 3
Flags: HW
LayerCount: 2
Fore
SplineSet
562 -499 m 0
 656.886858115 -499 702 -374.771531262 702 -302 c 0
 702 -256 690.666666667 -212.333333333 668 -171 c 1
 648 -139 l 258
 641.19933673 -128.118938769 639 -119.85343853 639 -107 c 0
 639 -98.8105514318 645.78713141 -47 670 -47 c 0
 679.02010009 -47 683.082655678 -52.6446474361 697 -77 c 0
 721.800276683 -118.04873382 753 -184.264088153 753 -283 c 0
 753 -354.842923468 732.692596207 -474.307403793 658 -549 c 1
 672.346406773 -564.856554855 697 -599.839296741 697 -653 c 0
 697 -735.799513419 649.09592221 -831 550 -831 c 0
 468.928997888 -831 417 -757.24896026 417 -681 c 0
 417 -655.669319524 421.501221328 -610.248168008 449 -569 c 1
 439.365787306 -562.297938995 407.08677686 -539.842975207 385 -478 c 1
 372.333333333 -512.666666667 352.666666667 -541.5 326 -564.5 c 128
 299.333333333 -587.5 262.333333333 -599 215 -599 c 0
 109.605455754 -599 24 -461.549663488 24 -302 c 0
 24 -167.885880705 78.8917177359 -88.5832603773 101 -57 c 128
 105.666666667 -50.3333333333 111 -47 117 -47 c 0
 137.688678944 -47 138 -86.5482257201 138 -87 c 0
 138 -105 134.833333333 -118.5 128.5 -127.5 c 128
 106.826368177 -158.299371538 75 -204.445021292 75 -283 c 0
 75 -362.890342295 124.484887786 -499 225 -499 c 0
 343.38054408 -499 362 -422.252147376 362 -321 c 2
 362 -153 l 2
 362 -126.403462361 368.865337647 -77 393 -77 c 0
 411.23407887 -77 415 -110.94499256 415 -139 c 2
 414 -240 l 1
 414 -296 l 1
 417.073972154 -415.88491401 439.932226607 -499 562 -499 c 0
646 -677 m 0
 646 -649.00843331 608.25581921 -605 551 -605 c 0
 501.421570844 -605 468 -642.388742158 468 -657 c 0
 468 -688.58204356 507.305360046 -731 563 -731 c 0
 607.52520495 -731 646 -699.900498987 646 -677 c 0
EndSplineSet
Ligature2: "'dlig' Discretionary Ligatures in Latin lookup 3 subtable" A D u
EndChar

StartChar: A_G
Encoding: 65543 -1 73
Width: 1053
GlyphClass: 3
Flags: HW
LayerCount: 2
Fore
SplineSet
235 -145 m 0
 153.45653599 -145 82 -207.843537801 82 -294 c 0
 82 -376.528259096 133.921023374 -455.372159553 177.5 -486.5 c 128
 198.829283148 -501.735202249 207 -511.260661444 207 -537 c 0
 207 -558.735868966 196.320950764 -597 176 -597 c 0
 158.702358093 -597 31 -494.756475738 31 -312 c 0
 31 -158.58382123 130.581004457 -46 244 -46 c 0
 326.722415656 -46 339 -125.949162078 339 -205 c 0
 339 -258.860692595 336 -273.528196294 336 -326 c 256
 336 -396.173427396 336 -471.285714286 471 -497 c 128
 485 -499.666666667 499 -501 513 -501 c 0
 534.333333333 -501 553.333333333 -498 570 -492 c 1
 545.709540769 -455.564311153 507 -380.375322418 507 -271 c 0
 507 -209.147817757 530.205671494 -47 633 -47 c 0
 736.143590804 -47 751 -209.061221984 751 -262 c 0
 751 -300.766398699 745.222923418 -396.684614797 694 -485 c 1
 722.767729027 -497.945478062 752.719864526 -504 785 -504 c 0
 790.598026608 -504 905.974338772 -503.193324967 949 -437 c 128
 966.333333333 -410.333333333 975 -375 975 -331 c 0
 975 -309.623477727 971.894218653 -214.837850099 919 -151 c 0
 899.643274854 -125.83625731 899 -125 899 -106 c 0
 899 -97.8105514318 905.78713141 -46 930 -46 c 0
 951.303355268 -46 1026 -150.233470086 1026 -312 c 0
 1026 -433.575190743 987.213943799 -603 771 -603 c 0
 747.512988459 -603 689.506420805 -601.3841813 631 -557 c 1
 600.133145003 -580.743734613 558.12230782 -600 503 -600 c 0
 481.105382052 -600 384.967150447 -593.162770506 338.5 -540.5 c 128
 298.10227786 -494.715914908 285 -438.240871249 285 -345 c 0
 285 -292.703107562 288 -277.296892438 288 -225 c 0
 288 -177.369471549 284.761910087 -145 235 -145 c 0
623 -147 m 0
 567.919910909 -147 559 -213.538698027 559 -251 c 0
 559 -289.827286537 567.356335602 -381.944309786 640 -449 c 1
 661.640226084 -425.917092177 700 -372.150063529 700 -281 c 0
 700 -241.639380154 687.289100545 -147 623 -147 c 0
EndSplineSet
Ligature2: "'dlig' Discretionary Ligatures in Latin lookup 3 subtable" A G
EndChar

StartChar: A_G_U
Encoding: 65544 -1 74
Width: 1052
GlyphClass: 3
Flags: HW
LayerCount: 2
Fore
SplineSet
235 -145 m 0
 153.45653599 -145 82 -207.843537801 82 -294 c 0
 82 -376.528259096 133.921023374 -455.372159553 177.5 -486.5 c 128
 198.829283148 -501.735202249 207 -511.260661444 207 -537 c 0
 207 -558.735868966 196.320950764 -597 176 -597 c 0
 158.702358093 -597 31 -494.756475738 31 -312 c 0
 31 -158.58382123 130.581004457 -46 244 -46 c 0
 326.722415656 -46 339 -125.949162078 339 -205 c 0
 339 -258.860692595 336 -273.528196294 336 -326 c 256
 336 -396.173427396 336 -471.285714286 471 -497 c 128
 485 -499.666666667 499 -501 513 -501 c 0
 534.333333333 -501 553.333333333 -498 570 -492 c 1
 545.709540769 -455.564311153 507 -380.375322418 507 -271 c 0
 507 -209.147817757 530.205671494 -47 633 -47 c 0
 736.143590804 -47 751 -209.061221984 751 -262 c 0
 751 -300.766398699 745.222923418 -396.684614797 694 -485 c 1
 722.767729027 -497.945478062 752.719864526 -504 785 -504 c 0
 790.598026608 -504 905.974338772 -503.193324967 949 -437 c 128
 966.333333333 -410.333333333 975 -375 975 -331 c 0
 975 -309.623477727 971.894218653 -214.837850099 919 -151 c 0
 899.643274854 -125.83625731 899 -125 899 -106 c 0
 899 -97.8105514318 905.78713141 -46 930 -46 c 0
 951.303355268 -46 1026 -150.233470086 1026 -312 c 0
 1026 -400.059436078 1001.90578785 -498.47913821 937 -553 c 1
 958.708592121 -570.366873697 1021 -629.721654892 1021 -739 c 0
 1021 -856.865081086 942.654454227 -981 808 -981 c 0
 675.828416758 -981 601 -862.791249182 601 -749 c 0
 601 -714.878308354 608.264834403 -641.16652101 664 -578 c 1
 652 -572 641 -565 631 -557 c 1
 600.133145003 -580.743734613 558.12230782 -600 503 -600 c 0
 481.105382052 -600 384.967150447 -593.162770506 338.5 -540.5 c 128
 298.10227786 -494.715914908 285 -438.240871249 285 -345 c 0
 285 -292.703107562 288 -277.296892438 288 -225 c 0
 288 -177.369471549 284.761910087 -145 235 -145 c 0
623 -147 m 0
 567.919910909 -147 559 -213.538698027 559 -251 c 0
 559 -289.827286537 567.356335602 -381.944309786 640 -449 c 1
 661.640226084 -425.917092177 700 -372.150063529 700 -281 c 0
 700 -241.639380154 687.289100545 -147 623 -147 c 0
667 -687 m 128
 667 -688.697894088 651 -708.333355912 651 -738 c 0
 651 -822.922993732 740.317587502 -881 812 -881 c 0
 886.918193485 -881 971 -824.43613707 971 -749 c 0
 971 -730.684519292 965.840565069 -698.705600386 936 -667 c 1
 933.510632531 -739.191656588 889.915001083 -824 800 -824 c 0
 719.707919799 -824 673.330330248 -756.959458342 668 -685 c 1
 667.333333333 -685.666666667 667 -686.333333333 667 -687 c 128
805 -610 m 1
 742.5457398 -610 718 -650.135509038 718 -661 c 0
 718 -664.333333333 718.833333333 -667.666666667 720.5 -671 c 130
 725 -680 l 1
 743.776666953 -712.859167167 779.69781494 -724 804 -724 c 0
 861.412042861 -724 886 -680.881157064 886 -671 c 0
 886 -661.749011049 867.792415062 -615.460210005 805 -610 c 1
EndSplineSet
Ligature2: "'dlig' Discretionary Ligatures in Latin lookup 3 subtable" A G U
EndChar

StartChar: A_G_u
Encoding: 65545 -1 75
Width: 1052
GlyphClass: 3
Flags: HW
LayerCount: 2
Fore
SplineSet
235 -145 m 0
 153.45653599 -145 82 -207.843537801 82 -294 c 0
 82 -376.528259096 133.921023374 -455.372159553 177.5 -486.5 c 128
 198.829283148 -501.735202249 207 -511.260661444 207 -537 c 0
 207 -558.735868966 196.320950764 -597 176 -597 c 0
 158.702358093 -597 31 -494.756475738 31 -312 c 0
 31 -158.58382123 130.581004457 -46 244 -46 c 0
 326.722415656 -46 339 -125.949162078 339 -205 c 0
 339 -258.860692595 336 -273.528196294 336 -326 c 256
 336 -396.173427396 336 -471.285714286 471 -497 c 128
 485 -499.666666667 499 -501 513 -501 c 0
 534.333333333 -501 553.333333333 -498 570 -492 c 1
 545.709540769 -455.564311153 507 -380.375322418 507 -271 c 0
 507 -209.147817757 530.205671494 -47 633 -47 c 0
 736.143590804 -47 751 -209.061221984 751 -262 c 0
 751 -300.766398699 745.222923418 -396.684614797 694 -485 c 1
 722.767729027 -497.945478062 752.719864526 -504 785 -504 c 0
 790.598026608 -504 905.974338772 -503.193324967 949 -437 c 128
 966.333333333 -410.333333333 975 -375 975 -331 c 0
 975 -309.623477727 971.894218653 -214.837850099 919 -151 c 0
 899.643274854 -125.83625731 899 -125 899 -106 c 0
 899 -97.8105514318 905.78713141 -46 930 -46 c 0
 951.303355268 -46 1026 -150.233470086 1026 -312 c 0
 1026 -368.46348617 1015.6120074 -502.591995069 922 -565 c 1
 926.976343233 -571.63512431 954 -607.871188713 954 -661 c 0
 954 -743.799513419 906.09592221 -839 807 -839 c 0
 725.928997888 -839 674 -765.24896026 674 -689 c 0
 674 -653.666666667 681.666666667 -621.333333333 697 -592 c 1
 673.666666667 -584 651.666666667 -572.333333333 631 -557 c 1
 600.133145003 -580.743734613 558.12230782 -600 503 -600 c 0
 481.105382052 -600 384.967150447 -593.162770506 338.5 -540.5 c 128
 298.10227786 -494.715914908 285 -438.240871249 285 -345 c 0
 285 -292.703107562 288 -277.296892438 288 -225 c 0
 288 -177.369471549 284.761910087 -145 235 -145 c 0
623 -147 m 0
 567.919910909 -147 559 -213.538698027 559 -251 c 0
 559 -289.827286537 567.356335602 -381.944309786 640 -449 c 1
 661.640226084 -425.917092177 700 -372.150063529 700 -281 c 0
 700 -241.639380154 687.289100545 -147 623 -147 c 0
903 -685 m 0
 903 -657.00843331 865.25581921 -613 808 -613 c 0
 758.421570844 -613 725 -650.388742158 725 -665 c 0
 725 -696.58204356 764.305360046 -739 820 -739 c 0
 864.52520495 -739 903 -707.900498987 903 -685 c 0
EndSplineSet
Ligature2: "'dlig' Discretionary Ligatures in Latin lookup 3 subtable" A G u
EndChar

StartChar: A_I
Encoding: 65546 -1 76
Width: 1051
GlyphClass: 3
Flags: HW
LayerCount: 2
Fore
SplineSet
125 162 m 0
 68.4206061247 162 28 216.493827027 28 277 c 0
 28 352.536250393 66.8254908623 419 141 419 c 0
 207.121163261 419 239 352.64313204 239 301 c 0
 239 238.020620654 202.088892491 162 125 162 c 0
532 554 m 0
 685.760630417 554 778 418.172790888 778 285 c 0
 778 141.884802972 677.852249391 -1 516 -1 c 0
 361.052178109 -1 271 138.09579655 271 267 c 0
 271 418.998511501 375.820721244 554 532 554 c 0
913 162 m 0
 856.420606125 162 816 216.493827027 816 277 c 0
 816 352.536250393 854.825490862 419 929 419 c 0
 995.121163261 419 1027 352.64313204 1027 301 c 0
 1027 238.020620654 990.088892491 162 913 162 c 0
186 284 m 1
 175.885731501 312.657094082 141.300637204 319 128 319 c 0
 119.793115742 319 94.729848607 317.253541835 80 297 c 1
 90.1142684994 268.342905918 124.699362796 262 138 262 c 0
 143.019631259 262 175.257615876 264.305629106 186 284 c 1
519 454 m 0
 425.440313369 454 323 384.588685891 323 287 c 0
 323 178.754788687 429.511476844 99 529 99 c 0
 620.246281114 99 726 166.458630214 726 266 c 0
 726 374.782433379 618.977481218 454 519 454 c 0
974 284 m 1
 963.885731501 312.657094082 929.300637204 319 916 319 c 0
 907.793115742 319 882.729848607 317.253541835 868 297 c 1
 878.114268499 268.342905918 912.699362796 262 926 262 c 0
 931.019631259 262 963.257615876 264.305629106 974 284 c 1
EndSplineSet
Ligature2: "'dlig' Discretionary Ligatures in Latin lookup 3 subtable" A I
EndChar

StartChar: A_J
Encoding: 65547 -1 77
Width: 1284
GlyphClass: 3
Flags: HW
LayerCount: 2
Fore
SplineSet
516 -344 m 0
 516 -232.955536326 433.22336019 -140 324 -140 c 0
 241.642178376 -140 141.564753104 -168.557543172 100 -260 c 0
 93.0331890332 -273.933621934 78 -304 78 -381 c 0
 78 -457.803963107 95 -526.624141468 95 -539 c 0
 95 -560.735868966 84.3209507635 -599 64 -599 c 0
 47.010059251 -599 42.2089507284 -567.089507284 41 -555 c 128
 40.9147789711 -554.147789711 34.2657765844 -507.657765844 30.5 -470 c 128
 28.1666666667 -446.666666667 27 -423.333333333 27 -400 c 0
 27 -287.267928803 55.7197188817 -137.44806917 194 -69.5 c 128
 232.666666667 -50.5 279 -41 333 -41 c 0
 488.464189478 -41 567 -188.952634295 567 -325 c 0
 567 -369.671402777 559.720924728 -435.13179212 525 -493 c 1
 544.333333333 -499.666666667 569.666666667 -503 601 -503 c 0
 726.030966788 -503 751 -409.939487168 751 -281 c 0
 751 -216.502838164 746 -198.497161836 746 -134 c 0
 746 -119.600213445 751.981539352 -67 777 -67 c 256
 797.076482264 -67 801 -111.914618157 801 -147 c 2
 801 -239 l 2
 801 -336.940066291 811.590785084 -422.834997617 904 -473 c 0
 937.333333333 -490.333333333 973 -499 1011 -499 c 0
 1036.31447602 -499 1145.66726054 -492.786475095 1190 -388 c 1
 1161.16787411 -397.010039339 1125.43054307 -398 1120 -398 c 0
 1014.98855102 -398 946 -309.289842032 946 -209 c 0
 946 -126.395417941 987.87966887 -53 1073 -53 c 0
 1143.52201618 -53 1254 -125.092901417 1254 -300 c 0
 1254 -443.640345947 1172.06922485 -598 999 -598 c 0
 952.695649996 -598 834.037303809 -584.330136649 778 -451 c 1
 729.269904223 -597.190287332 632.872138956 -603 586 -603 c 0
 564.864498645 -603 504.555555556 -603 459 -562 c 1
 424.326482359 -584.19105129 383.491773241 -595 336 -595 c 0
 302.991467729 -595 171 -585.114231229 171 -427 c 0
 171 -351.221657594 212.20024243 -255 304 -255 c 256
 389.3012931 -255 417.952515899 -305.852271685 445 -390 c 0
 456.532626786 -421.302844132 465.32545101 -438.988176514 474 -452 c 1
 514.921070345 -411.078929655 516 -362.404894578 516 -344 c 0
997 -189 m 0
 997 -230.103645511 1044.4147475 -299 1132 -299 c 0
 1142.67251117 -299 1159.44044398 -298.929281182 1200 -287 c 1
 1189.33149992 -220.321874475 1133.19574926 -153 1061 -153 c 0
 1041.1887789 -153 997 -163.676641888 997 -189 c 0
222 -409 m 0
 222 -450.060906418 266.817613332 -496 349 -496 c 0
 373.666666667 -496 395 -492.666666667 413 -486 c 1
 407 -470 401.333333333 -454.166666667 396 -438.5 c 128
 370.503595292 -363.604311171 325.159558186 -355 290 -355 c 0
 262.251083268 -355 222 -375.884547005 222 -409 c 0
EndSplineSet
Ligature2: "'dlig' Discretionary Ligatures in Latin lookup 3 subtable" A J
EndChar

StartChar: A_J_U
Encoding: 65548 -1 78
Width: 1290
GlyphClass: 3
Flags: HW
LayerCount: 2
Fore
SplineSet
516 -344 m 0
 516 -232.955536326 433.22336019 -140 324 -140 c 0
 241.642178376 -140 141.564753104 -168.557543172 100 -260 c 0
 93.0331890332 -273.933621934 78 -304 78 -381 c 0
 78 -457.803963107 95 -526.624141468 95 -539 c 0
 95 -560.735868966 84.3209507635 -599 64 -599 c 0
 47.010059251 -599 42.2089507284 -567.089507284 41 -555 c 128
 40.9147789711 -554.147789711 34.2657765844 -507.657765844 30.5 -470 c 128
 28.1666666667 -446.666666667 27 -423.333333333 27 -400 c 0
 27 -287.267928803 55.7197188817 -137.44806917 194 -69.5 c 128
 232.666666667 -50.5 279 -41 333 -41 c 0
 488.464189478 -41 567 -188.952634295 567 -325 c 0
 567 -369.671402777 559.720924728 -435.13179212 525 -493 c 1
 544.333333333 -499.666666667 569.666666667 -503 601 -503 c 0
 726.030966788 -503 751 -409.939487168 751 -281 c 0
 751 -216.502838164 746 -198.497161836 746 -134 c 0
 746 -119.600213445 751.981539352 -67 777 -67 c 256
 797.076482264 -67 801 -111.914618157 801 -147 c 2
 801 -239 l 2
 801 -336.940066291 811.590785084 -422.834997617 904 -473 c 0
 937.333333333 -490.333333333 973 -499 1011 -499 c 0
 1036.31447602 -499 1145.66726054 -492.786475095 1190 -388 c 1
 1161.16787411 -397.010039339 1125.43054307 -398 1120 -398 c 0
 1014.98855102 -398 946 -309.289842032 946 -209 c 0
 946 -126.395417941 987.87966887 -53 1073 -53 c 0
 1143.52201618 -53 1254 -125.092901417 1254 -300 c 0
 1254 -354.815500039 1240.91394525 -476.229350896 1143 -551 c 1
 1166.02011303 -568.966917489 1228 -627.504258543 1228 -737 c 0
 1228 -858.662022654 1145.74099432 -979 1014 -979 c 0
 885.216125848 -979 807 -863.755920386 807 -747 c 0
 807 -709.877609512 815.337984759 -630.662015241 879 -567 c 1
 829.296190696 -538.224110403 800.840029628 -506.084777338 778 -451 c 1
 729.269904223 -597.190287332 632.872138956 -603 586 -603 c 0
 564.864498645 -603 504.555555556 -603 459 -562 c 1
 424.326482359 -584.19105129 383.491773241 -595 336 -595 c 0
 302.991467729 -595 171 -585.114231229 171 -427 c 0
 171 -351.221657594 212.20024243 -255 304 -255 c 256
 389.3012931 -255 417.952515899 -305.852271685 445 -390 c 0
 456.532626786 -421.302844132 465.32545101 -438.988176514 474 -452 c 1
 514.921070345 -411.078929655 516 -362.404894578 516 -344 c 0
222 -409 m 0
 222 -450.060906418 266.817613332 -496 349 -496 c 0
 373.666666667 -496 395 -492.666666667 413 -486 c 1
 407 -470 401.333333333 -454.166666667 396 -438.5 c 128
 370.503595292 -363.604311171 325.159558186 -355 290 -355 c 0
 262.251083268 -355 222 -375.884547005 222 -409 c 0
997 -189 m 0
 997 -230.103645511 1044.4147475 -299 1132 -299 c 0
 1142.67251117 -299 1159.44044398 -298.929281182 1200 -287 c 1
 1189.33149992 -220.321874475 1133.19574926 -153 1061 -153 c 0
 1041.1887789 -153 997 -163.676641888 997 -189 c 0
1012 -608 m 0
 941.786961138 -608 925 -654.712980726 925 -659 c 0
 925 -696.189711061 979.624972552 -722 1011 -722 c 0
 1033.73258978 -722 1092 -702.985863986 1092 -669 c 0
 1092 -638.73877493 1049.01577599 -611.365070545 1012 -608 c 0
1006 -822 m 0
 929.979023332 -822 880.587140176 -758.426392382 875 -683 c 1
 874.333333333 -684.333333333 873.333333333 -685.666666667 872 -687 c 0
 864.48636647 -700.774994805 858 -717.916027898 858 -736 c 0
 858 -819.186506677 944.821008459 -879 1019 -879 c 0
 1091.96508673 -879 1177 -824.941455517 1177 -747 c 0
 1177 -728.063246798 1171.91828353 -695.72567625 1143 -665 c 1
 1140.33529597 -742.276416908 1092.37913708 -822 1006 -822 c 0
EndSplineSet
Ligature2: "'dlig' Discretionary Ligatures in Latin lookup 3 subtable" A J U
EndChar

StartChar: A_J_u
Encoding: 65549 -1 79
Width: 1281
GlyphClass: 3
Flags: HW
LayerCount: 2
Fore
SplineSet
516 -344 m 0
 516 -232.955536326 433.22336019 -140 324 -140 c 0
 241.642178376 -140 141.564753104 -168.557543172 100 -260 c 0
 93.0331890332 -273.933621934 78 -304 78 -381 c 0
 78 -457.803963107 95 -526.624141468 95 -539 c 0
 95 -560.735868966 84.3209507635 -599 64 -599 c 0
 47.010059251 -599 42.2089507284 -567.089507284 41 -555 c 128
 40.9147789711 -554.147789711 34.2657765844 -507.657765844 30.5 -470 c 128
 28.1666666667 -446.666666667 27 -423.333333333 27 -400 c 0
 27 -287.267928803 55.7197188817 -137.44806917 194 -69.5 c 128
 232.666666667 -50.5 279 -41 333 -41 c 0
 488.464189478 -41 567 -188.952634295 567 -325 c 0
 567 -369.671402777 559.720924728 -435.13179212 525 -493 c 1
 544.333333333 -499.666666667 569.666666667 -503 601 -503 c 0
 726.030966788 -503 751 -409.939487168 751 -281 c 0
 751 -216.502838164 746 -198.497161836 746 -134 c 0
 746 -119.600213445 751.981539352 -67 777 -67 c 256
 797.076482264 -67 801 -111.914618157 801 -147 c 2
 801 -239 l 2
 801 -336.940066291 811.590785084 -422.834997617 904 -473 c 0
 937.333333333 -490.333333333 973 -499 1011 -499 c 0
 1036.31447602 -499 1145.66726054 -492.786475095 1190 -388 c 1
 1161.16787411 -397.010039339 1125.43054307 -398 1120 -398 c 0
 1014.98855102 -398 946 -309.289842032 946 -209 c 0
 946 -126.395417941 987.87966887 -53 1073 -53 c 0
 1143.52201618 -53 1254 -125.092901417 1254 -300 c 0
 1254 -355.609613055 1240.94406534 -475.376838069 1145 -550 c 1
 1170.33333333 -579.333333333 1183 -613.666666667 1183 -653 c 0
 1183 -735.799513419 1135.09592221 -831 1036 -831 c 0
 954.928997888 -831 903 -757.24896026 903 -681 c 0
 903 -657.060024564 906.861151751 -621.628710293 925 -587 c 1
 854.333333333 -564.333333333 805.333333333 -519 778 -451 c 1
 729.269904223 -597.190287332 632.872138956 -603 586 -603 c 0
 564.864498645 -603 504.555555556 -603 459 -562 c 1
 424.326482359 -584.19105129 383.491773241 -595 336 -595 c 0
 302.991467729 -595 171 -585.114231229 171 -427 c 0
 171 -351.221657594 212.20024243 -255 304 -255 c 256
 389.3012931 -255 417.952515899 -305.852271685 445 -390 c 0
 456.532626786 -421.302844132 465.32545101 -438.988176514 474 -452 c 1
 514.921070345 -411.078929655 516 -362.404894578 516 -344 c 0
997 -189 m 0
 997 -230.103645511 1044.4147475 -299 1132 -299 c 0
 1142.67251117 -299 1159.44044398 -298.929281182 1200 -287 c 1
 1189.33149992 -220.321874475 1133.19574926 -153 1061 -153 c 0
 1041.1887789 -153 997 -163.676641888 997 -189 c 0
222 -409 m 0
 222 -450.060906418 266.817613332 -496 349 -496 c 0
 373.666666667 -496 395 -492.666666667 413 -486 c 1
 407 -470 401.333333333 -454.166666667 396 -438.5 c 128
 370.503595292 -363.604311171 325.159558186 -355 290 -355 c 0
 262.251083268 -355 222 -375.884547005 222 -409 c 0
1132 -677 m 0
 1132 -649.00843331 1094.25581921 -605 1037 -605 c 0
 987.421570844 -605 954 -642.388742158 954 -657 c 0
 954 -688.58204356 993.305360046 -731 1049 -731 c 0
 1093.52520495 -731 1132 -699.900498987 1132 -677 c 0
EndSplineSet
Ligature2: "'dlig' Discretionary Ligatures in Latin lookup 3 subtable" A J u
EndChar

StartChar: A_K
Encoding: 65550 -1 80
Width: 808
GlyphClass: 3
Flags: HW
LayerCount: 2
Fore
SplineSet
523 -370 m 0
 523 -239.380515757 440.433858948 -148 303 -148 c 0
 259.301491783 -148 165.414658264 -157.439536383 105.5 -232 c 128
 90.5 -250.666666667 80.3333333333 -272.333333333 75 -297 c 1
 86.9518814159 -287.933055478 136.832966504 -254 214 -254 c 0
 271.333333333 -254 313.5 -271 340.5 -305 c 128
 367.5 -339 381 -383 381 -437 c 0
 381 -513.519962204 351.932040098 -601 219 -601 c 0
 77.7888856444 -601 20 -471.490930308 20 -355 c 0
 20 -181.291625749 127.95231006 -48 313 -48 c 0
 492.731781672 -48 574 -186.595030887 574 -351 c 0
 574 -387.829226401 569.681532488 -448.321859695 546 -502 c 1
 727 -502 l 1
 727 -255 l 2
 727 -254.109943822 726 -183.556722845 726 -166 c 128
 726 -90.3846153846 729.223069967 -84.1864039092 740.5 -62.5 c 128
 744.833333333 -54.1666666667 750.666666667 -50 758 -50 c 0
 778.688678944 -50 779 -89.5482257201 779 -90 c 2
 779 -542 l 2
 779 -563.735868966 768.320950764 -602 748 -602 c 2
 443 -602 l 2
 422.227514452 -602 422 -562.45177428 422 -562 c 0
 422 -555.525812508 423.160770779 -503.372248402 460.5 -500.5 c 128
 501.588069345 -497.339379281 523 -423.428799435 523 -370 c 0
330 -457 m 2
 330 -426.527512721 318.118957726 -354 205 -354 c 0
 171.721807815 -354 105.62676986 -368.935907126 80 -392 c 1
 89.8888964773 -423.41178881 120.561210803 -501 229 -501 c 0
 266.477071502 -501 306.899241202 -493.234260753 330 -465 c 1
 330 -457 l 2
EndSplineSet
Ligature2: "'dlig' Discretionary Ligatures in Latin lookup 3 subtable" A K
EndChar

StartChar: A_K_U
Encoding: 65551 -1 81
Width: 811
GlyphClass: 3
Flags: HW
LayerCount: 2
Fore
SplineSet
851 -733 m 0
 851 -851.192443632 772.767813183 -974 637 -974 c 0
 505.192877976 -974 431 -854.827421073 431 -742 c 0
 431 -690.666666667 444.333333333 -644 471 -602 c 1
 443 -602 l 2
 422.227514452 -602 422 -562.45177428 422 -562 c 0
 422 -555.525812508 423.160770779 -503.372248402 460.5 -500.5 c 128
 501.588069345 -497.339379281 523 -423.428799435 523 -370 c 0
 523 -239.380515757 440.433858948 -148 303 -148 c 0
 259.301491783 -148 165.414658264 -157.439536383 105.5 -232 c 128
 90.5 -250.666666667 80.3333333333 -272.333333333 75 -297 c 1
 86.9518814159 -287.933055478 136.832966504 -254 214 -254 c 0
 271.333333333 -254 313.5 -271 340.5 -305 c 128
 367.5 -339 381 -383 381 -437 c 0
 381 -513.519962204 351.932040098 -601 219 -601 c 0
 77.7888856444 -601 20 -471.490930308 20 -355 c 0
 20 -181.291625749 127.95231006 -48 313 -48 c 0
 492.731781672 -48 574 -186.595030887 574 -351 c 0
 574 -387.829226401 569.681532488 -448.321859695 546 -502 c 1
 727 -502 l 1
 727 -255 l 2
 727 -254.109943822 726 -183.556722845 726 -166 c 128
 726 -90.3846153846 729.223069967 -84.1864039092 740.5 -62.5 c 128
 744.833333333 -54.1666666667 750.666666667 -50 758 -50 c 0
 778.688678944 -50 779 -89.5482257201 779 -90 c 2
 779 -542 l 2
 779 -544.666666667 778.333333333 -549.333333333 777 -556 c 1
 799.121276867 -576.225167422 851 -634.195432732 851 -733 c 0
330 -457 m 2
 330 -426.527512721 318.118957726 -354 205 -354 c 0
 171.721807815 -354 105.62676986 -368.935907126 80 -392 c 1
 89.8888964773 -423.41178881 120.561210803 -501 229 -501 c 0
 266.477071502 -501 306.899241202 -493.234260753 330 -465 c 1
 330 -457 l 2
498 -678 m 1
 481.941520468 -710.116959064 481 -712 481 -731 c 0
 481 -815.922993732 570.317587502 -874 642 -874 c 0
 713.975621353 -874 801 -820.587832643 801 -743 c 0
 801 -721.376085099 794.605800399 -690.393662923 766 -660 c 1
 763.335295969 -737.276416908 715.379137076 -817 629 -817 c 0
 556.533838484 -817 503.980098549 -758.731330417 498 -678 c 1
635 -603 m 1
 564.786961138 -603 548 -649.712980726 548 -654 c 0
 548 -691.189711061 602.624972552 -717 634 -717 c 0
 687.80971784 -717 716 -676.857081738 716 -664 c 0
 716 -652.911230772 693.034134089 -608.275830372 635 -603 c 1
EndSplineSet
Ligature2: "'dlig' Discretionary Ligatures in Latin lookup 3 subtable" A K U
EndChar

StartChar: A_K_u
Encoding: 65552 -1 82
Width: 806
GlyphClass: 3
Flags: HW
LayerCount: 2
Fore
SplineSet
635 -829 m 0
 553.928997888 -829 502 -755.24896026 502 -679 c 0
 502 -652.333333333 506.666666667 -626.666666667 516 -602 c 1
 443 -602 l 2
 422.227514452 -602 422 -562.45177428 422 -562 c 0
 422 -555.525812508 423.160770779 -503.372248402 460.5 -500.5 c 128
 501.588069345 -497.339379281 523 -423.428799435 523 -370 c 0
 523 -239.380515757 440.433858948 -148 303 -148 c 0
 259.301491783 -148 165.414658264 -157.439536383 105.5 -232 c 128
 90.5 -250.666666667 80.3333333333 -272.333333333 75 -297 c 1
 86.9518814159 -287.933055478 136.832966504 -254 214 -254 c 0
 271.333333333 -254 313.5 -271 340.5 -305 c 128
 367.5 -339 381 -383 381 -437 c 0
 381 -513.519962204 351.932040098 -601 219 -601 c 0
 77.7888856444 -601 20 -471.490930308 20 -355 c 0
 20 -181.291625749 127.95231006 -48 313 -48 c 0
 492.731781672 -48 574 -186.595030887 574 -351 c 0
 574 -387.829226401 569.681532488 -448.321859695 546 -502 c 1
 727 -502 l 1
 727 -255 l 2
 727 -254.109943822 726 -183.556722845 726 -166 c 128
 726 -90.3846153846 729.223069967 -84.1864039092 740.5 -62.5 c 128
 744.833333333 -54.1666666667 750.666666667 -50 758 -50 c 0
 778.688678944 -50 779 -89.5482257201 779 -90 c 2
 779 -542 l 2
 779 -551.705321897 775.282736305 -568.977980129 768 -585 c 1
 777.333333333 -607 782 -629 782 -651 c 256
 782 -733.799513419 734.09592221 -829 635 -829 c 0
330 -457 m 2
 330 -426.527512721 318.118957726 -354 205 -354 c 0
 171.721807815 -354 105.62676986 -368.935907126 80 -392 c 1
 89.8888964773 -423.41178881 120.561210803 -501 229 -501 c 0
 266.477071502 -501 306.899241202 -493.234260753 330 -465 c 1
 330 -457 l 2
731 -675 m 0
 731 -643.60637734 690.883318694 -603 636 -603 c 0
 586.421570844 -603 553 -640.388742158 553 -655 c 0
 553 -682.685506704 589.61340389 -729 648 -729 c 0
 692.52520495 -729 731 -697.900498987 731 -675 c 0
EndSplineSet
Ligature2: "'dlig' Discretionary Ligatures in Latin lookup 3 subtable" A K u
EndChar

StartChar: A_L
Encoding: 65553 -1 83
Width: 541
GlyphClass: 3
Flags: HW
LayerCount: 2
Fore
SplineSet
270 -312 m 0
 249.227514452 -312 249 -272.45177428 249 -272 c 0
 249 -241.798762907 256.657146218 -213.723808964 297 -207 c 1
 327.647144697 -194.230356376 333.65476613 -189.34523387 340 -183 c 1
 316.794520548 -149.849315068 247.672666893 -141.209083362 222 -138 c 1
 219.153553394 -217.700504975 176.907415978 -340 90 -340 c 0
 28.0258918706 -340 -4 -277.321078516 -4 -222 c 0
 -4 -174.899403937 18.9961650624 -37 207 -37 c 0
 262.144289519 -37 396 -52.4421978926 396 -169 c 0
 396 -190.333333333 392.666666667 -209 386 -225 c 1
 412.449631926 -244.549727945 435 -278.881083268 435 -327 c 0
 435 -338.930324368 432.15326255 -431.172693285 344.5 -444 c 128
 330.833333333 -446 316.666666667 -447 302 -447 c 0
 272.365053294 -447 263.634946706 -445 234 -445 c 0
 190.550616181 -445 155.772625021 -450.198953107 140 -464 c 1
 140 -492.397695749 180.505414046 -504 229 -504 c 0
 258.634946706 -504 267.365053294 -502 297 -502 c 2
 502 -502 l 2
 522.688678944 -502 523 -541.54822572 523 -542 c 0
 523 -566.815850763 511.360430874 -602 492 -602 c 2
 282 -602 l 2
 254.110959248 -602 246.889040752 -603 219 -603 c 0
 109.354321459 -603 88 -549.348189872 88 -480 c 0
 88 -374.280689538 147.431046355 -345 246 -345 c 0
 275.637575361 -345 285.362424639 -348 315 -348 c 0
 328.148148148 -348 357.5 -348 377 -336 c 1
 374.361456204 -332.401985733 352.258287443 -304 312 -304 c 0
 305.333333333 -304 298.666666667 -304.666666667 292 -306 c 2
 280 -310 l 130
 276 -311.333333333 272.666666667 -312 270 -312 c 0
47 -203 m 1
 52.9848585022 -226.939434009 81.5163990679 -240 100 -240 c 0
 123.570858373 -240 166.681001441 -227.422975499 172 -137 c 1
 129.976902271 -141.669233081 64.4601169991 -156.439688002 47 -203 c 1
EndSplineSet
Ligature2: "'dlig' Discretionary Ligatures in Latin lookup 3 subtable" A L
EndChar

StartChar: A_L_U
Encoding: 65554 -1 84
Width: 558
GlyphClass: 3
Flags: HW
LayerCount: 2
Fore
SplineSet
618 -744 m 0
 618 -861.865081086 539.654454227 -986 405 -986 c 0
 272.828416758 -986 198 -867.791249182 198 -754 c 0
 198 -729.320526192 200.736776638 -664.583615112 245 -603 c 1
 144.661954225 -603 88 -589.215391937 88 -480 c 0
 88 -374.280689538 147.431046355 -345 246 -345 c 0
 275.637575361 -345 285.362424639 -348 315 -348 c 0
 328.148148148 -348 357.5 -348 377 -336 c 1
 374.361456204 -332.401985733 352.258287443 -304 312 -304 c 0
 305.333333333 -304 298.666666667 -304.666666667 292 -306 c 2
 280 -310 l 130
 276 -311.333333333 272.666666667 -312 270 -312 c 0
 249.227514452 -312 249 -272.45177428 249 -272 c 0
 249 -241.798762907 256.657146218 -213.723808964 297 -207 c 1
 327.647144697 -194.230356376 333.65476613 -189.34523387 340 -183 c 1
 316.794520548 -149.849315068 247.672666893 -141.209083362 222 -138 c 1
 219.153553394 -217.700504975 176.907415978 -340 90 -340 c 0
 28.0258918706 -340 -4 -277.321078516 -4 -222 c 0
 -4 -174.899403937 18.9961650624 -37 207 -37 c 0
 262.144289519 -37 396 -52.4421978926 396 -169 c 0
 396 -190.333333333 392.666666667 -209 386 -225 c 1
 412.449631926 -244.549727945 435 -278.881083268 435 -327 c 0
 435 -338.930324368 432.15326255 -431.172693285 344.5 -444 c 128
 330.833333333 -446 316.666666667 -447 302 -447 c 0
 272.365053294 -447 263.634946706 -445 234 -445 c 0
 190.550616181 -445 155.772625021 -450.198953107 140 -464 c 1
 140 -492.397695749 180.505414046 -504 229 -504 c 0
 258.634946706 -504 267.365053294 -502 297 -502 c 2
 502 -502 l 2
 522.688678944 -502 523 -541.54822572 523 -542 c 0
 523 -545.483881906 522 -545.516118094 522 -549 c 0
 548.016299072 -567.50047934 618 -628.040409062 618 -744 c 0
264 -692 m 128
 264 -693.697894088 248 -713.333355912 248 -743 c 0
 248 -827.922993732 337.317587502 -886 409 -886 c 0
 483.918193485 -886 568 -829.43613707 568 -754 c 0
 568 -735.684519292 562.840565069 -703.705600386 533 -672 c 1
 530.510632531 -744.191656588 486.915001083 -829 397 -829 c 0
 316.707919799 -829 270.330330248 -761.959458342 265 -690 c 1
 264.333333333 -690.666666667 264 -691.333333333 264 -692 c 128
402 -615 m 1
 339.5457398 -615 315 -655.135509038 315 -666 c 0
 315 -669.333333333 315.833333333 -672.666666667 317.5 -676 c 130
 322 -685 l 1
 340.776666953 -717.859167167 376.69781494 -729 401 -729 c 0
 458.412042861 -729 483 -685.881157064 483 -676 c 0
 483 -666.749011049 464.792415062 -620.460210005 402 -615 c 1
47 -203 m 1
 52.9848585022 -226.939434009 81.5163990679 -240 100 -240 c 0
 123.570858373 -240 166.681001441 -227.422975499 172 -137 c 1
 129.976902271 -141.669233081 64.4601169991 -156.439688002 47 -203 c 1
EndSplineSet
Ligature2: "'dlig' Discretionary Ligatures in Latin lookup 3 subtable" A L U
EndChar

StartChar: A_L_u
Encoding: 65555 -1 85
Width: 568
GlyphClass: 3
Flags: HW
LayerCount: 2
Fore
SplineSet
383 -831 m 0
 301.928997888 -831 250 -757.24896026 250 -681 c 0
 250 -653.666666667 255 -627.333333333 265 -602 c 1
 245.646563572 -602 239.742325317 -603 219 -603 c 0
 109.354321459 -603 88 -549.348189872 88 -480 c 0
 88 -374.280689538 147.431046355 -345 246 -345 c 0
 275.637575361 -345 285.362424639 -348 315 -348 c 0
 328.148148148 -348 357.5 -348 377 -336 c 1
 374.361456204 -332.401985733 352.258287443 -304 312 -304 c 0
 305.333333333 -304 298.666666667 -304.666666667 292 -306 c 2
 280 -310 l 130
 276 -311.333333333 272.666666667 -312 270 -312 c 0
 249.227514452 -312 249 -272.45177428 249 -272 c 0
 249 -241.798762907 256.657146218 -213.723808964 297 -207 c 1
 327.647144697 -194.230356376 333.65476613 -189.34523387 340 -183 c 1
 316.794520548 -149.849315068 247.672666893 -141.209083362 222 -138 c 1
 219.153553394 -217.700504975 176.907415978 -340 90 -340 c 0
 28.0258918706 -340 -4 -277.321078516 -4 -222 c 0
 -4 -174.899403937 18.9961650624 -37 207 -37 c 0
 262.144289519 -37 396 -52.4421978926 396 -169 c 0
 396 -190.333333333 392.666666667 -209 386 -225 c 1
 412.449631926 -244.549727945 435 -278.881083268 435 -327 c 0
 435 -338.930324368 432.15326255 -431.172693285 344.5 -444 c 128
 330.833333333 -446 316.666666667 -447 302 -447 c 0
 272.365053294 -447 263.634946706 -445 234 -445 c 0
 190.550616181 -445 155.772625021 -450.198953107 140 -464 c 1
 140 -492.397695749 180.505414046 -504 229 -504 c 0
 258.634946706 -504 267.365053294 -502 297 -502 c 2
 502 -502 l 2
 522.688678944 -502 523 -541.54822572 523 -542 c 0
 523 -543.542457335 522.83267194 -564.33465612 514 -582 c 1
 524.666666667 -605.333333333 530 -629 530 -653 c 0
 530 -735.799513419 482.09592221 -831 383 -831 c 0
47 -203 m 1
 52.9848585022 -226.939434009 81.5163990679 -240 100 -240 c 0
 123.570858373 -240 166.681001441 -227.422975499 172 -137 c 1
 129.976902271 -141.669233081 64.4601169991 -156.439688002 47 -203 c 1
479 -677 m 0
 479 -649.00843331 441.25581921 -605 384 -605 c 0
 334.421570844 -605 301 -642.388742158 301 -657 c 0
 301 -688.58204356 340.305360046 -731 396 -731 c 0
 440.52520495 -731 479 -699.900498987 479 -677 c 0
EndSplineSet
Ligature2: "'dlig' Discretionary Ligatures in Latin lookup 3 subtable" A L u
EndChar

StartChar: A_N
Encoding: 65556 -1 86
Width: 1179
GlyphClass: 3
Flags: HW
LayerCount: 2
Fore
SplineSet
474 -598 m 0
 453.144880913 -598 453 -558.110970834 453 -557 c 2
 453 -221 l 1
 435.776785952 -169.330357855 361.254974095 -151 319 -151 c 0
 226.128956865 -151 75 -207.901977668 75 -328 c 0
 75 -330.055482618 75.0961955644 -340.480977822 77 -350 c 1
 96.4713321229 -311.057335754 145.989948053 -237 241 -237 c 0
 326.194540891 -237 390 -309.391435328 390 -391 c 0
 390 -487.994721571 319.539066817 -599 215 -599 c 0
 82.2083025565 -599 24 -449.65173677 24 -348 c 0
 24 -166.816990636 163.918702879 -51 329 -51 c 0
 361.164039323 -51 441.080685807 -58.3290972911 484 -127 c 1
 504.195836216 -98.5762305109 549.247089546 -57 640 -57 c 0
 667.944949929 -57 746.47970345 -62.989542819 788 -127 c 1
 808.195836216 -98.5762305109 853.247089546 -57 944 -57 c 0
 1038.82596214 -57 1114 -111.90957285 1114 -206 c 2
 1114 -534 l 2
 1114 -557.6850915 1102.31616256 -593 1083 -593 c 256
 1065.53614606 -593 1062 -563.159974513 1062 -539 c 0
 1062 -534.72109381 1063 -252.890017301 1063 -250 c 0
 1063 -222.778483494 1063 -194.358974359 1008.5 -172 c 128
 1000.37860677 -168.668146366 969.215964251 -157 931 -157 c 0
 864.118819589 -157 817.241881663 -186.27435501 810 -208 c 1
 810 -516 l 2
 810 -522.47673202 809.328283488 -598 778 -598 c 0
 757.144880913 -598 757 -558.110970834 757 -557 c 2
 757 -221 l 1
 740.750809964 -172.252429891 666.448146056 -157 627 -157 c 0
 560.118819589 -157 513.241881663 -186.27435501 506 -208 c 1
 506 -516 l 2
 506 -522.47673202 505.328283488 -598 474 -598 c 0
339 -412 m 256
 339 -386.551374611 294.783438618 -337 230 -337 c 0
 228.463120044 -337 132.757451035 -338.727646896 104 -425 c 1
 119.929979117 -450.487966587 158.870517173 -500 221 -500 c 0
 298.790983651 -500 339 -435.336977221 339 -412 c 256
EndSplineSet
Ligature2: "'dlig' Discretionary Ligatures in Latin lookup 3 subtable" A N
EndChar

StartChar: A_P
Encoding: 65557 -1 87
Width: 1040
GlyphClass: 3
Flags: HW
LayerCount: 2
Fore
SplineSet
786 -499 m 2
 955.03862017 -499 958 -403.831666749 958 -332 c 2
 958 -320 l 1
 942.405818176 -339.896025086 887.402399812 -400 792 -400 c 0
 683.680361464 -400 637 -314.334486456 637 -205 c 0
 637 -99.0071968311 708.394868098 -44 803 -44 c 0
 955.516327684 -44 1002 -156.562795014 1002 -190 c 1
 1008.0866466 -226.519879607 1010 -265.275067589 1010 -313 c 0
 1010 -514.181895601 926.519096911 -599 776 -599 c 2
 298 -599 l 2
 277.144880913 -599 277 -559.110970834 277 -558 c 0
 277 -538.454423778 280.848786449 -522.89004849 299.5 -498.5 c 128
 335.514923815 -451.403561165 368 -361.286312567 368 -307 c 0
 368 -273.454187609 352.18380039 -197 208 -197 c 256
 175.553671248 -197 70 -204.849908115 70 -307 c 0
 70 -308.937059627 72.5928154623 -421.592815462 139 -488 c 128
 157.149692602 -506.149692602 165 -516.708093145 165 -540 c 0
 165 -563.6850915 153.316162564 -599 134 -599 c 256
 128.666666667 -599 123.5 -596 118.5 -590 c 128
 83.3114313065 -547.773717568 63.1390374332 -523.56684492 41 -461 c 128
 25.6666666667 -417.666666667 18 -374.333333333 18 -331 c 0
 18 -262.94071962 36.9715168127 -97 222 -97 c 0
 315.204012276 -97 419 -131.83308172 419 -287 c 0
 419 -339.128648698 408.106908778 -411.424411734 367 -499 c 1
 786 -499 l 2
689 -186 m 0
 689 -222.005409668 700.457050833 -301 801 -301 c 0
 806.208694806 -301 890.927903472 -300.007082428 940 -236 c 0
 943.98978119 -230.015328215 945.93379122 -229.132417561 949 -223 c 1
 921.70616308 -159.31438052 831.322309694 -143 793 -143 c 0
 722.697902289 -143 689 -178.684326243 689 -186 c 0
EndSplineSet
Ligature2: "'dlig' Discretionary Ligatures in Latin lookup 3 subtable" A P
EndChar

StartChar: A_P_U
Encoding: 65558 -1 88
Width: 1047
GlyphClass: 3
Flags: HW
LayerCount: 2
Fore
SplineSet
1044 -733 m 0
 1044 -850.865081086 965.654454227 -975 831 -975 c 0
 698.828416758 -975 624 -856.791249182 624 -743 c 0
 624 -711.095804434 630.096916551 -654.649779346 666 -599 c 1
 298 -599 l 2
 277.144880913 -599 277 -559.110970834 277 -558 c 0
 277 -538.454423778 280.848786449 -522.89004849 299.5 -498.5 c 128
 335.514923815 -451.403561165 368 -361.286312567 368 -307 c 0
 368 -273.454187609 352.18380039 -197 208 -197 c 256
 175.553671248 -197 70 -204.849908115 70 -307 c 0
 70 -308.937059627 72.5928154623 -421.592815462 139 -488 c 128
 157.149692602 -506.149692602 165 -516.708093145 165 -540 c 0
 165 -563.6850915 153.316162564 -599 134 -599 c 256
 128.666666667 -599 123.5 -596 118.5 -590 c 128
 83.3114313065 -547.773717568 63.1390374332 -523.56684492 41 -461 c 128
 25.6666666667 -417.666666667 18 -374.333333333 18 -331 c 0
 18 -262.94071962 36.9715168127 -97 222 -97 c 0
 315.204012276 -97 419 -131.83308172 419 -287 c 0
 419 -339.128648698 408.106908778 -411.424411734 367 -499 c 1
 786 -499 l 2
 955.03862017 -499 958 -403.831666749 958 -332 c 2
 958 -320 l 1
 942.405818176 -339.896025086 887.402399812 -400 792 -400 c 0
 683.680361464 -400 637 -314.334486456 637 -205 c 0
 637 -99.0071968311 708.394868098 -44 803 -44 c 0
 955.516327684 -44 1002 -156.562795014 1002 -190 c 1
 1008.0866466 -226.519879607 1010 -265.275067589 1010 -313 c 0
 1010 -348.487179487 1010 -467.388888889 945 -536 c 1
 966.96994026 -550.490811661 1044 -610.061894678 1044 -733 c 0
689 -186 m 0
 689 -222.005409668 700.457050833 -301 801 -301 c 0
 806.208694806 -301 890.927903472 -300.007082428 940 -236 c 0
 943.98978119 -230.015328215 945.93379122 -229.132417561 949 -223 c 1
 921.70616308 -159.31438052 831.322309694 -143 793 -143 c 0
 722.697902289 -143 689 -178.684326243 689 -186 c 0
690 -681 m 128
 690 -682.697894088 674 -702.333355912 674 -732 c 0
 674 -816.922993732 763.317587502 -875 835 -875 c 0
 909.918193485 -875 994 -818.43613707 994 -743 c 0
 994 -724.684519292 988.840565069 -692.705600386 959 -661 c 1
 956.510632531 -733.191656588 912.915001083 -818 823 -818 c 0
 742.707919799 -818 696.330330248 -750.959458342 691 -679 c 1
 690.333333333 -679.666666667 690 -680.333333333 690 -681 c 128
828 -604 m 1
 765.5457398 -604 741 -644.135509038 741 -655 c 0
 741 -658.333333333 741.833333333 -661.666666667 743.5 -665 c 130
 748 -674 l 1
 766.776666953 -706.859167167 802.69781494 -718 827 -718 c 0
 884.412042861 -718 909 -674.881157064 909 -665 c 0
 909 -655.749011049 890.792415062 -609.460210005 828 -604 c 1
EndSplineSet
Ligature2: "'dlig' Discretionary Ligatures in Latin lookup 3 subtable" A P U
EndChar

StartChar: A_P_u
Encoding: 65559 -1 89
Width: 1042
GlyphClass: 3
Flags: HW
LayerCount: 2
Fore
SplineSet
812 -828 m 0
 730.928997888 -828 679 -754.24896026 679 -678 c 0
 679 -649.333333333 684 -623 694 -599 c 1
 298 -599 l 2
 277.144880913 -599 277 -559.110970834 277 -558 c 0
 277 -538.454423778 280.848786449 -522.89004849 299.5 -498.5 c 128
 335.514923815 -451.403561165 368 -361.286312567 368 -307 c 0
 368 -273.454187609 352.18380039 -197 208 -197 c 256
 175.553671248 -197 70 -204.849908115 70 -307 c 0
 70 -308.937059627 72.5928154623 -421.592815462 139 -488 c 128
 157.149692602 -506.149692602 165 -516.708093145 165 -540 c 0
 165 -563.6850915 153.316162564 -599 134 -599 c 256
 128.666666667 -599 123.5 -596 118.5 -590 c 128
 83.3114313065 -547.773717568 63.1390374332 -523.56684492 41 -461 c 128
 25.6666666667 -417.666666667 18 -374.333333333 18 -331 c 0
 18 -262.94071962 36.9715168127 -97 222 -97 c 0
 315.204012276 -97 419 -131.83308172 419 -287 c 0
 419 -339.128648698 408.106908778 -411.424411734 367 -499 c 1
 786 -499 l 2
 955.03862017 -499 958 -403.831666749 958 -332 c 2
 958 -320 l 1
 942.405818176 -339.896025086 887.402399812 -400 792 -400 c 0
 683.680361464 -400 637 -314.334486456 637 -205 c 0
 637 -99.0071968311 708.394868098 -44 803 -44 c 0
 955.516327684 -44 1002 -156.562795014 1002 -190 c 1
 1008.0866466 -226.519879607 1010 -265.275067589 1010 -313 c 0
 1010 -357.254265288 1010 -486.893617021 927 -554 c 1
 931.976343233 -560.63512431 959 -596.871188713 959 -650 c 0
 959 -732.799513419 911.09592221 -828 812 -828 c 0
689 -186 m 0
 689 -222.005409668 700.457050833 -301 801 -301 c 0
 806.208694806 -301 890.927903472 -300.007082428 940 -236 c 0
 943.98978119 -230.015328215 945.93379122 -229.132417561 949 -223 c 1
 921.70616308 -159.31438052 831.322309694 -143 793 -143 c 0
 722.697902289 -143 689 -178.684326243 689 -186 c 0
908 -674 m 0
 908 -646.00843331 870.25581921 -602 813 -602 c 0
 763.421570844 -602 730 -639.388742158 730 -654 c 0
 730 -685.58204356 769.305360046 -728 825 -728 c 0
 869.52520495 -728 908 -696.900498987 908 -674 c 0
EndSplineSet
Ligature2: "'dlig' Discretionary Ligatures in Latin lookup 3 subtable" A P u
EndChar

StartChar: A_Q
Encoding: 65560 -1 90
Width: 567
GlyphClass: 3
Flags: HW
LayerCount: 2
Fore
SplineSet
283 -377 m 0
 250.705720663 -377 226 -352.292134922 226 -320 c 0
 226 -289.749248064 249.97526061 -264 283 -264 c 0
 313.981872138 -264 339 -289.018904944 339 -320 c 0
 339 -353.026249677 313.249227184 -377 283 -377 c 0
291 -46 m 0
 444.760630417 -46 537 -181.827209112 537 -315 c 0
 537 -458.115197028 436.852249391 -601 275 -601 c 0
 122.37161486 -601 30 -465.052099368 30 -333 c 0
 30 -181.001488499 134.820721244 -46 291 -46 c 0
278 -146 m 0
 184.440313369 -146 82 -215.411314109 82 -313 c 0
 82 -421.245211313 188.511476844 -501 288 -501 c 0
 376.171820693 -501 485 -436.27711217 485 -334 c 0
 485 -225.217566621 377.977481218 -146 278 -146 c 0
EndSplineSet
Ligature2: "'dlig' Discretionary Ligatures in Latin lookup 3 subtable" A Q
EndChar

StartChar: A_Q_U
Encoding: 65561 -1 91
Width: 570
GlyphClass: 3
Flags: HW
LayerCount: 2
Fore
SplineSet
291 -46 m 0
 444.760630417 -46 537 -181.827209112 537 -315 c 0
 537 -361.870980363 526.005323024 -460.372927912 443 -536 c 1
 468.637517046 -554.645466943 534 -613.417231313 534 -728 c 0
 534 -848.884503255 453.097261707 -969 321 -969 c 0
 194.273247245 -969 114 -857.19879388 114 -737 c 256
 114 -699.721706066 122.246422365 -636.13929383 169 -575 c 1
 89.1003386067 -535.050169303 30 -444.4805719 30 -333 c 0
 30 -181.001488499 134.820721244 -46 291 -46 c 0
278 -146 m 0
 184.440313369 -146 82 -215.411314109 82 -313 c 0
 82 -413.76356309 177.190436893 -501 290 -501 c 0
 300 -499 310.333333333 -498 321 -498 c 0
 398.628471838 -485.479278736 485 -425.744510792 485 -334 c 0
 485 -225.217566621 377.977481218 -146 278 -146 c 0
182 -674 m 1
 169.145589725 -686.854410275 164 -718.350780726 164 -727 c 0
 164 -808.091173 248.616999081 -870 326 -870 c 0
 397.873164132 -870 484 -814.647025362 484 -738 c 0
 484 -716.376085099 477.605800399 -685.393662923 449 -655 c 1
 446.510632531 -727.191656588 402.915001083 -812 313 -812 c 0
 232.373436385 -812 187.272428175 -745.177780362 182 -674 c 1
318 -712 m 0
 364.420713632 -712 399 -678.678304188 399 -659 c 0
 399 -625.035146837 344.74298756 -600.431180687 318 -598 c 0
 302.009572881 -599.99880339 296.092487176 -598.976878206 284 -602 c 0
 237.859284535 -618.478826952 231 -649.284947554 231 -650 c 256
 231 -667.024306737 261.912559321 -712 318 -712 c 0
283 -377 m 0
 250.705720663 -377 226 -352.292134922 226 -320 c 0
 226 -289.749248064 249.97526061 -264 283 -264 c 0
 313.981872138 -264 339 -289.018904944 339 -320 c 0
 339 -353.026249677 313.249227184 -377 283 -377 c 0
EndSplineSet
Ligature2: "'dlig' Discretionary Ligatures in Latin lookup 3 subtable" A Q U
EndChar

StartChar: A_Q_u
Encoding: 65562 -1 92
Width: 558
GlyphClass: 3
Flags: HW
LayerCount: 2
Fore
SplineSet
291 -46 m 0
 444.760630417 -46 537 -181.827209112 537 -315 c 0
 537 -409.561894443 495.31533226 -509.258344744 406 -564 c 1
 430 -593.333333333 442 -627 442 -665 c 0
 442 -747.799513419 394.09592221 -843 295 -843 c 0
 213.928997888 -843 162 -769.24896026 162 -693 c 256
 162 -670.862569692 165.668088742 -626.616711353 191 -585 c 1
 92.009285922 -547.544054133 30 -441.672830054 30 -333 c 0
 30 -181.001488499 134.820721244 -46 291 -46 c 0
278 -146 m 0
 184.440313369 -146 82 -215.411314109 82 -313 c 0
 82 -421.245211313 188.511476844 -501 288 -501 c 0
 376.171820693 -501 485 -436.27711217 485 -334 c 0
 485 -225.217566621 377.977481218 -146 278 -146 c 0
391 -689 m 0
 391 -661.00843331 353.25581921 -617 296 -617 c 0
 246.421570844 -617 213 -654.388742158 213 -669 c 0
 213 -700.58204356 252.305360046 -743 308 -743 c 0
 352.52520495 -743 391 -711.900498987 391 -689 c 0
283 -377 m 0
 250.705720663 -377 226 -352.292134922 226 -320 c 0
 226 -289.749248064 249.97526061 -264 283 -264 c 0
 313.981872138 -264 339 -289.018904944 339 -320 c 0
 339 -353.026249677 313.249227184 -377 283 -377 c 0
EndSplineSet
Ligature2: "'dlig' Discretionary Ligatures in Latin lookup 3 subtable" A Q u
EndChar

StartChar: A_R
Encoding: 65563 -1 93
Width: 578
GlyphClass: 3
Flags: HW
LayerCount: 2
Fore
SplineSet
125 551 m 0
 195.00206294 551 236 488.797789317 236 418 c 0
 236 403.838675214 236 357.615384615 212 317 c 1
 237.288677165 312.402058697 227.046660893 316.989630913 272 307 c 128
 278 305.666666667 284 304 290 302 c 0
 290.666666667 302.666666667 291.666666667 303 293 303 c 0
 301 305 301 305 352 314 c 1
 346.539621597 323.282643286 334 345.772046364 334 400 c 256
 334 467.440060508 375.487981252 551 454 551 c 0
 530.149251515 551 557 477.991957573 557 416 c 0
 557 289.56794581 498.881826947 249.464346909 420 230 c 0
 411.432527524 226.573011009 408.628128528 228.542709509 398 225 c 1
 404.666666667 209 408 187.666666667 408 161 c 0
 408 81.3913660456 363.142682454 -2 278 -2 c 0
 203.427277985 -2 162 68.3010650072 162 142 c 0
 162 174 167.333333333 200.666666667 178 222 c 1
 176.637924378 222 89.03619701 234.96380299 51.5 272.5 c 128
 21.5742598366 302.425740163 13 346.577411658 13 397 c 0
 13 454.245399109 39.9674291055 551 125 551 c 0
290 98 m 0
 316.027470795 98 357 116.213095294 357 143 c 0
 357 152.119489829 357 179.64516129 280 202 c 1
 219.857477426 186.964369357 213 165.821052531 213 164 c 0
 213 121.476434738 259.107522718 98 290 98 c 0
115 452 m 0
 111.168405811 452 65 451.247938656 65 415 c 0
 65 373.390455061 79.6293282597 360.14654234 99 350 c 1
 102.877469844 351.550987938 138.029223177 349.954763663 171.5 374.5 c 128
 182.218540097 382.360262738 185 387.653525522 185 398 c 0
 185 428.078900793 144.485787847 452 115 452 c 0
385 418 m 0
 385 366.135499577 456.550967277 352 469.5 352 c 128
 473.833333333 352 477.666666667 351.333333333 481 350 c 1
 505 364.4 505 374.57962963 505 382.5 c 130
 505 395 l 2
 505 434.349123166 472.123216399 452 445 452 c 0
 403.205002764 452 385 421.639241027 385 418 c 0
EndSplineSet
Ligature2: "'dlig' Discretionary Ligatures in Latin lookup 3 subtable" A R
EndChar

StartChar: A_R_R
Encoding: 65564 -1 94
Width: 624
GlyphClass: 3
Flags: HW
LayerCount: 2
Fore
SplineSet
444 -184 m 1
 503.397353258 -144.401764495 542 -67.330604439 542 25 c 0
 542 67.3576375771 532.894519047 174.932486395 446 237 c 1
 432.475061871 232.49168729 398.469382573 225.156460858 398 225 c 1
 404.666666667 209 408 187.666666667 408 161 c 0
 408 81.3913660456 363.142682454 -2 278 -2 c 0
 203.427277985 -2 162 68.3010650072 162 142 c 0
 162 174 167.333333333 200.666666667 178 222 c 1
 176.637924378 222 89.03619701 234.96380299 51.5 272.5 c 128
 21.5742598366 302.425740163 13 346.577411658 13 397 c 0
 13 454.245399109 39.9674291055 551 125 551 c 0
 195.00206294 551 236 488.797789317 236 418 c 0
 236 403.838675214 236 357.615384615 212 317 c 1
 237.288677165 312.402058697 227.046660893 316.989630913 272 307 c 128
 278 305.666666667 284 304 290 302 c 0
 290.666666667 302.666666667 291.666666667 303 293 303 c 0
 301 305 301 305 352 314 c 1
 346.539621597 323.282643286 334 345.772046364 334 400 c 256
 334 467.440060508 375.487981252 551 454 551 c 0
 530.149251515 551 557 477.991957573 557 416 c 0
 557 334.840156125 534.794145245 302.013267032 520 285 c 1
 549.422433493 246.524510048 594 167.942910134 594 45 c 0
 594 -100.281739543 519.223926977 -312 337 -312 c 0
 214.630270305 -312 207 -229.493690768 207 -189 c 0
 207 -137.408721909 234.290450619 -51 311 -51 c 0
 414.112132943 -51 443.085099704 -173.021196446 444 -184 c 1
290 98 m 0
 316.027470795 98 357 116.213095294 357 143 c 0
 357 152.119489829 357 179.64516129 280 202 c 1
 219.857477426 186.964369357 213 165.821052531 213 164 c 0
 213 121.476434738 259.107522718 98 290 98 c 0
115 452 m 0
 111.168405811 452 65 451.247938656 65 415 c 0
 65 373.390455061 79.6293282597 360.14654234 99 350 c 1
 102.877469844 351.550987938 138.029223177 349.954763663 171.5 374.5 c 128
 182.218540097 382.360262738 185 387.653525522 185 398 c 0
 185 428.078900793 144.485787847 452 115 452 c 0
385 418 m 0
 385 366.135499577 456.550967277 352 469.5 352 c 128
 473.833333333 352 477.666666667 351.333333333 481 350 c 1
 505 364.4 505 374.57962963 505 382.5 c 130
 505 395 l 2
 505 434.349123166 472.123216399 452 445 452 c 0
 403.205002764 452 385 421.639241027 385 418 c 0
296 -151 m 0
 288.114706196 -151 259 -158.810306777 259 -170 c 256
 259 -172.466405017 260.351035149 -212 347 -212 c 256
 361.666666667 -212 374.333333333 -210.666666667 385 -208 c 1
 369.309072085 -176.618144169 348.638637666 -151 296 -151 c 0
EndSplineSet
Ligature2: "'dlig' Discretionary Ligatures in Latin lookup 3 subtable" A R R
EndChar

StartChar: A_S
Encoding: 65565 -1 95
Width: 851
GlyphClass: 3
Flags: HW
LayerCount: 2
Fore
SplineSet
30 -320 m 256
 30 -186.481524494 101.006225907 -49 247 -49 c 0
 268.433044534 -49 269 -93.4991008085 269 -94 c 0
 269 -94.6561440391 266.712687837 -154.952114639 234 -149.5 c 128
 211.647522916 -145.774587153 81 -169.983212516 81 -311 c 0
 81 -402.873429554 144.232144158 -500 253 -500 c 0
 326.616245699 -500 353.285612489 -431.417954368 382 -326.5 c 128
 416.935304763 -198.85177106 437.725048294 -122.889246619 497.5 -74.5 c 128
 518.5 -57.5 544.666666667 -49 576 -49 c 0
 628.666666667 -49 672.333333333 -62.5 707 -89.5 c 128
 741.666666667 -116.5 767.666666667 -150.666666667 785 -192 c 0
 785 -196.711812804 811 -244.074511982 811 -329 c 0
 811 -440.176390566 757.219149713 -600 622 -600 c 0
 535.407510439 -600 505 -484.482244525 505 -416 c 0
 505 -351.615154683 524.592643014 -216.649699624 684 -184 c 1
 664.230717993 -169.387921995 626.675357054 -149 571 -149 c 0
 498.290803897 -149 468.396803563 -206.751987464 435.5 -322.5 c 128
 392.224774301 -474.764683014 376.900069396 -528.684941013 323 -574.5 c 128
 303 -591.5 278 -600 248 -600 c 0
 97.0535178456 -600 30 -447.422360861 30 -320 c 256
628 -500 m 0
 722.020066715 -500 760 -407.406667278 760 -339 c 0
 760 -317.666666667 757 -297.333333333 751 -278 c 1
 668.937551661 -278 598.237603291 -299.636673582 566 -362.5 c 128
 559.333333333 -375.5 556 -390 556 -406 c 0
 556 -443.642845378 578.38859119 -500 628 -500 c 0
EndSplineSet
Ligature2: "'dlig' Discretionary Ligatures in Latin lookup 3 subtable" A S
EndChar

StartChar: A_T
Encoding: 65566 -1 96
Width: 744
GlyphClass: 3
Flags: HW
LayerCount: 2
Fore
SplineSet
51 -599 m 2
 30.1448809131 -599 30 -559.110970834 30 -558 c 2
 30 -109 l 2
 30 -98.434790533 37.6477331087 -50 61 -50 c 256
 77.7696041351 -50 82 -74.8876258051 82 -100 c 2
 82 -499 l 1
 490 -499 l 2
 656.678883239 -499 662 -407.784216412 662 -332 c 2
 662 -320 l 1
 646.405818176 -339.896025086 591.402399812 -400 496 -400 c 0
 387.680361464 -400 341 -314.334486456 341 -205 c 0
 341 -99.0071968311 412.394868098 -44 507 -44 c 0
 659.516327684 -44 706 -156.562795014 706 -190 c 1
 712.086646601 -226.519879607 714 -265.275067589 714 -313 c 0
 714 -514.181895601 630.519096911 -599 480 -599 c 2
 51 -599 l 2
393 -186 m 0
 393 -222.005409668 404.457050833 -301 505 -301 c 0
 510.208694806 -301 594.927903472 -300.007082428 644 -236 c 0
 647.98978119 -230.015328215 649.93379122 -229.132417561 653 -223 c 1
 625.70616308 -159.31438052 535.322309694 -143 497 -143 c 0
 429.39922552 -143 393 -177.538414425 393 -186 c 0
EndSplineSet
Ligature2: "'dlig' Discretionary Ligatures in Latin lookup 3 subtable" A T
EndChar

StartChar: A_T_U
Encoding: 65567 -1 97
Width: 742
GlyphClass: 3
Flags: HW
LayerCount: 2
Fore
SplineSet
51 -599 m 2
 30.1448809131 -599 30 -559.110970834 30 -558 c 2
 30 -109 l 2
 30 -98.434790533 37.6477331087 -50 61 -50 c 256
 77.7696041351 -50 82 -74.8876258051 82 -100 c 2
 82 -499 l 1
 490 -499 l 2
 656.678883239 -499 662 -407.784216412 662 -332 c 2
 662 -320 l 1
 646.405818176 -339.896025086 591.402399812 -400 496 -400 c 0
 387.680361464 -400 341 -314.334486456 341 -205 c 0
 341 -99.0071968311 412.394868098 -44 507 -44 c 0
 659.516327684 -44 706 -156.562795014 706 -190 c 1
 712.086646601 -226.519879607 714 -265.275067589 714 -313 c 0
 714 -357.349349996 714 -492.980392157 623 -559 c 1
 644.62654802 -577.211829912 703 -636.169498871 703 -742 c 0
 703 -859.865081086 624.654454227 -984 490 -984 c 0
 357.828416758 -984 283 -865.791249182 283 -752 c 0
 283 -702.560792413 296.445769483 -646.40564069 332 -599 c 1
 51 -599 l 2
393 -186 m 0
 393 -222.005409668 404.457050833 -301 505 -301 c 0
 510.208694806 -301 594.927903472 -300.007082428 644 -236 c 0
 647.98978119 -230.015328215 649.93379122 -229.132417561 653 -223 c 1
 625.70616308 -159.31438052 535.322309694 -143 497 -143 c 0
 429.39922552 -143 393 -177.538414425 393 -186 c 0
349 -690 m 128
 349 -691.697894088 333 -711.333355912 333 -741 c 0
 333 -825.922993732 422.317587502 -884 494 -884 c 0
 568.918193485 -884 653 -827.43613707 653 -752 c 0
 653 -733.684519292 647.840565069 -701.705600386 618 -670 c 1
 615.510632531 -742.191656588 571.915001083 -827 482 -827 c 0
 401.707919799 -827 355.330330248 -759.959458342 350 -688 c 1
 349.333333333 -688.666666667 349 -689.333333333 349 -690 c 128
487 -613 m 1
 424.5457398 -613 400 -653.135509038 400 -664 c 0
 400 -667.333333333 400.833333333 -670.666666667 402.5 -674 c 130
 407 -683 l 1
 425.776666953 -715.859167167 461.69781494 -727 486 -727 c 0
 543.412042861 -727 568 -683.881157064 568 -674 c 0
 568 -664.749011049 549.792415062 -618.460210005 487 -613 c 1
EndSplineSet
Ligature2: "'dlig' Discretionary Ligatures in Latin lookup 3 subtable" A T U
EndChar

StartChar: A_T_u
Encoding: 65568 -1 98
Width: 739
GlyphClass: 3
Flags: HW
LayerCount: 2
Fore
SplineSet
51 -599 m 2
 30.1448809131 -599 30 -559.110970834 30 -558 c 2
 30 -109 l 2
 30 -98.434790533 37.6477331087 -50 61 -50 c 256
 77.7696041351 -50 82 -74.8876258051 82 -100 c 2
 82 -499 l 1
 490 -499 l 2
 656.678883239 -499 662 -407.784216412 662 -332 c 2
 662 -320 l 1
 646.405818176 -339.896025086 591.402399812 -400 496 -400 c 0
 387.680361464 -400 341 -314.334486456 341 -205 c 0
 341 -99.0071968311 412.394868098 -44 507 -44 c 0
 659.516327684 -44 706 -156.562795014 706 -190 c 1
 712.086646601 -226.519879607 714 -265.275067589 714 -313 c 0
 714 -370.70922837 709.841800868 -518.579099566 601 -573 c 1
 613.252544028 -594.163485139 625 -623.463794974 625 -658 c 0
 625 -740.799513419 577.09592221 -836 478 -836 c 0
 396.928997888 -836 345 -762.24896026 345 -686 c 0
 345 -661.707659982 348.79100547 -630.575543399 363 -599 c 1
 51 -599 l 2
393 -186 m 0
 393 -222.005409668 404.457050833 -301 505 -301 c 0
 510.208694806 -301 594.927903472 -300.007082428 644 -236 c 0
 647.98978119 -230.015328215 649.93379122 -229.132417561 653 -223 c 1
 625.70616308 -159.31438052 535.322309694 -143 497 -143 c 0
 429.39922552 -143 393 -177.538414425 393 -186 c 0
574 -682 m 0
 574 -654.00843331 536.25581921 -610 479 -610 c 0
 429.421570844 -610 396 -647.388742158 396 -662 c 0
 396 -693.58204356 435.305360046 -736 491 -736 c 0
 535.52520495 -736 574 -704.900498987 574 -682 c 0
EndSplineSet
Ligature2: "'dlig' Discretionary Ligatures in Latin lookup 3 subtable" A T u
EndChar

StartChar: A_U
Encoding: 65569 -1 99
Width: 739
GlyphClass: 3
Flags: HW
LayerCount: 2
Fore
SplineSet
667 -179 m 0
 667 -296.865081086 588.654454227 -421 454 -421 c 0
 321.828416758 -421 247 -302.791249182 247 -189 c 0
 247 -155.275278164 254.196047952 -69.0370658228 322 -5 c 1
 153 -5 l 2
 142.925843775 -5 116.554830465 7.37622358997 107 23.5 c 128
 101.666666667 32.5 99 45.3333333333 99 62 c 0
 99 106.571428571 119.591880342 123.241045991 154.5 151.5 c 128
 174.120434517 167.383208895 228.474303212 216.518265685 254 291.5 c 128
 259.333333333 307.166666667 262 322 262 336 c 0
 262 357.576448353 253.700195693 406.506164384 184 437 c 1
 184 356.977549723 132.108149908 249 36 249 c 0
 -30.7999190526 249 -60 342.420508067 -60 391 c 0
 -60 494.601548215 19.6365003132 553 116 553 c 0
 234.236587316 553 312 463.733492784 312 347 c 0
 312 304.899169233 301.854588382 195.783000156 207 95 c 1
 694 95 l 2
 716.677681677 95 717 50.5053711507 717 50 c 0
 717 44.9490113215 713.371369926 -5 690 -5 c 2
 596 -5 l 1
 619.199044476 -26.834394801 667 -83.4246844967 667 -179 c 0
319 -118 m 1
 309.195123041 -132.707315438 297 -151.616023846 297 -178 c 0
 297 -262.922993732 386.317587502 -321 458 -321 c 0
 532.918193485 -321 617 -264.43613707 617 -189 c 0
 617 -179.253968254 617 -148.428571429 587 -112 c 1
 581.289577866 -194.801120946 529.992047315 -264 451 -264 c 0
 377.998774812 -264 322.066515625 -203.86243749 319 -118 c 1
454 -50 m 2
 394.259673611 -50 369 -89.8814186306 369 -101 c 0
 369 -104.333333333 369.833333333 -107.666666667 371.5 -111 c 130
 376 -120 l 1
 394.776666953 -152.859167167 430.69781494 -164 455 -164 c 0
 512.412042861 -164 537 -120.881157064 537 -111 c 0
 537 -97.5813434639 512.38326924 -55.0348426582 457 -50 c 1
 454 -50 l 2
41 349 m 0
 95.7081971284 349 134 404.070742032 134 424 c 0
 134 431.372900131 133.094489667 436.811020665 125 453 c 1
 119.590515353 453 117.798373536 454 111 454 c 0
 67.5369549316 454 4.34006812426 434.850170311 -10 399 c 0
 -9.83641716391 398.304772947 2.5280815735 349 41 349 c 0
EndSplineSet
Ligature2: "'dlig' Discretionary Ligatures in Latin lookup 3 subtable" A U
EndChar

StartChar: A_W
Encoding: 65570 -1 100
Width: 1088
GlyphClass: 3
Flags: HW
LayerCount: 2
Fore
SplineSet
173 -137 m 0
 88.2825383888 -137 82 -247.283435688 82 -280 c 0
 82 -318.085325902 88.4709141024 -410.318722473 146 -478 c 0
 151.333333333 -484.666666667 157 -490.333333333 163 -495 c 128
 184.494347357 -511.717825722 194 -519.230519171 194 -548 c 0
 194 -571.6850915 182.316162564 -607 163 -607 c 0
 143.976461586 -607 30 -507.955361823 30 -299 c 0
 30 -211.368056342 61.9459140647 -38 185 -38 c 0
 216.288447599 -38 306.088540185 -50.0624822184 317.5 -187 c 128
 319.166666667 -207 320 -226.333333333 320 -245 c 256
 320 -293.807915742 317 -307.192084258 317 -356 c 0
 317 -399.81547619 317 -495 429 -495 c 0
 564.523151916 -495 574 -253.518373002 574 -186 c 2
 574 -131 l 2
 574 -101.568118979 581.191456181 -53 606 -53 c 0
 626.855119087 -53 627 -92.8890291657 627 -94 c 2
 627 -120 l 130
 627 -129.333333333 626.666666667 -139.666666667 626 -151 c 0
 628.519820751 -289.590141316 642.938746147 -497 827 -497 c 0
 951.673119452 -497 982.658222915 -414.606945071 994 -377 c 1
 970 -385 945.333333333 -389 920 -389 c 0
 819.220890253 -389 770 -301.240840011 770 -212 c 0
 770 -136.538035542 810.28461402 -39 898 -39 c 0
 1032.05664426 -39 1058 -200.047779497 1058 -282 c 0
 1058 -342.435635661 1046.09258331 -448.064354547 973.5 -530.5 c 128
 958.491828943 -547.543177302 915.820895522 -596 814 -596 c 0
 705.740513882 -596 635.492573455 -531.153462283 598 -388 c 1
 575.33020142 -483.213154038 525.792071816 -594 418 -594 c 0
 349.234621888 -594 266 -564.437051902 266 -375 c 0
 266 -326.192200507 268 -312.807799493 268 -264 c 0
 268 -214.750441313 265.234377015 -167.993056451 218 -147 c 0
 204.666666667 -140.333333333 189.666666667 -137 173 -137 c 0
821 -193 m 0
 821 -254.206184913 879.789775675 -290 930 -290 c 256
 939.667364301 -290 966.726126182 -289.884284263 1005 -275 c 1
 1000.20497708 -215.062213499 971.768766468 -138 888 -138 c 0
 856.659123447 -138 821 -157.361524165 821 -193 c 0
EndSplineSet
Ligature2: "'dlig' Discretionary Ligatures in Latin lookup 3 subtable" A W
EndChar

StartChar: A_W_U
Encoding: 65571 -1 101
Width: 1090
GlyphClass: 3
Flags: HW
LayerCount: 2
Fore
SplineSet
173 -137 m 0
 88.2825383888 -137 82 -247.283435688 82 -280 c 0
 82 -318.085325902 88.4709141024 -410.318722473 146 -478 c 0
 151.333333333 -484.666666667 157 -490.333333333 163 -495 c 128
 184.494347357 -511.717825722 194 -519.230519171 194 -548 c 0
 194 -571.6850915 182.316162564 -607 163 -607 c 0
 143.976461586 -607 30 -507.955361823 30 -299 c 0
 30 -211.368056342 61.9459140647 -38 185 -38 c 0
 216.288447599 -38 306.088540185 -50.0624822184 317.5 -187 c 128
 319.166666667 -207 320 -226.333333333 320 -245 c 256
 320 -293.807915742 317 -307.192084258 317 -356 c 0
 317 -399.81547619 317 -495 429 -495 c 0
 564.523151916 -495 574 -253.518373002 574 -186 c 2
 574 -131 l 2
 574 -101.568118979 581.191456181 -53 606 -53 c 0
 626.855119087 -53 627 -92.8890291657 627 -94 c 2
 627 -120 l 130
 627 -129.333333333 626.666666667 -139.666666667 626 -151 c 0
 628.519820751 -289.590141316 642.938746147 -497 827 -497 c 0
 951.673119452 -497 982.658222915 -414.606945071 994 -377 c 1
 970 -385 945.333333333 -389 920 -389 c 0
 819.220890253 -389 770 -301.240840011 770 -212 c 0
 770 -136.538035542 810.28461402 -39 898 -39 c 0
 1032.05664426 -39 1058 -200.047779497 1058 -282 c 0
 1058 -320.15919435 1051.39737548 -459.710114943 959 -545 c 1
 978.662994867 -556.18091865 1067 -613.821360797 1067 -747 c 0
 1067 -864.865081086 988.654454227 -989 854 -989 c 0
 721.828416758 -989 647 -870.791249182 647 -757 c 0
 647 -724.288164658 653.895814793 -639.215494201 720 -575 c 1
 699.02907425 -564.09511861 632.838345865 -529.67593985 598 -388 c 1
 575.33020142 -483.213154038 525.792071816 -594 418 -594 c 0
 349.234621888 -594 266 -564.437051902 266 -375 c 0
 266 -326.192200507 268 -312.807799493 268 -264 c 0
 268 -214.750441313 265.234377015 -167.993056451 218 -147 c 0
 204.666666667 -140.333333333 189.666666667 -137 173 -137 c 0
713 -695 m 128
 713 -696.697894088 697 -716.333355912 697 -746 c 0
 697 -830.922993732 786.317587502 -889 858 -889 c 0
 932.918193485 -889 1017 -832.43613707 1017 -757 c 0
 1017 -738.684519292 1011.84056507 -706.705600386 982 -675 c 1
 979.510632531 -747.191656588 935.915001083 -832 846 -832 c 0
 765.707919799 -832 719.330330248 -764.959458342 714 -693 c 1
 713.333333333 -693.666666667 713 -694.333333333 713 -695 c 128
821 -193 m 0
 821 -254.206184913 879.789775675 -290 930 -290 c 256
 939.667364301 -290 966.726126182 -289.884284263 1005 -275 c 1
 1000.20497708 -215.062213499 971.768766468 -138 888 -138 c 0
 856.659123447 -138 821 -157.361524165 821 -193 c 0
851 -618 m 1
 788.5457398 -618 764 -658.135509038 764 -669 c 0
 764 -672.333333333 764.833333333 -675.666666667 766.5 -679 c 130
 771 -688 l 1
 789.776666953 -720.859167167 825.69781494 -732 850 -732 c 0
 907.412042861 -732 932 -688.881157064 932 -679 c 0
 932 -669.749011049 913.792415062 -623.460210005 851 -618 c 1
EndSplineSet
Ligature2: "'dlig' Discretionary Ligatures in Latin lookup 3 subtable" A W U
EndChar

StartChar: A_W_u
Encoding: 65572 -1 102
Width: 1092
GlyphClass: 3
Flags: HW
LayerCount: 2
Fore
SplineSet
173 -137 m 0
 88.2825383888 -137 82 -247.283435688 82 -280 c 0
 82 -318.085325902 88.4709141024 -410.318722473 146 -478 c 0
 151.333333333 -484.666666667 157 -490.333333333 163 -495 c 128
 184.494347357 -511.717825722 194 -519.230519171 194 -548 c 0
 194 -571.6850915 182.316162564 -607 163 -607 c 0
 143.976461586 -607 30 -507.955361823 30 -299 c 0
 30 -211.368056342 61.9459140647 -38 185 -38 c 0
 216.288447599 -38 306.088540185 -50.0624822184 317.5 -187 c 128
 319.166666667 -207 320 -226.333333333 320 -245 c 256
 320 -293.807915742 317 -307.192084258 317 -356 c 0
 317 -399.81547619 317 -495 429 -495 c 0
 564.523151916 -495 574 -253.518373002 574 -186 c 2
 574 -131 l 2
 574 -101.568118979 581.191456181 -53 606 -53 c 0
 626.855119087 -53 627 -92.8890291657 627 -94 c 2
 627 -120 l 130
 627 -129.333333333 626.666666667 -139.666666667 626 -151 c 0
 628.519820751 -289.590141316 642.938746147 -497 827 -497 c 0
 951.673119452 -497 982.658222915 -414.606945071 994 -377 c 1
 970 -385 945.333333333 -389 920 -389 c 0
 819.220890253 -389 770 -301.240840011 770 -212 c 0
 770 -136.538035542 810.28461402 -39 898 -39 c 0
 1032.05664426 -39 1058 -200.047779497 1058 -282 c 0
 1058 -375.657568184 1024.23125377 -502.028513036 937 -562 c 1
 956.333333333 -588.666666667 966 -619.333333333 966 -654 c 0
 966 -736.799513419 918.09592221 -832 819 -832 c 0
 737.928997888 -832 686 -758.24896026 686 -682 c 256
 686 -659.625635166 689.630674441 -613.432965857 716 -573 c 1
 674.833983851 -550.227310215 624.515486089 -499.743834234 598 -388 c 1
 575.33020142 -483.213154038 525.792071816 -594 418 -594 c 0
 349.234621888 -594 266 -564.437051902 266 -375 c 0
 266 -326.192200507 268 -312.807799493 268 -264 c 0
 268 -214.750441313 265.234377015 -167.993056451 218 -147 c 0
 204.666666667 -140.333333333 189.666666667 -137 173 -137 c 0
821 -193 m 0
 821 -254.206184913 879.789775675 -290 930 -290 c 256
 939.667364301 -290 966.726126182 -289.884284263 1005 -275 c 1
 1000.20497708 -215.062213499 971.768766468 -138 888 -138 c 0
 856.659123447 -138 821 -157.361524165 821 -193 c 0
915 -678 m 0
 915 -650.00843331 877.25581921 -606 820 -606 c 0
 770.421570844 -606 737 -643.388742158 737 -658 c 0
 737 -689.58204356 776.305360046 -732 832 -732 c 0
 876.52520495 -732 915 -700.900498987 915 -678 c 0
EndSplineSet
Ligature2: "'dlig' Discretionary Ligatures in Latin lookup 3 subtable" A W u
EndChar

StartChar: A_Y
Encoding: 65573 -1 103
Width: 1025
GlyphClass: 3
Flags: HW
LayerCount: 2
Fore
SplineSet
458 389 m 0
 458 391.970832668 457.315038943 402.141601761 449 416 c 1
 411.666666667 414.666666667 375 418.333333333 339 427 c 128
 303 435.666666667 266.666666667 443 230 449 c 1
 234.846957472 432.035648847 237 415.096666845 237 397 c 0
 237 359.367423434 227.127151523 263 126 263 c 0
 97.6879202349 263 41.7674418605 263 24 358.5 c 128
 21.3333333333 372.833333333 20 386 20 398 c 0
 20 475.2552574 61.3767838238 555 160 555 c 0
 172.202653947 555 175.797346053 554 188 554 c 0
 273.192635569 551.418404983 352.784068846 515 444 515 c 0
 452.722365549 515 458.277634451 516 467 516 c 0
 497.182635717 513.256124026 509 426.95646467 509 407 c 0
 509 385.203513836 504.058094004 329.935236701 459 279 c 1
 483.609418436 264.020353995 499 236.756898741 499 192 c 0
 499 75.9831379048 386.89522045 -2 364 -2 c 256
 343.144880913 -2 343 37.8890291655 343 39 c 0
 343 55.1649597544 346.877916874 90.0278274549 379 101.5 c 128
 393.646719652 106.730971304 433.762791541 139.852493743 447 172 c 1
 438.342766459 187.871594824 416.963679075 197.869088062 370 201 c 128
 336.958496565 203.202766896 332.427184466 203.504854369 328 219 c 128
 325.333333333 228.333333333 324 236.666666667 324 244 c 0
 324 247.449357783 324.514452273 288.757226137 349 301 c 0
 409.702037557 332.397605633 433.52972769 347.847564304 455.5 383 c 128
 457.166666667 385.666666667 458 387.666666667 458 389 c 0
1007 410 m 0
 1007 286.210313044 943.7159174 144 807 144 c 2
 803 144 l 1
 803 86 l 1
 803 35 l 129
 800.519663197 2.75562155817 784.890168004 -19 772 -19 c 0
 751.144880913 -19 751 20.889029166 751 22 c 2
 751 186 l 2
 751 196.565209467 758.647733109 245 782 245 c 0
 794.197414006 245 795.802585994 243 808 243 c 0
 901.60955302 243 955 302.773551679 955 390 c 0
 955 439.567844194 907.96321943 460 876 460 c 0
 855.914418421 460 805.107551969 454.265450396 798.5 397 c 128
 793.8724049 356.894175801 793.553191489 354.127659574 776 339.5 c 128
 774 337.833333333 771.333333333 337 768 337 c 0
 753.967469551 337 752.650093681 342.979362967 747.5 378 c 128
 742.386978691 412.768544902 723.559469301 460 659 460 c 0
 634.147018108 460 587.82671349 444.426011143 590.5 407 c 128
 591.531510255 392.558856431 580.104160127 351 560 351 c 256
 539.144880913 351 539 390.889029166 539 392 c 0
 539 470.564332164 580.248063773 560 672 560 c 0
 684.645408618 560 742.534070534 556.469497157 777 494 c 1
 789.1139457 513.516912517 824.523565025 560 887 560 c 0
 966.585142126 560 1007 489.152488169 1007 410 c 0
148 456 m 1
 123.836661448 456 71 444.347494351 71 416 c 0
 71 415.920639347 71.0195606196 365.856211399 120.5 363.5 c 128
 127.5 363.166666667 133.666666667 363 139 363 c 0
 146.255639429 363 171.95596493 363.95596493 185 377 c 1
 186.725413613 399.430376971 167.475687994 435.524312006 154.5 448.5 c 128
 152.166666667 450.833333333 150 453.333333333 148 456 c 1
EndSplineSet
Ligature2: "'dlig' Discretionary Ligatures in Latin lookup 3 subtable" A Y
EndChar

StartChar: A_Z
Encoding: 65574 -1 104
Width: 914
GlyphClass: 3
Flags: HW
LayerCount: 2
Fore
SplineSet
832 -314 m 1
 829.254868553 -256.352239605 753.338261953 -155 661 -155 c 0
 570.766989723 -155 488.304781543 -251.137943039 478 -331 c 0
 478 -343.024257553 479 -345.364631336 479 -356 c 0
 479 -371.134748594 469.763008955 -417 446 -417 c 0
 434.864129493 -417 425 -404.55786235 425 -367 c 2
 425 -366 l 1
 423.666666667 -358.666666667 422.666666667 -351.5 422 -344.5 c 128
 416.85840641 -290.5132673 340.981395439 -153 228 -153 c 0
 160.612822483 -153 71 -232.496083638 71 -297 c 0
 71 -312.333333333 75.3333333333 -328.666666667 84 -346 c 1
 104.699425735 -278.72686636 140.821780009 -230 226 -230 c 0
 307.733616869 -230 354 -307.671702907 354 -387 c 0
 354 -458.60194923 317.714258899 -543 229 -543 c 0
 111.134826136 -543 20 -430.386703236 20 -316 c 0
 20 -176.100389425 138.761931126 -54 238 -54 c 0
 334.171165871 -54 415.561864789 -138.730509458 453 -235 c 1
 498.011495558 -126.972410661 583.115492853 -55 674 -55 c 0
 773.010348549 -55 884 -168.972285766 884 -300 c 0
 884 -333.333333333 877.333333333 -366 864 -398 c 1
 870.131306678 -422.525226713 872 -447.572116796 872 -478 c 0
 872 -592.469918181 816.157683455 -765 680 -765 c 0
 673.016260163 -765 654 -765 654 -724 c 0
 654 -713.434790533 661.647733109 -665 685 -665 c 0
 779.562743589 -665 821 -578.332200973 821 -497 c 0
 821 -488.558858984 820.471965433 -480.775723465 819 -469 c 1
 805.190261334 -484.782558476 746.378253296 -546 665 -546 c 0
 597.750303617 -546 550 -496.861074336 550 -409 c 0
 550 -324.014005945 600.631699361 -232 691 -232 c 0
 721.458293689 -232 787.883557315 -241.11196426 832 -314 c 1
602 -391 m 0
 602 -427.470553423 643.44016804 -446 675 -446 c 0
 710.803610791 -446 759.02420532 -425.257731106 793 -394 c 1
 777.891049544 -369.114669837 744.252055286 -332 678 -332 c 0
 650.264086184 -332 602 -354.250793094 602 -391 c 0
303 -407 m 0
 303 -364.792493791 256.626406112 -330 216 -330 c 0
 158.676426278 -330 137.30170845 -347.113849579 124 -395 c 1
 143.810993688 -411.763148505 188.477527956 -444 239 -444 c 0
 256.960117179 -444 303 -434.77383098 303 -407 c 0
EndSplineSet
Ligature2: "'dlig' Discretionary Ligatures in Latin lookup 3 subtable" A Z
EndChar

StartChar: A_Z_U
Encoding: 65575 -1 105
Width: 923
GlyphClass: 3
Flags: HW
LayerCount: 2
Fore
SplineSet
929 -892 m 0
 929 -1009.86508109 850.654454227 -1134 716 -1134 c 0
 583.828416758 -1134 509 -1015.79124918 509 -902 c 0
 509 -792.284653821 576.770995196 -690.899001109 676 -668 c 0
 678 -666 681 -665 685 -665 c 2
 688 -665 l 2
 689.830376442 -664.633924712 698.658490104 -663 710 -663 c 0
 785.514118005 -649.980324482 821 -572.769248754 821 -497 c 0
 821 -488.558858984 820.471965433 -480.775723465 819 -469 c 1
 805.190261334 -484.782558476 746.378253296 -546 665 -546 c 0
 597.750303617 -546 550 -496.861074336 550 -409 c 0
 550 -324.014005945 600.631699361 -232 691 -232 c 0
 721.458293689 -232 787.883557315 -241.11196426 832 -314 c 1
 829.254868553 -256.352239605 753.338261953 -155 661 -155 c 0
 570.766989723 -155 488.304781543 -251.137943039 478 -331 c 0
 478 -343.024257553 479 -345.364631336 479 -356 c 0
 479 -371.134748594 469.763008955 -417 446 -417 c 0
 434.864129493 -417 425 -404.55786235 425 -367 c 2
 425 -366 l 1
 423.666666667 -358.666666667 422.666666667 -351.5 422 -344.5 c 128
 416.85840641 -290.5132673 340.981395439 -153 228 -153 c 0
 160.612822483 -153 71 -232.496083638 71 -297 c 0
 71 -312.333333333 75.3333333333 -328.666666667 84 -346 c 1
 104.699425735 -278.72686636 140.821780009 -230 226 -230 c 0
 307.733616869 -230 354 -307.671702907 354 -387 c 0
 354 -458.60194923 317.714258899 -543 229 -543 c 0
 111.134826136 -543 20 -430.386703236 20 -316 c 0
 20 -176.100389425 138.761931126 -54 238 -54 c 0
 334.171165871 -54 415.561864789 -138.730509458 453 -235 c 1
 498.011495558 -126.972410661 583.115492853 -55 674 -55 c 0
 773.010348549 -55 884 -168.972285766 884 -300 c 0
 884 -333.333333333 877.333333333 -366 864 -398 c 1
 870.131306678 -422.525226713 872 -447.572116796 872 -478 c 0
 872 -528.715339918 858.96525757 -617.053271725 814 -686 c 1
 838.003520569 -698.890779565 929 -756.682768623 929 -892 c 0
576 -838 m 1
 576 -840.940135032 559 -860.06966889 559 -891 c 0
 559 -975.922993732 648.317587502 -1034 720 -1034 c 0
 794.918193485 -1034 879 -977.43613707 879 -902 c 0
 879 -883.684519292 873.840565069 -851.705600386 844 -820 c 1
 841.510632531 -892.191656588 797.915001083 -977 708 -977 c 0
 627.707919799 -977 581.330330248 -909.959458342 576 -838 c 1
602 -391 m 0
 602 -427.470553423 643.44016804 -446 675 -446 c 0
 710.803610791 -446 759.02420532 -425.257731106 793 -394 c 1
 777.891049544 -369.114669837 744.252055286 -332 678 -332 c 0
 650.264086184 -332 602 -354.250793094 602 -391 c 0
303 -407 m 0
 303 -364.792493791 256.626406112 -330 216 -330 c 0
 158.676426278 -330 137.30170845 -347.113849579 124 -395 c 1
 143.810993688 -411.763148505 188.477527956 -444 239 -444 c 0
 256.960117179 -444 303 -434.77383098 303 -407 c 0
713 -763 m 1
 643.643804999 -763 626 -808.976595988 626 -814 c 0
 626 -817.333333333 626.833333333 -820.666666667 628.5 -824 c 130
 633 -833 l 1
 651.776666953 -865.859167167 687.69781494 -877 712 -877 c 0
 767.725556535 -877 794 -836.019681644 794 -824 c 0
 794 -807.621327311 769.548151522 -767.917230567 713 -763 c 1
EndSplineSet
Ligature2: "'dlig' Discretionary Ligatures in Latin lookup 3 subtable" A Z U
EndChar

StartChar: A_Z_u
Encoding: 65576 -1 106
Width: 916
GlyphClass: 3
Flags: HW
LayerCount: 2
Fore
SplineSet
832 -314 m 1
 829.254868553 -256.352239605 753.338261953 -155 661 -155 c 0
 570.766989723 -155 488.304781543 -251.137943039 478 -331 c 0
 478 -343.024257553 479 -345.364631336 479 -356 c 0
 479 -371.134748594 469.763008955 -417 446 -417 c 0
 434.864129493 -417 425 -404.55786235 425 -367 c 2
 425 -366 l 1
 423.666666667 -358.666666667 422.666666667 -351.5 422 -344.5 c 128
 416.85840641 -290.5132673 340.981395439 -153 228 -153 c 0
 160.612822483 -153 71 -232.496083638 71 -297 c 0
 71 -312.333333333 75.3333333333 -328.666666667 84 -346 c 1
 104.699425735 -278.72686636 140.821780009 -230 226 -230 c 0
 307.733616869 -230 354 -307.671702907 354 -387 c 0
 354 -458.60194923 317.714258899 -543 229 -543 c 0
 111.134826136 -543 20 -430.386703236 20 -316 c 0
 20 -176.100389425 138.761931126 -54 238 -54 c 0
 334.171165871 -54 415.561864789 -138.730509458 453 -235 c 1
 498.011495558 -126.972410661 583.115492853 -55 674 -55 c 0
 773.010348549 -55 884 -168.972285766 884 -300 c 0
 884 -333.333333333 877.333333333 -366 864 -398 c 1
 870.131306678 -422.525226713 872 -447.572116796 872 -478 c 0
 872 -500.115697022 868.999851875 -595.333580208 820 -677 c 1
 834.450131961 -687.837598971 880 -727.804569418 880 -801 c 0
 880 -883.799513419 832.09592221 -979 733 -979 c 0
 651.928997888 -979 600 -905.24896026 600 -829 c 0
 600 -808.833658963 604.041367188 -728.405181884 666 -680 c 1
 671.333333333 -670 679.333333333 -665 690 -665 c 1
 705.333333333 -658.333333333 722.333333333 -654.333333333 741 -653 c 1
 793.812683423 -626.593658289 821 -562.023361818 821 -497 c 0
 821 -488.558858984 820.471965433 -480.775723465 819 -469 c 1
 805.190261334 -484.782558476 746.378253296 -546 665 -546 c 0
 597.750303617 -546 550 -496.861074336 550 -409 c 0
 550 -324.014005945 600.631699361 -232 691 -232 c 0
 721.458293689 -232 787.883557315 -241.11196426 832 -314 c 1
303 -407 m 0
 303 -364.792493791 256.626406112 -330 216 -330 c 0
 158.676426278 -330 137.30170845 -347.113849579 124 -395 c 1
 143.810993688 -411.763148505 188.477527956 -444 239 -444 c 0
 256.960117179 -444 303 -434.77383098 303 -407 c 0
602 -391 m 0
 602 -427.470553423 643.44016804 -446 675 -446 c 0
 710.803610791 -446 759.02420532 -425.257731106 793 -394 c 1
 777.891049544 -369.114669837 744.252055286 -332 678 -332 c 0
 650.264086184 -332 602 -354.250793094 602 -391 c 0
746 -879 m 0
 790.52520495 -879 829 -847.900498987 829 -825 c 0
 829 -798.887388038 796.100870756 -755.003478302 738 -753 c 1
 722 -760.333333333 705 -764.333333333 687 -765 c 1
 654.088545804 -782.423711045 651 -804.461855038 651 -805 c 0
 651 -836.58204356 690.305360046 -879 746 -879 c 0
EndSplineSet
Ligature2: "'dlig' Discretionary Ligatures in Latin lookup 3 subtable" A Z u
EndChar

StartChar: A_a
Encoding: 65577 -1 107
Width: 1376
GlyphClass: 3
Flags: HW
LayerCount: 2
Fore
SplineSet
1249 301 m 1
 1237.87963292 389.962936641 1183.92730065 456 1092 456 c 0
 996.459489064 456 878 390.186014172 878 274 c 0
 878 256.458239141 870.938082984 208 847 208 c 2
 846 208 l 1
 833.535739549 209.780608636 826 224.064138507 826 256 c 0
 821.489395598 416.126456259 657.136535808 456 601 456 c 0
 576.579267638 456 457.553842366 448.276798064 453 298 c 1
 456.958800345 301.50201569 507.704432281 345 586 345 c 0
 633.237527486 345 741 327.223152963 741 165 c 0
 741 85.5632287681 712.898925179 -2 589 -2 c 0
 509.339711307 -2 441.679733964 43.6111306527 411 174 c 1
 252.366658052 174 205.633341948 173 47 173 c 0
 23.905361125 173 13 179.07183563 13 214 c 0
 13 237.403657943 25.228162317 270.604023188 42 273 c 1
 95 273 l 2
 100.056182653 273 101.332706236 274 105 274 c 0
 172.55376767 279.874240667 195 319.888461282 195 328 c 0
 195 329.418238344 189.77436091 395.85870884 80 411 c 0
 67.7942220772 412.74368256 65.2057779228 410.25631744 53 412 c 0
 43.6017003831 413.445892249 33 421.957512581 33 453 c 0
 33 463.565209467 40.6477331087 512 64 512 c 0
 178.039695128 512 246 446.40129008 246 345 c 0
 246 318.333333333 241.666666667 294.333333333 233 273 c 1
 401 273 l 1
 403.699382536 402.570361704 460.589767719 555 612 555 c 0
 667.447683163 555 801.273715216 525.873608106 855 394 c 1
 894.781247112 481.021478058 990.615230759 555 1101 555 c 0
 1257.70235255 555 1303 397.110384452 1303 287 c 0
 1303 281.268371326 1302.9957076 268.952783579 1301 247 c 1
 1332.3551482 202.379212173 1356 142.124023772 1356 78 c 0
 1356 -144.024357338 1133.67397664 -234 814 -234 c 0
 783.091860342 -234 700.469208211 -233.746920821 573 -221 c 0
 565.668827971 -221 464.980815987 -209.490407993 464 -209 c 0
 459.195633921 -206.9981808 445 -201.083333333 445 -168 c 0
 445 -157.434790533 452.647733109 -109 476 -109 c 2
 478 -109 l 1
 642.639190162 -129.816449331 737.677271483 -135 823 -135 c 0
 932.380379196 -135 1172.91309888 -122.408635505 1270 -17 c 0
 1282.33333333 -2.90476190476 1305 23 1305 58 c 0
 1305 71.055576935 1302.2546696 103.242217334 1279 142 c 1
 1265.36278514 101.088355408 1219.53715945 -2 1104 -2 c 0
 1009.33333333 -2 962 45.6666666667 962 141 c 0
 962 186.073724314 972.725774963 345 1124 345 c 0
 1151.87262401 345 1200.29439179 338.465852471 1249 301 c 1
690 142 m 1
 690 175.778688852 677.604492644 245 576 245 c 0
 509.660742606 245 465.827345152 208.827345152 465 208 c 0
 495.82788635 105.882626465 561.401451419 98 602 98 c 0
 622.746766907 98 678.014923074 107.283576917 689 132 c 1
 690 142 l 1
1013 161 m 0
 1013 106.701073558 1086.30856319 98 1114 98 c 0
 1159.73427613 98 1215.93128926 115.090989204 1240 191 c 1
 1190.96549753 240.034502468 1144.96269663 246 1114 246 c 0
 1077.50294505 246 1013 235.466285443 1013 161 c 0
EndSplineSet
Ligature2: "'dlig' Discretionary Ligatures in Latin lookup 3 subtable" A a
EndChar

StartChar: A_b
Encoding: 65578 -1 108
Width: 1129
GlyphClass: 3
Flags: HW
LayerCount: 2
Fore
SplineSet
1102 -541 m 2
 1102 -551.565209467 1094.35226689 -600 1071 -600 c 2
 605 -600 l 2
 602.003212334 -600 604.326187162 -599.775395721 599 -598 c 0
 595.389650061 -598 590.004705994 -590.014117981 588 -584 c 0
 588 -582.666666667 587.666666667 -581.333333333 587 -580 c 0
 587 -579.927198901 586.705518142 -574.705518142 585 -573 c 0
 585 -569 584.666666667 -566.333333333 584 -565 c 0
 584 -557.762032825 585.082388629 -507.479402843 615 -500 c 1
 791 -500 l 1
 747 -566 683.333333333 -599 600 -599 c 1
 597.911111111 -597.955555556 591.6 -594.8 588 -584 c 0
 588 -582.666666667 587.666666667 -581.333333333 587 -580 c 0
 587 -579.927198901 586.705518142 -574.705518142 585 -573 c 0
 585 -569 584.666666667 -566.333333333 584 -565 c 0
 584 -550.700265717 590.460300024 -500 615 -500 c 0
 639.354354631 -496.253176211 644.091661915 -498.825001097 665 -494 c 0
 686.648341286 -488.387467074 789 -457.661468447 789 -347 c 0
 789 -260.16267755 721.776692205 -203 639 -203 c 256
 561.783645733 -203 501.166657207 -307.666799096 495 -394 c 0
 493.666666667 -407.333333333 492.666666667 -420.166666667 492 -432.5 c 128
 490.880311876 -453.214230289 474.370640178 -475 463 -475 c 0
 446.230395865 -475 442 -450.112374195 442 -425 c 0
 436.676073396 -321.18343122 331.74567822 -202 227 -202 c 0
 150.307515781 -202 72 -269.64636895 72 -349 c 0
 72 -365 75.3333333333 -380 82 -394 c 1
 93.3333333333 -363.333333333 109.5 -338.666666667 130.5 -320 c 128
 151.5 -301.333333333 181.333333333 -292 220 -292 c 0
 303.692339628 -292 346 -371.48704486 346 -450 c 0
 346 -511.922867746 314.257718118 -600 225 -600 c 0
 139.383657539 -600 20 -518.239534731 20 -370 c 0
 20 -246.16507837 101.950102122 -103 239 -103 c 0
 349.596007658 -103 438.206348326 -211.369961136 468 -287 c 1
 483.696725449 -239.909823654 542.317658626 -103 654 -103 c 0
 776.816550338 -103 840 -214.112990949 840 -327 c 0
 840 -368.156447661 832.644620249 -437.533069627 791 -500 c 1
 1050 -500 l 1
 1050 -261 l 2
 1050 -260.099944446 1049 -188.566722221 1049 -171 c 128
 1049 -125.621527778 1049 -55 1081 -55 c 0
 1101.85511909 -55 1102 -94.8890291658 1102 -96 c 2
 1102 -541 l 2
295 -468 m 0
 295 -424.238827777 247.592185161 -392 210 -392 c 0
 149.047703144 -392 128.48832436 -413.209477348 119 -448 c 1
 129.578068365 -458.154945631 176.209566399 -501 235 -501 c 0
 249.76293662 -501 295 -491.989030013 295 -468 c 0
EndSplineSet
Ligature2: "'dlig' Discretionary Ligatures in Latin lookup 3 subtable" A b
EndChar

StartChar: A_b_U
Encoding: 65579 -1 109
Width: 1135
GlyphClass: 3
Flags: HW
LayerCount: 2
Fore
SplineSet
776 -748 m 0
 776 -713.343935722 782.897887708 -655.421254243 821 -600 c 1
 605 -600 l 2
 603.476962997 -600 604.434171344 -599.811390448 599 -598 c 0
 598.333333333 -598 597.333333333 -597.666666667 596 -597 c 0
 596 -596.333333333 595.833333333 -596 595.5 -596 c 128
 595.166666667 -596 595 -595.666666667 595 -595 c 1
 593.666666667 -595 593 -594.333333333 593 -593 c 0
 591 -591 589.333333333 -588 588 -584 c 0
 588 -582.666666667 587.666666667 -581.333333333 587 -580 c 0
 587 -579.927198901 586.705518142 -574.705518142 585 -573 c 0
 585 -569 584.666666667 -566.333333333 584 -565 c 0
 584 -557.762032825 585.082388629 -507.479402843 615 -500 c 1
 791 -500 l 1
 760.660295854 -545.509556219 707.247885221 -599 600 -599 c 1
 596 -597 l 2
 596 -596.333333333 595.833333333 -596 595.5 -596 c 128
 595.166666667 -596 595 -595.666666667 595 -595 c 1
 593.666666667 -595 593 -594.333333333 593 -593 c 0
 591 -591 589.333333333 -588 588 -584 c 0
 588 -582.666666667 587.666666667 -581.333333333 587 -580 c 0
 587 -579.927198901 586.705518142 -574.705518142 585 -573 c 0
 585 -569 584.666666667 -566.333333333 584 -565 c 0
 584 -550.700265717 590.460300024 -500 615 -500 c 0
 639.354354631 -496.253176211 644.091661915 -498.825001097 665 -494 c 0
 686.648341286 -488.387467074 789 -457.661468447 789 -347 c 0
 789 -260.16267755 721.776692205 -203 639 -203 c 256
 561.783645733 -203 501.166657207 -307.666799096 495 -394 c 0
 493.666666667 -407.333333333 492.666666667 -420.166666667 492 -432.5 c 128
 490.880311876 -453.214230289 474.370640178 -475 463 -475 c 0
 446.230395865 -475 442 -450.112374195 442 -425 c 0
 436.676073396 -321.18343122 331.74567822 -202 227 -202 c 0
 150.307515781 -202 72 -269.64636895 72 -349 c 0
 72 -365 75.3333333333 -380 82 -394 c 1
 93.3333333333 -363.333333333 109.5 -338.666666667 130.5 -320 c 128
 151.5 -301.333333333 181.333333333 -292 220 -292 c 0
 303.692339628 -292 346 -371.48704486 346 -450 c 0
 346 -511.922867746 314.257718118 -600 225 -600 c 0
 139.383657539 -600 20 -518.239534731 20 -370 c 0
 20 -246.16507837 101.950102122 -103 239 -103 c 0
 349.596007658 -103 438.206348326 -211.369961136 468 -287 c 1
 483.696725449 -239.909823654 542.317658626 -103 654 -103 c 0
 776.816550338 -103 840 -214.112990949 840 -327 c 0
 840 -368.156447661 832.644620249 -437.533069627 791 -500 c 1
 1050 -500 l 1
 1050 -261 l 2
 1050 -260.099944446 1049 -188.566722221 1049 -171 c 128
 1049 -125.621527778 1049 -55 1081 -55 c 0
 1101.85511909 -55 1102 -94.8890291658 1102 -96 c 2
 1102 -544 l 1
 1127.72832086 -562.295694836 1196 -621.793634018 1196 -738 c 0
 1196 -855.865081086 1117.65445423 -980 983 -980 c 0
 850.828416758 -980 776 -861.791249182 776 -748 c 0
842 -686 m 128
 842 -687.697894088 826 -707.333355912 826 -737 c 0
 826 -821.922993732 915.317587502 -880 987 -880 c 0
 1061.91819349 -880 1146 -823.43613707 1146 -748 c 0
 1146 -729.684519292 1140.84056507 -697.705600386 1111 -666 c 1
 1108.51063253 -738.191656588 1064.91500108 -823 975 -823 c 0
 894.707919799 -823 848.330330248 -755.959458342 843 -684 c 1
 842.333333333 -684.666666667 842 -685.333333333 842 -686 c 128
980 -609 m 1
 917.5457398 -609 893 -649.135509038 893 -660 c 0
 893 -663.333333333 893.833333333 -666.666666667 895.5 -670 c 130
 900 -679 l 1
 918.776666953 -711.859167167 954.69781494 -723 979 -723 c 0
 1036.41204286 -723 1061 -679.881157064 1061 -670 c 0
 1061 -660.749011049 1042.79241506 -614.460210005 980 -609 c 1
295 -468 m 0
 295 -424.238827777 247.592185161 -392 210 -392 c 0
 149.047703144 -392 128.48832436 -413.209477348 119 -448 c 1
 129.578068365 -458.154945631 176.209566399 -501 235 -501 c 0
 249.76293662 -501 295 -491.989030013 295 -468 c 0
EndSplineSet
Ligature2: "'dlig' Discretionary Ligatures in Latin lookup 3 subtable" A b U
EndChar

StartChar: A_b_u
Encoding: 65580 -1 110
Width: 1128
GlyphClass: 3
Flags: HW
LayerCount: 2
Fore
SplineSet
945 -836 m 0
 863.928997888 -836 812 -762.24896026 812 -686 c 0
 812 -654.666666667 818 -626 830 -600 c 1
 605 -600 l 2
 603.666666667 -599.333333333 602.666666667 -599 602 -599 c 128
 601.333333333 -599 600.333333333 -598.666666667 599 -598 c 0
 595.389650061 -598 590.004705994 -590.014117981 588 -584 c 0
 588 -582.666666667 587.666666667 -581.333333333 587 -580 c 0
 587 -579.927198901 586.705518142 -574.705518142 585 -573 c 0
 585 -569 584.666666667 -566.333333333 584 -565 c 2
 584 -559 l 2
 584 -558.333516692 586.044130354 -507.238967411 615 -500 c 1
 791 -500 l 1
 762.359824934 -542.960262598 705.264582654 -600 604 -600 c 1
 599 -598 l 1
 595.389650061 -598 590.004705994 -590.014117981 588 -584 c 0
 588 -582.666666667 587.666666667 -581.333333333 587 -580 c 0
 587 -579.927198901 586.705518142 -574.705518142 585 -573 c 0
 585 -569 584.666666667 -566.333333333 584 -565 c 2
 584 -559 l 2
 584 -548.434790533 591.647733109 -500 615 -500 c 0
 639.354354631 -496.253176211 644.091661915 -498.825001097 665 -494 c 0
 686.648341286 -488.387467074 789 -457.661468447 789 -347 c 0
 789 -260.16267755 721.776692205 -203 639 -203 c 256
 561.783645733 -203 501.166657207 -307.666799096 495 -394 c 0
 493.666666667 -407.333333333 492.666666667 -420.166666667 492 -432.5 c 128
 490.880311876 -453.214230289 474.370640178 -475 463 -475 c 0
 446.230395865 -475 442 -450.112374195 442 -425 c 0
 436.676073396 -321.18343122 331.74567822 -202 227 -202 c 0
 150.307515781 -202 72 -269.64636895 72 -349 c 0
 72 -365 75.3333333333 -380 82 -394 c 1
 93.3333333333 -363.333333333 109.5 -338.666666667 130.5 -320 c 128
 151.5 -301.333333333 181.333333333 -292 220 -292 c 0
 303.692339628 -292 346 -371.48704486 346 -450 c 0
 346 -511.922867746 314.257718118 -600 225 -600 c 0
 139.383657539 -600 20 -518.239534731 20 -370 c 0
 20 -246.16507837 101.950102122 -103 239 -103 c 0
 349.596007658 -103 438.206348326 -211.369961136 468 -287 c 1
 483.696725449 -239.909823654 542.317658626 -103 654 -103 c 0
 776.816550338 -103 840 -214.112990949 840 -327 c 0
 840 -368.156447661 832.644620249 -437.533069627 791 -500 c 1
 1050 -500 l 1
 1050 -261 l 2
 1050 -260.099944446 1049 -188.566722221 1049 -171 c 128
 1049 -125.621527778 1049 -55 1081 -55 c 0
 1101.85511909 -55 1102 -94.8890291658 1102 -96 c 2
 1102 -541 l 2
 1102 -541.867836474 1099.59638174 -582.74808601 1080 -597 c 1
 1088 -616.333333333 1092 -636.666666667 1092 -658 c 0
 1092 -740.799513419 1044.09592221 -836 945 -836 c 0
1041 -682 m 0
 1041 -654.00843331 1003.25581921 -610 946 -610 c 0
 896.421570844 -610 863 -647.388742158 863 -662 c 0
 863 -693.58204356 902.305360046 -736 958 -736 c 0
 1002.52520495 -736 1041 -704.900498987 1041 -682 c 0
295 -468 m 0
 295 -424.238827777 247.592185161 -392 210 -392 c 0
 149.047703144 -392 128.48832436 -413.209477348 119 -448 c 1
 129.578068365 -458.154945631 176.209566399 -501 235 -501 c 0
 249.76293662 -501 295 -491.989030013 295 -468 c 0
EndSplineSet
Ligature2: "'dlig' Discretionary Ligatures in Latin lookup 3 subtable" A b u
EndChar

StartChar: A_c
Encoding: 65581 -1 111
Width: 695
GlyphClass: 3
Flags: HW
LayerCount: 2
Fore
SplineSet
343 -296 m 0
 343 -205.161595866 280.143124227 -161 204 -161 c 0
 200.023450522 -161 114.457513764 -161.627458709 96.5 -215.5 c 128
 92.4569160998 -227.629251701 81.3333333333 -261 65 -261 c 0
 44.2275144521 -261 44 -221.45177428 44 -221 c 0
 44 -176.365836816 82.1322793964 -62 213 -62 c 0
 345.921152166 -62 394 -170.791090536 394 -276 c 0
 394 -340.093641101 378.866906673 -429.214028565 310 -503 c 1
 614 -503 l 1
 614 -256 l 2
 614 -255.099944446 613 -183.566722221 613 -166 c 128
 613 -90.3846153846 616.223069967 -84.1864039092 627.5 -62.5 c 128
 631.833333333 -54.1666666667 637.666666667 -50 645 -50 c 0
 665.688678944 -50 666 -89.5482257201 666 -90 c 2
 666 -543 l 2
 666 -567.815850763 654.360430874 -603 635 -603 c 2
 46 -603 l 1
 27.2708002063 -599.878466701 26 -570.828823873 26 -563 c 0
 26 -552.126139448 33.3781152411 -503 57 -503 c 2
 88 -503 l 1
 196.600909284 -500.531797516 343 -437.774129885 343 -296 c 0
EndSplineSet
Ligature2: "'dlig' Discretionary Ligatures in Latin lookup 3 subtable" A c
EndChar

StartChar: A_c_U
Encoding: 65582 -1 112
Width: 701
GlyphClass: 3
Flags: HW
LayerCount: 2
Fore
SplineSet
343 -296 m 0
 343 -205.161595866 280.143124227 -161 204 -161 c 0
 200.023450522 -161 114.457513764 -161.627458709 96.5 -215.5 c 128
 92.4569160998 -227.629251701 81.3333333333 -261 65 -261 c 0
 44.2275144521 -261 44 -221.45177428 44 -221 c 0
 44 -176.365836816 82.1322793964 -62 213 -62 c 0
 345.921152166 -62 394 -170.791090536 394 -276 c 0
 394 -340.093641101 378.866906673 -429.214028565 310 -503 c 1
 614 -503 l 1
 614 -256 l 2
 614 -255.099944446 613 -183.566722221 613 -166 c 128
 613 -90.3846153846 616.223069967 -84.1864039092 627.5 -62.5 c 128
 631.833333333 -54.1666666667 637.666666667 -50 645 -50 c 0
 665.688678944 -50 666 -89.5482257201 666 -90 c 2
 666 -546 l 1
 694.953513292 -566.589165008 760 -625.581182257 760 -740 c 0
 760 -860.884503255 679.097261707 -981 547 -981 c 0
 416.88589762 -981 340 -866.287344815 340 -749 c 0
 340 -716.769402451 346.47494732 -660.181032655 384 -603 c 1
 46 -603 l 1
 27.2708002063 -599.878466701 26 -570.828823873 26 -563 c 0
 26 -552.126139448 33.3781152411 -503 57 -503 c 2
 88 -503 l 1
 196.600909284 -500.531797516 343 -437.774129885 343 -296 c 0
407 -686 m 1
 390 -720 390 -720 390 -739 c 0
 390 -821.367735331 476.634845717 -882 551 -882 c 0
 625.918193485 -882 710 -825.43613707 710 -750 c 0
 710 -728.376085099 703.605800399 -697.393662923 675 -667 c 1
 672.510632531 -739.191656588 628.915001083 -824 539 -824 c 0
 462.533840647 -824 412.663563963 -762.458113494 407 -686 c 1
543 -724 m 0
 596.723986906 -724 625 -685.037823116 625 -671 c 0
 625 -664.736201089 607.042913931 -615.481992516 544 -610 c 0
 528.009572881 -611.99880339 522.092487176 -610.976878206 510 -614 c 0
 495.463463875 -618.845512042 457 -641.538822799 457 -662 c 0
 457 -679.988654402 489.474740565 -724 543 -724 c 0
EndSplineSet
Ligature2: "'dlig' Discretionary Ligatures in Latin lookup 3 subtable" A c U
EndChar

StartChar: A_c_u
Encoding: 65583 -1 113
Width: 692
GlyphClass: 3
Flags: HW
LayerCount: 2
Fore
SplineSet
343 -296 m 0
 343 -205.161595866 280.143124227 -161 204 -161 c 0
 200.023450522 -161 114.457513764 -161.627458709 96.5 -215.5 c 128
 92.4569160998 -227.629251701 81.3333333333 -261 65 -261 c 0
 44.2275144521 -261 44 -221.45177428 44 -221 c 0
 44 -176.365836816 82.1322793964 -62 213 -62 c 0
 345.921152166 -62 394 -170.791090536 394 -276 c 0
 394 -340.093641101 378.866906673 -429.214028565 310 -503 c 1
 614 -503 l 1
 614 -256 l 2
 614 -255.099944446 613 -183.566722221 613 -166 c 128
 613 -90.3846153846 616.223069967 -84.1864039092 627.5 -62.5 c 128
 631.833333333 -54.1666666667 637.666666667 -50 645 -50 c 0
 665.688678944 -50 666 -89.5482257201 666 -90 c 2
 666 -543 l 2
 666 -552.705321897 662.282736305 -569.977980129 655 -586 c 1
 665 -607.333333333 670 -629.666666667 670 -653 c 0
 670 -735.799513419 622.09592221 -831 523 -831 c 0
 441.928997888 -831 390 -757.24896026 390 -681 c 0
 390 -653 395 -627 405 -603 c 1
 46 -603 l 1
 27.2708002063 -599.878466701 26 -570.828823873 26 -563 c 0
 26 -552.126139448 33.3781152411 -503 57 -503 c 2
 88 -503 l 1
 196.600909284 -500.531797516 343 -437.774129885 343 -296 c 0
619 -677 m 0
 619 -649.00843331 581.25581921 -605 524 -605 c 0
 474.421570844 -605 441 -642.388742158 441 -657 c 0
 441 -688.58204356 480.305360046 -731 536 -731 c 0
 580.52520495 -731 619 -699.900498987 619 -677 c 0
EndSplineSet
Ligature2: "'dlig' Discretionary Ligatures in Latin lookup 3 subtable" A c u
EndChar

StartChar: A_d
Encoding: 65584 -1 114
Width: 451
GlyphClass: 3
Flags: HW
LayerCount: 2
Fore
SplineSet
327 -218 m 1
 299.694471247 -177.041706871 250.213318579 -145 193 -145 c 0
 133.428505657 -145 89.8163834973 -177.367233005 76 -205 c 128
 72.7264957265 -211.547008547 63 -231 50 -231 c 0
 28.5669554663 -231 28 -186.500899191 28 -186 c 0
 28 -130.316249855 98.5471204879 -45 198 -45 c 0
 287.237051702 -45 383 -118.756680913 383 -212 c 0
 383 -236.196753831 377.218200313 -276.442709703 344 -308 c 1
 360.555587657 -325.529445754 374 -353.243319891 374 -397 c 0
 374 -541.345497894 197.691505155 -598 195 -598 c 0
 173.566955466 -598 173 -553.500899191 173 -553 c 0
 173 -507.153846154 193.342281879 -499.329891585 208.5 -493.5 c 128
 234.233184347 -483.602621405 304.398193191 -448.404215888 323 -405 c 1
 302.338412985 -367.120423805 219.524350393 -361.728896124 209.5 -362.5 c 128
 197.599946837 -363.415388705 174 -365.230769231 174 -317 c 0
 174 -316.382829035 175.092334951 -265.363458131 202 -262 c 0
 206.666666667 -261.333333333 211.333333333 -261 216 -261 c 128
 217.190378091 -261 292.04445375 -257.067963456 327 -218 c 1
EndSplineSet
Ligature2: "'dlig' Discretionary Ligatures in Latin lookup 3 subtable" A d
EndChar

StartChar: A_g
Encoding: 65585 -1 115
Width: 780
GlyphClass: 3
Flags: HW
LayerCount: 2
Fore
SplineSet
30 -323 m 0
 30 -208.334152907 82.6097691867 -49 235 -49 c 0
 256.433044534 -49 257 -93.4991008085 257 -94 c 0
 257 -94.617170965 255.907665049 -145.636541869 229 -149 c 0
 221.666666667 -150.333333333 214.833333333 -151 208.5 -151 c 128
 168.116852924 -151 80 -192.049530046 80 -312 c 0
 80 -405.670459348 141.358739035 -500 240 -500 c 0
 309.938020912 -500 333.39668199 -433.668475719 361.5 -328 c 128
 401.299327157 -178.35452989 416.142857143 -122.542857143 471 -75 c 128
 491 -57.6666666667 516 -49 546 -49 c 0
 688.002530178 -49 750 -199.052079831 750 -324 c 256
 750 -445.090421005 690.525286714 -600 546 -600 c 0
 524.566955466 -600 524 -555.500899191 524 -555 c 0
 524 -498 558.115984405 -498 572.5 -498 c 128
 620.860060949 -498 699 -446.371406545 699 -334 c 0
 699 -243.133187121 642.113532851 -149 541 -149 c 0
 475.29079059 -149 446.070458866 -202.532256309 414.5 -322.5 c 128
 377.603320664 -462.707381478 360.583234947 -527.383707202 307 -574.5 c 128
 287.666666667 -591.5 263.666666667 -600 235 -600 c 0
 86.0259456489 -600 30 -435.812482787 30 -323 c 0
EndSplineSet
Ligature2: "'dlig' Discretionary Ligatures in Latin lookup 3 subtable" A g
EndChar

StartChar: A_h
Encoding: 65586 -1 116
Width: 1014
GlyphClass: 3
Flags: HW
LayerCount: 2
Fore
SplineSet
789 -50 m 0
 911.302946676 -50 984 -133.371573105 984 -277 c 0
 984 -304.818497577 980.134592488 -409.655409563 926 -516.5 c 128
 896.487493046 -574.748368989 858.245725908 -601 847 -601 c 0
 826.227514452 -601 826 -561.45177428 826 -561 c 0
 826 -521.015823904 848.198951593 -502.708418128 861.5 -493.5 c 128
 898.118312894 -468.148860304 933 -373.08264723 933 -301 c 0
 933 -244.073644418 912.238314377 -150 775 -150 c 0
 670.984012445 -150 635.864945455 -206.602448477 627.5 -326.5 c 128
 618.925827745 -449.396468989 613.333746258 -521.078844008 571 -574.5 c 128
 557 -592.166666667 537.666666667 -601 513 -601 c 2
 506 -601 l 2
 460.890215965 -601 447.912233762 -590.494680515 435 -575 c 0
 422.289211352 -559.525996429 400.124183007 -532.54248366 391.5 -415.5 c 128
 381.165147599 -275.241288846 376.988847584 -218.562931492 318.5 -174 c 128
 297.5 -158 267.666666667 -150 229 -150 c 0
 176.623904328 -150 81 -165.29629015 81 -277 c 0
 81 -346.20494771 112.50667453 -451.821761422 163 -497 c 0
 184.742431119 -512.530307942 188 -518.120650588 188 -541 c 0
 188 -562.735868966 177.320950764 -601 157 -601 c 0
 137.034407839 -601 63.1142094443 -532.685256666 36.5 -373 c 128
 32.1666666667 -347 30 -323.333333333 30 -302 c 0
 30 -223.218322401 51.541197236 -50 241 -50 c 0
 396.079315255 -50 426.465567912 -184.308121537 437 -319.5 c 128
 446.437605799 -440.615941089 448.48516129 -466.892903226 466 -486 c 0
 478.444184404 -500.518215138 486.291542248 -502 521 -502 c 0
 563.226510431 -502 567.167015073 -462.606814095 569 -440 c 128
 584.579511316 -247.852693766 587.403433476 -213.024320458 617.5 -153.5 c 128
 632.5 -123.833333333 653.5 -99.1666666667 680.5 -79.5 c 128
 707.5 -59.8333333333 743.666666667 -50 789 -50 c 0
EndSplineSet
Ligature2: "'dlig' Discretionary Ligatures in Latin lookup 3 subtable" A h
EndChar

StartChar: A_i
Encoding: 65587 -1 117
Width: 945
GlyphClass: 3
Flags: HW
LayerCount: 2
Fore
SplineSet
608 334 m 0
 608 387.183260632 550.857812595 451 495 451 c 0
 423.62962963 451 396.338388207 345.733783083 388.5 315.5 c 128
 376.302922378 268.454129172 366.911841938 260.477960485 357 258 c 1
 354 258 l 2
 353.333333333 258 353 258.166666667 353 258.5 c 128
 353 258.833333333 352.666666667 259 352 259 c 2
 350 259 l 1
 339.644898373 263.60226739 336 281.73074176 336 282 c 0
 322.436334738 333.994050172 300.555926993 413.640034765 241 442 c 1
 243.666666667 430.666666667 245 417 245 401 c 0
 245 341.596802318 205.770954767 213 116 213 c 0
 79.7955169436 213 14 261.487567414 14 351 c 0
 14 452.945677618 95.7015383806 552 203 552 c 0
 250.792699016 552 318.924876575 528.002833247 363 409 c 1
 394.393173208 487.482933019 439.84794471 550 505 550 c 0
 559.441023985 550 659 489.867595982 659 355 c 0
 659 305.289745289 646.181599117 200.03006571 552 98 c 1
 917 98 l 2
 937.855119087 98 938 58.1109708343 938 57 c 0
 938 33.3149084995 926.316162564 -2 907 -2 c 2
 497 -2 l 2
 496.197192427 -2 446 0.83546143268 446 60 c 0
 446 106.952380952 470.501352265 126.786808976 503.5 153.5 c 128
 562.044587652 200.893237623 608 277.369848847 608 334 c 0
126 312 m 0
 157.743215083 312 193 349.735312386 193 382 c 0
 193 399.671670646 190.63423452 413.36576548 156 448 c 1
 92.190985015 429.389037296 66 381.777719698 66 371 c 0
 66 350.208539768 102.967932381 312 126 312 c 0
EndSplineSet
Ligature2: "'dlig' Discretionary Ligatures in Latin lookup 3 subtable" A i
EndChar

StartChar: A_j
Encoding: 65588 -1 118
Width: 1623
GlyphClass: 3
Flags: HW
LayerCount: 2
Fore
SplineSet
657 -151 m 256
 621.396295965 -151 553.858611645 -172.44583219 534 -215 c 1
 534 -546 l 2
 534 -557.201565816 528.913555707 -601 506 -601 c 0
 484.566955466 -601 484 -556.500899191 484 -556 c 2
 484 -222 l 1
 475.260882011 -215.008705609 475.739117989 -212.991294391 467 -206 c 0
 447.065729331 -189.757260936 393.193786988 -151 333 -151 c 0
 187.603367617 -151 81 -239.342475774 81 -333 c 2
 81 -341 l 130
 81 -343.666666667 81.3333333333 -346.666666667 82 -350 c 1
 100.189092251 -312.040155302 148.254666457 -237 244 -237 c 0
 331.855562027 -237 396 -310.686739091 396 -396 c 0
 396 -490.390426623 327.329525896 -599 223 -599 c 0
 94.1376318457 -599 30 -454.373433102 30 -343 c 0
 30 -165.397820178 164.439468387 -51 339 -51 c 0
 431.459270578 -51 508.158116234 -128.316232467 508.5 -129 c 128
 508.833333333 -129.666666667 509.666666667 -130.333333333 511 -131 c 0
 525.040700263 -109.353920427 571.387180488 -51 663 -51 c 0
 669.905178713 -51 737.097553224 -52.2237465617 786 -99 c 0
 829.040454947 -136.976872012 836 -172.472871567 836 -235 c 2
 836 -426 l 1
 846.781308208 -469.125232831 923.258711528 -498 965 -498 c 0
 966.381955137 -498 1050.33819769 -497.769670509 1088 -435 c 1
 1088 -310 l 2
 1088 -203.564128346 1093.08275814 -123.677630652 1193 -75 c 0
 1222.12591086 -60.4370445711 1260.47096307 -51 1293 -51 c 0
 1467.0602333 -51 1593 -166.026011395 1593 -333 c 0
 1593 -430.83512327 1534.06511206 -599 1399 -599 c 0
 1293.89907089 -599 1227 -500.951750106 1227 -405 c 0
 1227 -315.132952919 1294.66787161 -237 1384 -237 c 0
 1444.6758533 -237 1500.61745733 -266.200819788 1542 -344 c 1
 1542 -218.041636468 1395.47247392 -151 1288 -151 c 0
 1245.04086366 -151 1144.96930784 -177.291575492 1138 -243.5 c 128
 1137.33333333 -249.833333333 1137 -255.666666667 1137 -261 c 0
 1137 -316.778018732 1138 -331.221981268 1138 -387 c 0
 1138 -457.589952377 1138 -541.263157895 1019.5 -587 c 128
 1000.5 -594.333333333 980.333333333 -598 959 -598 c 256
 952.094821287 -598 884.902446776 -596.776253438 836 -550 c 0
 792.959545053 -512.023127988 786 -476.527128433 786 -414 c 2
 786 -223 l 1
 775.218691792 -179.874767169 698.741288472 -151 657 -151 c 256
346 -409 m 0
 346 -385.476862938 299.956321964 -337 239 -337 c 0
 173.934569604 -337 128.337945058 -377.876283507 110 -428 c 1
 127.887174297 -455.725120161 165.594501081 -500 224 -500 c 0
 269.315874975 -500 312.105462125 -476.055388139 335 -437 c 1
 342 -423 l 130
 344.666666667 -417.666666667 346 -413 346 -409 c 0
1277 -398 m 0
 1277 -425.780574699 1324.25553955 -500 1400 -500 c 256
 1423.59737487 -500 1472.72473111 -492.385376452 1513 -436 c 1
 1500.45611228 -402.288301751 1462.194259 -337 1379 -337 c 0
 1315.15988683 -337 1277 -387.009729411 1277 -398 c 0
EndSplineSet
Ligature2: "'dlig' Discretionary Ligatures in Latin lookup 3 subtable" A j
EndChar

StartChar: A_k
Encoding: 65589 -1 119
Width: 813
GlyphClass: 3
Flags: HW
LayerCount: 2
Fore
SplineSet
783 -322 m 0
 783 -329.517397984 778.80483341 -377 755 -377 c 256
 747.742974016 -377 735.430817109 -371.754707953 733.5 -337 c 128
 730.733087524 -287.195575431 706.383705905 -223.668791187 615 -179.5 c 128
 595 -169.833333333 575.333333333 -162.666666667 556 -158 c 1
 588.640636144 -194.992720963 652 -283.1270759 652 -410 c 0
 652 -535.728288911 572.385846048 -598 514 -598 c 0
 488.303415392 -598 437.886989194 -588.773978388 405 -523 c 1
 386.899762584 -557.071035136 352.897554092 -598 294 -598 c 0
 244.415181439 -598 161 -548.005109681 161 -420 c 0
 161 -365.847143097 173.459720214 -253.931323034 264 -156 c 1
 206.863365978 -166.580858152 103.773635528 -210.937795668 83 -297 c 0
 80.7740154027 -312.581892181 81.5916423777 -324.10288303 77 -344 c 128
 74.7307692308 -353.833333333 69.3846153846 -377 52 -377 c 0
 30.5669554663 -377 30 -332.500899191 30 -332 c 0
 30 -169.011899325 158.080621531 -51 322 -51 c 0
 344.899982203 -51 375.049304287 -53.8147912861 409 -64 c 1
 440.939502137 -54.8744279609 468.850452924 -51 496 -51 c 0
 653.997153462 -51 783 -160.960801343 783 -322 c 0
520 -498 m 0
 560.494553452 -498 602 -459.477023691 602 -420 c 0
 602 -342.699432995 541.742113623 -210.914037874 404 -165 c 1
 257.293872421 -212.244346169 211 -349.599051807 211 -409 c 0
 211 -453.32572285 255.014096243 -498 299 -498 c 0
 334.63104604 -498 379.100544728 -469.491829078 382 -426 c 0
 382 -422.862292284 382.380982452 -366 410 -366 c 0
 431.543292404 -366 432 -411.171319135 432 -415 c 0
 432 -461.326339962 481.04770118 -498 520 -498 c 0
EndSplineSet
Ligature2: "'dlig' Discretionary Ligatures in Latin lookup 3 subtable" A k
EndChar

